<?xml version="1.0" encoding="UTF-8" standalone="no"?>
<!DOCTYPE svg PUBLIC "-//W3C//DTD SVG 1.1//EN"
 "http://www.w3.org/Graphics/SVG/1.1/DTD/svg11.dtd">
<!-- Generated by graphviz version 2.43.0 (0)
 -->
<!-- Title: HasWgtCent&lt; PT, PD &gt; Pages: 1 -->
<svg width="260pt" height="307pt"
 viewBox="0.00 0.00 260.00 307.00" xmlns="http://www.w3.org/2000/svg" xmlns:xlink="http://www.w3.org/1999/xlink">
<g id="graph0" class="graph" transform="scale(1 1) rotate(0) translate(4 303)">
<title>HasWgtCent&lt; PT, PD &gt;</title>
<!-- Node1 -->
<g id="Node000001" class="node">
<title>Node1</title>
<g id="a_Node000001"><a xlink:title="Represents an object with an array of weights and a counter.">
<polygon fill="#999999" stroke="transparent" points="195,-299 70,-299 70,-205 195,-205 195,-299"/>
<text text-anchor="start" x="75.5" y="-287" font-family="Helvetica,sans-Serif" font-size="10.00">HasWgtCent&lt; PT, PD &gt;</text>
<text text-anchor="start" x="81" y="-272" font-family="Helvetica,sans-Serif" font-size="10.00">+</text>
<text text-anchor="start" x="100.5" y="-272" font-family="Helvetica,sans-Serif" font-size="10.00">wgtCent</text>
<text text-anchor="start" x="81" y="-257" font-family="Helvetica,sans-Serif" font-size="10.00">+</text>
<text text-anchor="start" x="100.5" y="-257" font-family="Helvetica,sans-Serif" font-size="10.00">count</text>
<text text-anchor="start" x="81" y="-242" font-family="Helvetica,sans-Serif" font-size="10.00">+</text>
<text text-anchor="start" x="100.5" y="-242" font-family="Helvetica,sans-Serif" font-size="10.00">HasWgtCent()</text>
<text text-anchor="start" x="81" y="-227" font-family="Helvetica,sans-Serif" font-size="10.00">+</text>
<text text-anchor="start" x="100.5" y="-227" font-family="Helvetica,sans-Serif" font-size="10.00">resetCount()</text>
<text text-anchor="start" x="81" y="-212" font-family="Helvetica,sans-Serif" font-size="10.00">+</text>
<text text-anchor="start" x="100.5" y="-212" font-family="Helvetica,sans-Serif" font-size="10.00">~HasWgtCent()</text>
<polygon fill="#666666" stroke="#666666" points="70.5,-282 70.5,-282 195.5,-282 195.5,-282 70.5,-282"/>
<polygon fill="#666666" stroke="#666666" points="70.5,-252 70.5,-252 98.5,-252 98.5,-252 70.5,-252"/>
<polygon fill="#666666" stroke="#666666" points="98.5,-252 98.5,-252 195.5,-252 195.5,-252 98.5,-252"/>
<polygon fill="none" stroke="#666666" points="70,-205 70,-299 195,-299 195,-205 70,-205"/>
</a>
</g>
</g>
<!-- Node2 -->
<g id="Node000002" class="node">
<title>Node2</title>
<g id="a_Node000002"><a xlink:href="classCentroidPoint.html" target="_top" xlink:title="Represents a point with a centroid and associated weights.">
<polygon fill="white" stroke="transparent" points="131,-169 0,-169 0,0 131,0 131,-169"/>
<text text-anchor="start" x="5.5" y="-156.5" font-family="Helvetica,sans-Serif" font-size="10.00">CentroidPoint&lt; PT, PD &gt;</text>
<text text-anchor="start" x="64" y="-141.5" font-family="Helvetica,sans-Serif" font-size="10.00"> </text>
<text text-anchor="start" x="11.5" y="-126.5" font-family="Helvetica,sans-Serif" font-size="10.00">+</text>
<text text-anchor="start" x="31.5" y="-126.5" font-family="Helvetica,sans-Serif" font-size="10.00">CentroidPoint()</text>
<text text-anchor="start" x="11.5" y="-111.5" font-family="Helvetica,sans-Serif" font-size="10.00">+</text>
<text text-anchor="start" x="31.5" y="-111.5" font-family="Helvetica,sans-Serif" font-size="10.00">CentroidPoint()</text>
<text text-anchor="start" x="11.5" y="-96.5" font-family="Helvetica,sans-Serif" font-size="10.00">+</text>
<text text-anchor="start" x="31.5" y="-96.5" font-family="Helvetica,sans-Serif" font-size="10.00">operator+()</text>
<text text-anchor="start" x="11.5" y="-81.5" font-family="Helvetica,sans-Serif" font-size="10.00">+</text>
<text text-anchor="start" x="31.5" y="-81.5" font-family="Helvetica,sans-Serif" font-size="10.00">normalize()</text>
<text text-anchor="start" x="11.5" y="-66.5" font-family="Helvetica,sans-Serif" font-size="10.00">+</text>
<text text-anchor="start" x="31.5" y="-66.5" font-family="Helvetica,sans-Serif" font-size="10.00">operator==()</text>
<text text-anchor="start" x="11.5" y="-51.5" font-family="Helvetica,sans-Serif" font-size="10.00">+</text>
<text text-anchor="start" x="31.5" y="-51.5" font-family="Helvetica,sans-Serif" font-size="10.00">operator==()</text>
<text text-anchor="start" x="11.5" y="-36.5" font-family="Helvetica,sans-Serif" font-size="10.00">+</text>
<text text-anchor="start" x="31.5" y="-36.5" font-family="Helvetica,sans-Serif" font-size="10.00">operator!=()</text>
<text text-anchor="start" x="11.5" y="-21.5" font-family="Helvetica,sans-Serif" font-size="10.00">+</text>
<text text-anchor="start" x="31.5" y="-21.5" font-family="Helvetica,sans-Serif" font-size="10.00">operator!=()</text>
<text text-anchor="start" x="11.5" y="-6.5" font-family="Helvetica,sans-Serif" font-size="10.00">+</text>
<text text-anchor="start" x="31.5" y="-6.5" font-family="Helvetica,sans-Serif" font-size="10.00">~CentroidPoint()</text>
<polygon fill="#666666" stroke="#666666" points="0.5,-151.5 0.5,-151.5 131.5,-151.5 131.5,-151.5 0.5,-151.5"/>
<polygon fill="#666666" stroke="#666666" points="0.5,-136.5 0.5,-136.5 131.5,-136.5 131.5,-136.5 0.5,-136.5"/>
<polygon fill="none" stroke="#666666" points="0,0 0,-169 131,-169 131,0 0,0"/>
</a>
</g>
</g>
<!-- Node1&#45;&gt;Node2 -->
<g id="edge1_Node000001_Node000002" class="edge">
<title>Node1&#45;&gt;Node2</title>
<g id="a_edge1_Node000001_Node000002"><a xlink:title=" ">
<path fill="none" stroke="#63b8ff" d="M110.03,-195.49C106.58,-186.97 102.96,-178.02 99.33,-169.06"/>
<polygon fill="none" stroke="#63b8ff" points="106.84,-196.94 113.84,-204.9 113.33,-194.32 106.84,-196.94"/>
</a>
</g>
</g>
<!-- Node3 -->
<g id="Node000003" class="node">
<title>Node3</title>
<g id="a_Node000003"><a xlink:href="classKdNode.html" target="_top" xlink:title="Represents a node in a kd tree, including bounding box and child pointers.">
<polygon fill="white" stroke="transparent" points="252,-154 149,-154 149,-15 252,-15 252,-154"/>
<text text-anchor="start" x="154.5" y="-141.5" font-family="Helvetica,sans-Serif" font-size="10.00">KdNode&lt; PT, PD &gt;</text>
<text text-anchor="start" x="160" y="-126.5" font-family="Helvetica,sans-Serif" font-size="10.00">+</text>
<text text-anchor="start" x="179.5" y="-126.5" font-family="Helvetica,sans-Serif" font-size="10.00">cellMin</text>
<text text-anchor="start" x="160" y="-111.5" font-family="Helvetica,sans-Serif" font-size="10.00">+</text>
<text text-anchor="start" x="179.5" y="-111.5" font-family="Helvetica,sans-Serif" font-size="10.00">cellMax</text>
<text text-anchor="start" x="160" y="-96.5" font-family="Helvetica,sans-Serif" font-size="10.00">+</text>
<text text-anchor="start" x="179.5" y="-96.5" font-family="Helvetica,sans-Serif" font-size="10.00">left</text>
<text text-anchor="start" x="160" y="-81.5" font-family="Helvetica,sans-Serif" font-size="10.00">+</text>
<text text-anchor="start" x="179.5" y="-81.5" font-family="Helvetica,sans-Serif" font-size="10.00">right</text>
<text text-anchor="start" x="160" y="-66.5" font-family="Helvetica,sans-Serif" font-size="10.00">+</text>
<text text-anchor="start" x="179.5" y="-66.5" font-family="Helvetica,sans-Serif" font-size="10.00">myPoint</text>
<text text-anchor="start" x="160" y="-51.5" font-family="Helvetica,sans-Serif" font-size="10.00">+</text>
<text text-anchor="start" x="179.5" y="-51.5" font-family="Helvetica,sans-Serif" font-size="10.00">KdNode()</text>
<text text-anchor="start" x="160" y="-36.5" font-family="Helvetica,sans-Serif" font-size="10.00">+</text>
<text text-anchor="start" x="179.5" y="-36.5" font-family="Helvetica,sans-Serif" font-size="10.00">KdNode()</text>
<text text-anchor="start" x="160" y="-21.5" font-family="Helvetica,sans-Serif" font-size="10.00">+</text>
<text text-anchor="start" x="179.5" y="-21.5" font-family="Helvetica,sans-Serif" font-size="10.00">~KdNode()</text>
<polygon fill="#666666" stroke="#666666" points="149.5,-136.5 149.5,-136.5 252.5,-136.5 252.5,-136.5 149.5,-136.5"/>
<polygon fill="#666666" stroke="#666666" points="149.5,-61.5 149.5,-61.5 177.5,-61.5 177.5,-61.5 149.5,-61.5"/>
<polygon fill="#666666" stroke="#666666" points="177.5,-61.5 177.5,-61.5 252.5,-61.5 252.5,-61.5 177.5,-61.5"/>
<polygon fill="none" stroke="#666666" points="149,-15 149,-154 252,-154 252,-15 149,-15"/>
</a>
</g>
</g>
<!-- Node1&#45;&gt;Node3 -->
<g id="edge2_Node000001_Node000003" class="edge">
<title>Node1&#45;&gt;Node3</title>
<g id="a_edge2_Node000001_Node000003"><a xlink:title=" ">
<path fill="none" stroke="#63b8ff" d="M155.31,-195.48C160.74,-182.26 166.61,-167.99 172.25,-154.26"/>
<polygon fill="none" stroke="#63b8ff" points="152,-194.32 151.44,-204.9 158.48,-196.98 152,-194.32"/>
</a>
</g>
</g>
</g>
</svg>
