<?xml version="1.0" encoding="UTF-8" standalone="no"?>
<!DOCTYPE svg PUBLIC "-//W3C//DTD SVG 1.1//EN"
 "http://www.w3.org/Graphics/SVG/1.1/DTD/svg11.dtd">
<!-- Generated by graphviz version 2.43.0 (0)
 -->
<!-- Title: PhongMaterial Pages: 1 -->
<svg width="120pt" height="494pt"
 viewBox="0.00 0.00 120.00 494.00" xmlns="http://www.w3.org/2000/svg" xmlns:xlink="http://www.w3.org/1999/xlink">
<g id="graph0" class="graph" transform="scale(1 1) rotate(0) translate(4 490)">
<title>PhongMaterial</title>
<!-- Node1 -->
<g id="Node000001" class="node">
<title>Node1</title>
<g id="a_Node000001"><a xlink:title="A material implementing the Phong shading model.">
<polygon fill="#999999" stroke="transparent" points="106,-109 6,-109 6,0 106,0 106,-109"/>
<text text-anchor="start" x="20.5" y="-96.5" font-family="Helvetica,sans-Serif" font-size="10.00">PhongMaterial</text>
<text text-anchor="start" x="10" y="-81.5" font-family="Helvetica,sans-Serif" font-size="10.00">#</text>
<text text-anchor="start" x="23" y="-81.5" font-family="Helvetica,sans-Serif" font-size="10.00">texDiffuse</text>
<text text-anchor="start" x="10" y="-66.5" font-family="Helvetica,sans-Serif" font-size="10.00">#</text>
<text text-anchor="start" x="23" y="-66.5" font-family="Helvetica,sans-Serif" font-size="10.00">texSpecular</text>
<text text-anchor="start" x="10" y="-51.5" font-family="Helvetica,sans-Serif" font-size="10.00">#</text>
<text text-anchor="start" x="23" y="-51.5" font-family="Helvetica,sans-Serif" font-size="10.00">shininess</text>
<text text-anchor="start" x="10" y="-36.5" font-family="Helvetica,sans-Serif" font-size="10.00">+</text>
<text text-anchor="start" x="23" y="-36.5" font-family="Helvetica,sans-Serif" font-size="10.00">PhongMaterial()</text>
<text text-anchor="start" x="10" y="-21.5" font-family="Helvetica,sans-Serif" font-size="10.00">+</text>
<text text-anchor="start" x="23" y="-21.5" font-family="Helvetica,sans-Serif" font-size="10.00">PhongMaterial()</text>
<text text-anchor="start" x="10" y="-6.5" font-family="Helvetica,sans-Serif" font-size="10.00">+</text>
<text text-anchor="start" x="23" y="-6.5" font-family="Helvetica,sans-Serif" font-size="10.00">use()</text>
<polygon fill="#666666" stroke="#666666" points="6,-91.5 6,-91.5 106,-91.5 106,-91.5 6,-91.5"/>
<polygon fill="#666666" stroke="#666666" points="6,-46.5 6,-46.5 21,-46.5 21,-46.5 6,-46.5"/>
<polygon fill="#666666" stroke="#666666" points="21,-46.5 21,-46.5 106,-46.5 106,-46.5 21,-46.5"/>
<polygon fill="none" stroke="#666666" points="6,0 6,-109 106,-109 106,0 6,0"/>
</a>
</g>
</g>
<!-- Node2 -->
<g id="Node000002" class="node">
<title>Node2</title>
<g id="a_Node000002"><a xlink:href="classMaterial.html" target="_top" xlink:title="Represents a material that combines textures and shaders.">
<polygon fill="white" stroke="transparent" points="91,-225 21,-225 21,-146 91,-146 91,-225"/>
<text text-anchor="start" x="35.5" y="-212.5" font-family="Helvetica,sans-Serif" font-size="10.00">Material</text>
<text text-anchor="start" x="25" y="-197.5" font-family="Helvetica,sans-Serif" font-size="10.00">#</text>
<text text-anchor="start" x="38" y="-197.5" font-family="Helvetica,sans-Serif" font-size="10.00">textures</text>
<text text-anchor="start" x="25" y="-182.5" font-family="Helvetica,sans-Serif" font-size="10.00">+</text>
<text text-anchor="start" x="38" y="-182.5" font-family="Helvetica,sans-Serif" font-size="10.00">Material()</text>
<text text-anchor="start" x="25" y="-167.5" font-family="Helvetica,sans-Serif" font-size="10.00">+</text>
<text text-anchor="start" x="38" y="-167.5" font-family="Helvetica,sans-Serif" font-size="10.00">Material()</text>
<text text-anchor="start" x="25" y="-152.5" font-family="Helvetica,sans-Serif" font-size="10.00">+</text>
<text text-anchor="start" x="38" y="-152.5" font-family="Helvetica,sans-Serif" font-size="10.00">use()</text>
<polygon fill="#666666" stroke="#666666" points="21,-207.5 21,-207.5 91,-207.5 91,-207.5 21,-207.5"/>
<polygon fill="#666666" stroke="#666666" points="21,-192.5 21,-192.5 36,-192.5 36,-192.5 21,-192.5"/>
<polygon fill="#666666" stroke="#666666" points="36,-192.5 36,-192.5 91,-192.5 91,-192.5 36,-192.5"/>
<polygon fill="none" stroke="#666666" points="21,-146 21,-225 91,-225 91,-146 21,-146"/>
</a>
</g>
</g>
<!-- Node2&#45;&gt;Node1 -->
<g id="edge1_Node000001_Node000002" class="edge">
<title>Node2&#45;&gt;Node1</title>
<g id="a_edge1_Node000001_Node000002"><a xlink:title=" ">
<path fill="none" stroke="#63b8ff" d="M56,-135.6C56,-127.05 56,-118.12 56,-109.44"/>
<polygon fill="none" stroke="#63b8ff" points="52.5,-135.8 56,-145.8 59.5,-135.8 52.5,-135.8"/>
</a>
</g>
</g>
<!-- Node3 -->
<g id="Node000003" class="node">
<title>Node3</title>
<g id="a_Node000003"><a xlink:href="classShaderProgram.html" target="_top" xlink:title="Represents an OpenGL shader program.">
<polygon fill="white" stroke="transparent" points="112,-486 0,-486 0,-272 112,-272 112,-486"/>
<text text-anchor="start" x="18" y="-474" font-family="Helvetica,sans-Serif" font-size="10.00">ShaderProgram</text>
<text text-anchor="start" x="4" y="-459" font-family="Helvetica,sans-Serif" font-size="10.00">#</text>
<text text-anchor="start" x="17" y="-459" font-family="Helvetica,sans-Serif" font-size="10.00">glProgram</text>
<text text-anchor="start" x="4" y="-444" font-family="Helvetica,sans-Serif" font-size="10.00">+</text>
<text text-anchor="start" x="17" y="-444" font-family="Helvetica,sans-Serif" font-size="10.00">ShaderProgram()</text>
<text text-anchor="start" x="4" y="-429" font-family="Helvetica,sans-Serif" font-size="10.00">+</text>
<text text-anchor="start" x="17" y="-429" font-family="Helvetica,sans-Serif" font-size="10.00">ShaderProgram()</text>
<text text-anchor="start" x="4" y="-414" font-family="Helvetica,sans-Serif" font-size="10.00">+</text>
<text text-anchor="start" x="17" y="-414" font-family="Helvetica,sans-Serif" font-size="10.00">ShaderProgram()</text>
<text text-anchor="start" x="4" y="-399" font-family="Helvetica,sans-Serif" font-size="10.00">+</text>
<text text-anchor="start" x="17" y="-399" font-family="Helvetica,sans-Serif" font-size="10.00">~ShaderProgram()</text>
<text text-anchor="start" x="4" y="-384" font-family="Helvetica,sans-Serif" font-size="10.00">+</text>
<text text-anchor="start" x="17" y="-384" font-family="Helvetica,sans-Serif" font-size="10.00">use()</text>
<text text-anchor="start" x="4" y="-369" font-family="Helvetica,sans-Serif" font-size="10.00">+</text>
<text text-anchor="start" x="17" y="-369" font-family="Helvetica,sans-Serif" font-size="10.00">setInt()</text>
<text text-anchor="start" x="4" y="-354" font-family="Helvetica,sans-Serif" font-size="10.00">+</text>
<text text-anchor="start" x="17" y="-354" font-family="Helvetica,sans-Serif" font-size="10.00">setFloat()</text>
<text text-anchor="start" x="4" y="-339" font-family="Helvetica,sans-Serif" font-size="10.00">+</text>
<text text-anchor="start" x="17" y="-339" font-family="Helvetica,sans-Serif" font-size="10.00">setVec3()</text>
<text text-anchor="start" x="4" y="-324" font-family="Helvetica,sans-Serif" font-size="10.00">+</text>
<text text-anchor="start" x="17" y="-324" font-family="Helvetica,sans-Serif" font-size="10.00">setVec4()</text>
<text text-anchor="start" x="4" y="-309" font-family="Helvetica,sans-Serif" font-size="10.00">+</text>
<text text-anchor="start" x="17" y="-309" font-family="Helvetica,sans-Serif" font-size="10.00">setMat3()</text>
<text text-anchor="start" x="4" y="-294" font-family="Helvetica,sans-Serif" font-size="10.00">+</text>
<text text-anchor="start" x="17" y="-294" font-family="Helvetica,sans-Serif" font-size="10.00">setMat4()</text>
<text text-anchor="start" x="4" y="-279" font-family="Helvetica,sans-Serif" font-size="10.00">+</text>
<text text-anchor="start" x="17" y="-279" font-family="Helvetica,sans-Serif" font-size="10.00">setMVPMatrices()</text>
<polygon fill="#666666" stroke="#666666" points="0,-469 0,-469 112,-469 112,-469 0,-469"/>
<polygon fill="#666666" stroke="#666666" points="0,-454 0,-454 15,-454 15,-454 0,-454"/>
<polygon fill="#666666" stroke="#666666" points="15,-454 15,-454 112,-454 112,-454 15,-454"/>
<polygon fill="none" stroke="#666666" points="0,-272 0,-486 112,-486 112,-272 0,-272"/>
</a>
</g>
</g>
<!-- Node3&#45;&gt;Node2 -->
<g id="edge2_Node000002_Node000003" class="edge">
<title>Node3&#45;&gt;Node2</title>
<g id="a_edge2_Node000002_Node000003"><a xlink:title=" ">
<path fill="none" stroke="#63b8ff" d="M56,-271.89C56,-259.86 56,-248.04 56,-237.23"/>
<polygon fill="none" stroke="#63b8ff" points="56,-237.03 52,-231.03 56,-225.03 60,-231.03 56,-237.03"/>
</a>
</g>
<text text-anchor="middle" x="82.5" y="-246" font-family="Helvetica,sans-Serif" font-size="10.00" fill="grey"> #program</text>
</g>
</g>
</svg>
