<?xml version="1.0" encoding="UTF-8" standalone="no"?>
<!DOCTYPE svg PUBLIC "-//W3C//DTD SVG 1.1//EN"
 "http://www.w3.org/Graphics/SVG/1.1/DTD/svg11.dtd">
<!-- Generated by graphviz version 2.43.0 (0)
 -->
<!-- Title: Metric&lt; PT, PD &gt; Pages: 1 -->
<svg width="304pt" height="654pt"
 viewBox="0.00 0.00 303.50 654.00" xmlns="http://www.w3.org/2000/svg" xmlns:xlink="http://www.w3.org/1999/xlink">
<g id="graph0" class="graph" transform="scale(1 1) rotate(0) translate(4 650)">
<title>Metric&lt; PT, PD &gt;</title>
<!-- Node1 -->
<g id="Node000001" class="node">
<title>Node1</title>
<g id="a_Node000001"><a xlink:title="Abstract class representing a generic metric for calculating distances.">
<polygon fill="#999999" stroke="transparent" points="185.5,-646 85.5,-646 85.5,-402 185.5,-402 185.5,-646"/>
<text text-anchor="start" x="93" y="-634" font-family="Helvetica,sans-Serif" font-size="10.00">Metric&lt; PT, PD &gt;</text>
<text text-anchor="start" x="89.5" y="-619" font-family="Helvetica,sans-Serif" font-size="10.00">#</text>
<text text-anchor="start" x="102.5" y="-619" font-family="Helvetica,sans-Serif" font-size="10.00">threshold</text>
<text text-anchor="start" x="89.5" y="-604" font-family="Helvetica,sans-Serif" font-size="10.00">#</text>
<text text-anchor="start" x="102.5" y="-604" font-family="Helvetica,sans-Serif" font-size="10.00">oldCentroids</text>
<text text-anchor="start" x="89.5" y="-589" font-family="Helvetica,sans-Serif" font-size="10.00">#</text>
<text text-anchor="start" x="102.5" y="-589" font-family="Helvetica,sans-Serif" font-size="10.00">centroids</text>
<text text-anchor="start" x="89.5" y="-574" font-family="Helvetica,sans-Serif" font-size="10.00">#</text>
<text text-anchor="start" x="102.5" y="-574" font-family="Helvetica,sans-Serif" font-size="10.00">data</text>
<text text-anchor="start" x="89.5" y="-559" font-family="Helvetica,sans-Serif" font-size="10.00">+</text>
<text text-anchor="start" x="102.5" y="-559" font-family="Helvetica,sans-Serif" font-size="10.00">Metric()</text>
<text text-anchor="start" x="89.5" y="-544" font-family="Helvetica,sans-Serif" font-size="10.00">+</text>
<text text-anchor="start" x="102.5" y="-544" font-family="Helvetica,sans-Serif" font-size="10.00">Metric()</text>
<text text-anchor="start" x="89.5" y="-529" font-family="Helvetica,sans-Serif" font-size="10.00">+</text>
<text text-anchor="start" x="102.5" y="-529" font-family="Helvetica,sans-Serif" font-size="10.00">Metric()</text>
<text text-anchor="start" x="89.5" y="-514" font-family="Helvetica,sans-Serif" font-size="10.00">+</text>
<text text-anchor="start" x="102.5" y="-514" font-family="Helvetica,sans-Serif" font-size="10.00">~Metric()</text>
<text text-anchor="start" x="89.5" y="-499" font-family="Helvetica,sans-Serif" font-size="10.00">+</text>
<text text-anchor="start" x="102.5" y="-499" font-family="Helvetica,sans-Serif" font-size="10.00">setup()</text>
<text text-anchor="start" x="89.5" y="-484" font-family="Helvetica,sans-Serif" font-size="10.00">+</text>
<text text-anchor="start" x="102.5" y="-484" font-family="Helvetica,sans-Serif" font-size="10.00">setCentroids()</text>
<text text-anchor="start" x="89.5" y="-469" font-family="Helvetica,sans-Serif" font-size="10.00">+</text>
<text text-anchor="start" x="102.5" y="-469" font-family="Helvetica,sans-Serif" font-size="10.00">fit_cpu()</text>
<text text-anchor="start" x="89.5" y="-454" font-family="Helvetica,sans-Serif" font-size="10.00">+</text>
<text text-anchor="start" x="102.5" y="-454" font-family="Helvetica,sans-Serif" font-size="10.00">setPoints()</text>
<text text-anchor="start" x="89.5" y="-439" font-family="Helvetica,sans-Serif" font-size="10.00">+</text>
<text text-anchor="start" x="102.5" y="-439" font-family="Helvetica,sans-Serif" font-size="10.00">getPoints()</text>
<text text-anchor="start" x="89.5" y="-424" font-family="Helvetica,sans-Serif" font-size="10.00">+</text>
<text text-anchor="start" x="102.5" y="-424" font-family="Helvetica,sans-Serif" font-size="10.00">resetCentroids()</text>
<text text-anchor="start" x="89.5" y="-409" font-family="Helvetica,sans-Serif" font-size="10.00">#</text>
<text text-anchor="start" x="102.5" y="-409" font-family="Helvetica,sans-Serif" font-size="10.00">storeCentroids()</text>
<polygon fill="#666666" stroke="#666666" points="85.5,-629 85.5,-629 185.5,-629 185.5,-629 85.5,-629"/>
<polygon fill="#666666" stroke="#666666" points="85.5,-569 85.5,-569 100.5,-569 100.5,-569 85.5,-569"/>
<polygon fill="#666666" stroke="#666666" points="100.5,-569 100.5,-569 185.5,-569 185.5,-569 100.5,-569"/>
<polygon fill="none" stroke="#666666" points="85.5,-402 85.5,-646 185.5,-646 185.5,-402 85.5,-402"/>
</a>
</g>
</g>
<!-- Node2 -->
<g id="Node000002" class="node">
<title>Node2</title>
<g id="a_Node000002"><a xlink:href="classEuclideanMetric.html" target="_top" xlink:title="A class that calculates Euclidean distance for clustering and metric purposes.">
<polygon fill="white" stroke="transparent" points="115,-313.5 0,-313.5 0,-163.5 115,-163.5 115,-313.5"/>
<text text-anchor="start" x="5.5" y="-301.5" font-family="Helvetica,sans-Serif" font-size="10.00">EuclideanMetric&lt; PT,</text>
<text text-anchor="start" x="44" y="-290.5" font-family="Helvetica,sans-Serif" font-size="10.00"> PD &gt;</text>
<text text-anchor="start" x="56" y="-275.5" font-family="Helvetica,sans-Serif" font-size="10.00"> </text>
<text text-anchor="start" x="6.5" y="-260.5" font-family="Helvetica,sans-Serif" font-size="10.00">+</text>
<text text-anchor="start" x="21.5" y="-260.5" font-family="Helvetica,sans-Serif" font-size="10.00">EuclideanMetric()</text>
<text text-anchor="start" x="6.5" y="-245.5" font-family="Helvetica,sans-Serif" font-size="10.00">+</text>
<text text-anchor="start" x="21.5" y="-245.5" font-family="Helvetica,sans-Serif" font-size="10.00">EuclideanMetric()</text>
<text text-anchor="start" x="6.5" y="-230.5" font-family="Helvetica,sans-Serif" font-size="10.00">+</text>
<text text-anchor="start" x="21.5" y="-230.5" font-family="Helvetica,sans-Serif" font-size="10.00">EuclideanMetric()</text>
<text text-anchor="start" x="6.5" y="-215.5" font-family="Helvetica,sans-Serif" font-size="10.00">+</text>
<text text-anchor="start" x="21.5" y="-215.5" font-family="Helvetica,sans-Serif" font-size="10.00">setup()</text>
<text text-anchor="start" x="6.5" y="-200.5" font-family="Helvetica,sans-Serif" font-size="10.00">+</text>
<text text-anchor="start" x="21.5" y="-200.5" font-family="Helvetica,sans-Serif" font-size="10.00">fit_cpu()</text>
<text text-anchor="start" x="6.5" y="-185.5" font-family="Helvetica,sans-Serif" font-size="10.00">+</text>
<text text-anchor="start" x="21.5" y="-185.5" font-family="Helvetica,sans-Serif" font-size="10.00">getPoints()</text>
<text text-anchor="start" x="6.5" y="-170.5" font-family="Helvetica,sans-Serif" font-size="10.00">+</text>
<text text-anchor="start" x="21.5" y="-170.5" font-family="Helvetica,sans-Serif" font-size="10.00">distanceTo()</text>
<polygon fill="#666666" stroke="#666666" points="0.5,-285.5 0.5,-285.5 115.5,-285.5 115.5,-285.5 0.5,-285.5"/>
<polygon fill="#666666" stroke="#666666" points="0.5,-270.5 0.5,-270.5 115.5,-270.5 115.5,-270.5 0.5,-270.5"/>
<polygon fill="none" stroke="#666666" points="0,-163.5 0,-313.5 115,-313.5 115,-163.5 0,-163.5"/>
</a>
</g>
</g>
<!-- Node1&#45;&gt;Node2 -->
<g id="edge1_Node000001_Node000002" class="edge">
<title>Node1&#45;&gt;Node2</title>
<g id="a_edge1_Node000001_Node000002"><a xlink:title=" ">
<path fill="none" stroke="#63b8ff" d="M99.48,-392.08C92.09,-365.22 84.56,-337.84 77.95,-313.83"/>
<polygon fill="none" stroke="#63b8ff" points="96.17,-393.23 102.19,-401.95 102.92,-391.38 96.17,-393.23"/>
</a>
</g>
</g>
<!-- Node3 -->
<g id="Node000003" class="node">
<title>Node3</title>
<g id="a_Node000003"><a xlink:href="classGeodesicDijkstraMetric.html" target="_top" xlink:title="A class for computing geodesic distances on a mesh with Dijkstra&#39;s algorithm.">
<polygon fill="white" stroke="transparent" points="295.5,-366 133.5,-366 133.5,-111 295.5,-111 295.5,-366"/>
<text text-anchor="start" x="157" y="-353.5" font-family="Helvetica,sans-Serif" font-size="10.00">GeodesicDijkstraMetric</text>
<text text-anchor="start" x="187" y="-342.5" font-family="Helvetica,sans-Serif" font-size="10.00">&lt; PT, PD &gt;</text>
<text text-anchor="start" x="137.5" y="-327.5" font-family="Helvetica,sans-Serif" font-size="10.00">#</text>
<text text-anchor="start" x="150.5" y="-327.5" font-family="Helvetica,sans-Serif" font-size="10.00">mesh</text>
<text text-anchor="start" x="137.5" y="-312.5" font-family="Helvetica,sans-Serif" font-size="10.00">#</text>
<text text-anchor="start" x="150.5" y="-312.5" font-family="Helvetica,sans-Serif" font-size="10.00">distances</text>
<text text-anchor="start" x="137.5" y="-297.5" font-family="Helvetica,sans-Serif" font-size="10.00">#</text>
<text text-anchor="start" x="150.5" y="-297.5" font-family="Helvetica,sans-Serif" font-size="10.00">oldPoints</text>
<text text-anchor="start" x="137.5" y="-282.5" font-family="Helvetica,sans-Serif" font-size="10.00">#</text>
<text text-anchor="start" x="150.5" y="-282.5" font-family="Helvetica,sans-Serif" font-size="10.00">avgDistances</text>
<text text-anchor="start" x="137.5" y="-267.5" font-family="Helvetica,sans-Serif" font-size="10.00">+</text>
<text text-anchor="start" x="150.5" y="-267.5" font-family="Helvetica,sans-Serif" font-size="10.00">GeodesicDijkstraMetric()</text>
<text text-anchor="start" x="137.5" y="-252.5" font-family="Helvetica,sans-Serif" font-size="10.00">+</text>
<text text-anchor="start" x="150.5" y="-252.5" font-family="Helvetica,sans-Serif" font-size="10.00">setup()</text>
<text text-anchor="start" x="137.5" y="-237.5" font-family="Helvetica,sans-Serif" font-size="10.00">+</text>
<text text-anchor="start" x="150.5" y="-237.5" font-family="Helvetica,sans-Serif" font-size="10.00">fit_cpu()</text>
<text text-anchor="start" x="137.5" y="-222.5" font-family="Helvetica,sans-Serif" font-size="10.00">+</text>
<text text-anchor="start" x="150.5" y="-222.5" font-family="Helvetica,sans-Serif" font-size="10.00">findClosestFace()</text>
<text text-anchor="start" x="137.5" y="-207.5" font-family="Helvetica,sans-Serif" font-size="10.00">+</text>
<text text-anchor="start" x="150.5" y="-207.5" font-family="Helvetica,sans-Serif" font-size="10.00">getPoints()</text>
<text text-anchor="start" x="137.5" y="-192.5" font-family="Helvetica,sans-Serif" font-size="10.00">#</text>
<text text-anchor="start" x="150.5" y="-192.5" font-family="Helvetica,sans-Serif" font-size="10.00">computeEuclideanDistance()</text>
<text text-anchor="start" x="137.5" y="-177.5" font-family="Helvetica,sans-Serif" font-size="10.00">#</text>
<text text-anchor="start" x="150.5" y="-177.5" font-family="Helvetica,sans-Serif" font-size="10.00">computeDistances()</text>
<text text-anchor="start" x="137.5" y="-162.5" font-family="Helvetica,sans-Serif" font-size="10.00">#</text>
<text text-anchor="start" x="150.5" y="-162.5" font-family="Helvetica,sans-Serif" font-size="10.00">storeCentroids()</text>
<text text-anchor="start" x="137.5" y="-147.5" font-family="Helvetica,sans-Serif" font-size="10.00">#</text>
<text text-anchor="start" x="150.5" y="-147.5" font-family="Helvetica,sans-Serif" font-size="10.00">dihedralAngle()</text>
<text text-anchor="start" x="137.5" y="-132.5" font-family="Helvetica,sans-Serif" font-size="10.00">#</text>
<text text-anchor="start" x="150.5" y="-132.5" font-family="Helvetica,sans-Serif" font-size="10.00">setupAvg()</text>
<text text-anchor="start" x="137.5" y="-117.5" font-family="Helvetica,sans-Serif" font-size="10.00">#</text>
<text text-anchor="start" x="150.5" y="-117.5" font-family="Helvetica,sans-Serif" font-size="10.00">checkConvergence()</text>
<polygon fill="#666666" stroke="#666666" points="133.5,-337.5 133.5,-337.5 295.5,-337.5 295.5,-337.5 133.5,-337.5"/>
<polygon fill="#666666" stroke="#666666" points="133.5,-277.5 133.5,-277.5 148.5,-277.5 148.5,-277.5 133.5,-277.5"/>
<polygon fill="#666666" stroke="#666666" points="148.5,-277.5 148.5,-277.5 295.5,-277.5 295.5,-277.5 148.5,-277.5"/>
<polygon fill="none" stroke="#666666" points="133.5,-111 133.5,-366 295.5,-366 295.5,-111 133.5,-111"/>
</a>
</g>
</g>
<!-- Node1&#45;&gt;Node3 -->
<g id="edge2_Node000001_Node000003" class="edge">
<title>Node1&#45;&gt;Node3</title>
<g id="a_edge2_Node000001_Node000003"><a xlink:title=" ">
<path fill="none" stroke="#63b8ff" d="M171.96,-392.16C174.38,-383.46 176.82,-374.71 179.24,-366.03"/>
<polygon fill="none" stroke="#63b8ff" points="168.55,-391.38 169.23,-401.95 175.29,-393.25 168.55,-391.38"/>
</a>
</g>
</g>
<!-- Node4 -->
<g id="Node000004" class="node">
<title>Node4</title>
<g id="a_Node000004"><a xlink:href="classGeodesicHeatMetric.html" target="_top" xlink:title="A class for computing geodesic distances using heat diffusion&#45;based method.">
<polygon fill="white" stroke="transparent" points="278.5,-75 150.5,-75 150.5,0 278.5,0 278.5,-75"/>
<text text-anchor="start" x="164.5" y="-62.5" font-family="Helvetica,sans-Serif" font-size="10.00">GeodesicHeatMetric</text>
<text text-anchor="start" x="187" y="-51.5" font-family="Helvetica,sans-Serif" font-size="10.00">&lt; PT, PD &gt;</text>
<text text-anchor="start" x="154.5" y="-36.5" font-family="Helvetica,sans-Serif" font-size="10.00">#</text>
<text text-anchor="start" x="167.5" y="-36.5" font-family="Helvetica,sans-Serif" font-size="10.00">data_heat</text>
<text text-anchor="start" x="154.5" y="-21.5" font-family="Helvetica,sans-Serif" font-size="10.00">+</text>
<text text-anchor="start" x="167.5" y="-21.5" font-family="Helvetica,sans-Serif" font-size="10.00">GeodesicHeatMetric()</text>
<text text-anchor="start" x="154.5" y="-6.5" font-family="Helvetica,sans-Serif" font-size="10.00">+</text>
<text text-anchor="start" x="167.5" y="-6.5" font-family="Helvetica,sans-Serif" font-size="10.00">computeDistances()</text>
<polygon fill="#666666" stroke="#666666" points="150.5,-46.5 150.5,-46.5 278.5,-46.5 278.5,-46.5 150.5,-46.5"/>
<polygon fill="#666666" stroke="#666666" points="150.5,-31.5 150.5,-31.5 165.5,-31.5 165.5,-31.5 150.5,-31.5"/>
<polygon fill="#666666" stroke="#666666" points="165.5,-31.5 165.5,-31.5 278.5,-31.5 278.5,-31.5 165.5,-31.5"/>
<polygon fill="none" stroke="#666666" points="150.5,0 150.5,-75 278.5,-75 278.5,0 150.5,0"/>
</a>
</g>
</g>
<!-- Node3&#45;&gt;Node4 -->
<g id="edge3_Node000003_Node000004" class="edge">
<title>Node3&#45;&gt;Node4</title>
<g id="a_edge3_Node000003_Node000004"><a xlink:title=" ">
<path fill="none" stroke="#63b8ff" d="M214.5,-100.8C214.5,-91.65 214.5,-82.99 214.5,-75.2"/>
<polygon fill="none" stroke="#63b8ff" points="211,-100.91 214.5,-110.91 218,-100.91 211,-100.91"/>
</a>
</g>
</g>
</g>
</svg>
