<?xml version="1.0" encoding="UTF-8" standalone="no"?>
<!DOCTYPE svg PUBLIC "-//W3C//DTD SVG 1.1//EN"
 "http://www.w3.org/Graphics/SVG/1.1/DTD/svg11.dtd">
<!-- Generated by graphviz version 2.43.0 (0)
 -->
<!-- Title: CentroidPoint&lt; PT, PD &gt; Pages: 1 -->
<svg width="254pt" height="457pt"
 viewBox="0.00 0.00 254.00 457.00" xmlns="http://www.w3.org/2000/svg" xmlns:xlink="http://www.w3.org/1999/xlink">
<g id="graph0" class="graph" transform="scale(1 1) rotate(0) translate(4 453)">
<title>CentroidPoint&lt; PT, PD &gt;</title>
<!-- Node1 -->
<g id="Node000001" class="node">
<title>Node1</title>
<g id="a_Node000001"><a xlink:title=" ">
<polygon fill="#999999" stroke="transparent" points="183,-169 52,-169 52,0 183,0 183,-169"/>
<text text-anchor="start" x="57.5" y="-156.5" font-family="Helvetica,sans-Serif" font-size="10.00">CentroidPoint&lt; PT, PD &gt;</text>
<text text-anchor="start" x="116" y="-141.5" font-family="Helvetica,sans-Serif" font-size="10.00"> </text>
<text text-anchor="start" x="63.5" y="-126.5" font-family="Helvetica,sans-Serif" font-size="10.00">+</text>
<text text-anchor="start" x="83.5" y="-126.5" font-family="Helvetica,sans-Serif" font-size="10.00">CentroidPoint()</text>
<text text-anchor="start" x="63.5" y="-111.5" font-family="Helvetica,sans-Serif" font-size="10.00">+</text>
<text text-anchor="start" x="83.5" y="-111.5" font-family="Helvetica,sans-Serif" font-size="10.00">CentroidPoint()</text>
<text text-anchor="start" x="63.5" y="-96.5" font-family="Helvetica,sans-Serif" font-size="10.00">+</text>
<text text-anchor="start" x="83.5" y="-96.5" font-family="Helvetica,sans-Serif" font-size="10.00">operator+()</text>
<text text-anchor="start" x="63.5" y="-81.5" font-family="Helvetica,sans-Serif" font-size="10.00">+</text>
<text text-anchor="start" x="83.5" y="-81.5" font-family="Helvetica,sans-Serif" font-size="10.00">normalize()</text>
<text text-anchor="start" x="63.5" y="-66.5" font-family="Helvetica,sans-Serif" font-size="10.00">+</text>
<text text-anchor="start" x="83.5" y="-66.5" font-family="Helvetica,sans-Serif" font-size="10.00">operator==()</text>
<text text-anchor="start" x="63.5" y="-51.5" font-family="Helvetica,sans-Serif" font-size="10.00">+</text>
<text text-anchor="start" x="83.5" y="-51.5" font-family="Helvetica,sans-Serif" font-size="10.00">operator==()</text>
<text text-anchor="start" x="63.5" y="-36.5" font-family="Helvetica,sans-Serif" font-size="10.00">+</text>
<text text-anchor="start" x="83.5" y="-36.5" font-family="Helvetica,sans-Serif" font-size="10.00">operator!=()</text>
<text text-anchor="start" x="63.5" y="-21.5" font-family="Helvetica,sans-Serif" font-size="10.00">+</text>
<text text-anchor="start" x="83.5" y="-21.5" font-family="Helvetica,sans-Serif" font-size="10.00">operator!=()</text>
<text text-anchor="start" x="63.5" y="-6.5" font-family="Helvetica,sans-Serif" font-size="10.00">+</text>
<text text-anchor="start" x="83.5" y="-6.5" font-family="Helvetica,sans-Serif" font-size="10.00">~CentroidPoint()</text>
<polygon fill="#666666" stroke="#666666" points="52.5,-151.5 52.5,-151.5 183.5,-151.5 183.5,-151.5 52.5,-151.5"/>
<polygon fill="#666666" stroke="#666666" points="52.5,-136.5 52.5,-136.5 183.5,-136.5 183.5,-136.5 52.5,-136.5"/>
<polygon fill="none" stroke="#666666" points="52,0 52,-169 183,-169 183,0 52,0"/>
</a>
</g>
</g>
<!-- Node2 -->
<g id="Node000002" class="node">
<title>Node2</title>
<g id="a_Node000002"><a xlink:href="classPoint.html" target="_top" xlink:title=" ">
<polygon fill="white" stroke="transparent" points="103,-449 0,-449 0,-205 103,-205 103,-449"/>
<text text-anchor="start" x="12.5" y="-437" font-family="Helvetica,sans-Serif" font-size="10.00">Point&lt; PT, PD &gt;</text>
<text text-anchor="start" x="4.5" y="-422" font-family="Helvetica,sans-Serif" font-size="10.00">+</text>
<text text-anchor="start" x="17.5" y="-422" font-family="Helvetica,sans-Serif" font-size="10.00">coordinates</text>
<text text-anchor="start" x="4.5" y="-407" font-family="Helvetica,sans-Serif" font-size="10.00">+</text>
<text text-anchor="start" x="17.5" y="-407" font-family="Helvetica,sans-Serif" font-size="10.00">id</text>
<text text-anchor="start" x="4.5" y="-392" font-family="Helvetica,sans-Serif" font-size="10.00">+</text>
<text text-anchor="start" x="17.5" y="-392" font-family="Helvetica,sans-Serif" font-size="10.00">centroid</text>
<text text-anchor="start" x="4.5" y="-377" font-family="Helvetica,sans-Serif" font-size="10.00">+</text>
<text text-anchor="start" x="17.5" y="-377" font-family="Helvetica,sans-Serif" font-size="10.00">Point()</text>
<text text-anchor="start" x="4.5" y="-362" font-family="Helvetica,sans-Serif" font-size="10.00">+</text>
<text text-anchor="start" x="17.5" y="-362" font-family="Helvetica,sans-Serif" font-size="10.00">Point()</text>
<text text-anchor="start" x="4.5" y="-347" font-family="Helvetica,sans-Serif" font-size="10.00">+</text>
<text text-anchor="start" x="17.5" y="-347" font-family="Helvetica,sans-Serif" font-size="10.00">Point()</text>
<text text-anchor="start" x="4.5" y="-332" font-family="Helvetica,sans-Serif" font-size="10.00">+</text>
<text text-anchor="start" x="17.5" y="-332" font-family="Helvetica,sans-Serif" font-size="10.00">getDimensions()</text>
<text text-anchor="start" x="4.5" y="-317" font-family="Helvetica,sans-Serif" font-size="10.00">+</text>
<text text-anchor="start" x="17.5" y="-317" font-family="Helvetica,sans-Serif" font-size="10.00">getValues()</text>
<text text-anchor="start" x="4.5" y="-302" font-family="Helvetica,sans-Serif" font-size="10.00">+</text>
<text text-anchor="start" x="17.5" y="-302" font-family="Helvetica,sans-Serif" font-size="10.00">setValue()</text>
<text text-anchor="start" x="4.5" y="-287" font-family="Helvetica,sans-Serif" font-size="10.00">+</text>
<text text-anchor="start" x="17.5" y="-287" font-family="Helvetica,sans-Serif" font-size="10.00">setCentroid()</text>
<text text-anchor="start" x="4.5" y="-272" font-family="Helvetica,sans-Serif" font-size="10.00">+</text>
<text text-anchor="start" x="17.5" y="-272" font-family="Helvetica,sans-Serif" font-size="10.00">setID()</text>
<text text-anchor="start" x="4.5" y="-257" font-family="Helvetica,sans-Serif" font-size="10.00">+</text>
<text text-anchor="start" x="17.5" y="-257" font-family="Helvetica,sans-Serif" font-size="10.00">operator==()</text>
<text text-anchor="start" x="4.5" y="-242" font-family="Helvetica,sans-Serif" font-size="10.00">+</text>
<text text-anchor="start" x="17.5" y="-242" font-family="Helvetica,sans-Serif" font-size="10.00">operator+()</text>
<text text-anchor="start" x="17.5" y="-227" font-family="Helvetica,sans-Serif" font-size="10.00">and 8 more...</text>
<text text-anchor="start" x="4.5" y="-212" font-family="Helvetica,sans-Serif" font-size="10.00">+</text>
<text text-anchor="start" x="17.5" y="-212" font-family="Helvetica,sans-Serif" font-size="10.00">vectorSum()</text>
<polygon fill="#bfbfbf" stroke="#bfbfbf" points="0.5,-432 0.5,-432 103.5,-432 103.5,-432 0.5,-432"/>
<polygon fill="#bfbfbf" stroke="#bfbfbf" points="0.5,-387 0.5,-387 15.5,-387 15.5,-387 0.5,-387"/>
<polygon fill="#bfbfbf" stroke="#bfbfbf" points="15.5,-387 15.5,-387 103.5,-387 103.5,-387 15.5,-387"/>
<polygon fill="none" stroke="#bfbfbf" points="0,-205 0,-449 103,-449 103,-205 0,-205"/>
</a>
</g>
</g>
<!-- Node2&#45;&gt;Node1 -->
<g id="edge1_Node000001_Node000002" class="edge">
<title>Node2&#45;&gt;Node1</title>
<g id="a_edge1_Node000001_Node000002"><a xlink:title=" ">
<path fill="none" stroke="#63b8ff" d="M87.49,-194.84C89.88,-186.14 92.25,-177.51 94.55,-169.14"/>
<polygon fill="none" stroke="#63b8ff" points="84.06,-194.12 84.79,-204.69 90.81,-195.98 84.06,-194.12"/>
</a>
</g>
</g>
<!-- Node3 -->
<g id="Node000003" class="node">
<title>Node3</title>
<g id="a_Node000003"><a xlink:href="classHasWgtCent.html" target="_top" xlink:title=" ">
<polygon fill="white" stroke="transparent" points="246,-374 121,-374 121,-280 246,-280 246,-374"/>
<text text-anchor="start" x="126.5" y="-362" font-family="Helvetica,sans-Serif" font-size="10.00">HasWgtCent&lt; PT, PD &gt;</text>
<text text-anchor="start" x="132" y="-347" font-family="Helvetica,sans-Serif" font-size="10.00">+</text>
<text text-anchor="start" x="151.5" y="-347" font-family="Helvetica,sans-Serif" font-size="10.00">wgtCent</text>
<text text-anchor="start" x="132" y="-332" font-family="Helvetica,sans-Serif" font-size="10.00">+</text>
<text text-anchor="start" x="151.5" y="-332" font-family="Helvetica,sans-Serif" font-size="10.00">count</text>
<text text-anchor="start" x="132" y="-317" font-family="Helvetica,sans-Serif" font-size="10.00">+</text>
<text text-anchor="start" x="151.5" y="-317" font-family="Helvetica,sans-Serif" font-size="10.00">HasWgtCent()</text>
<text text-anchor="start" x="132" y="-302" font-family="Helvetica,sans-Serif" font-size="10.00">+</text>
<text text-anchor="start" x="151.5" y="-302" font-family="Helvetica,sans-Serif" font-size="10.00">resetCount()</text>
<text text-anchor="start" x="132" y="-287" font-family="Helvetica,sans-Serif" font-size="10.00">+</text>
<text text-anchor="start" x="151.5" y="-287" font-family="Helvetica,sans-Serif" font-size="10.00">~HasWgtCent()</text>
<polygon fill="#bfbfbf" stroke="#bfbfbf" points="121.5,-357 121.5,-357 246.5,-357 246.5,-357 121.5,-357"/>
<polygon fill="#bfbfbf" stroke="#bfbfbf" points="121.5,-327 121.5,-327 149.5,-327 149.5,-327 121.5,-327"/>
<polygon fill="#bfbfbf" stroke="#bfbfbf" points="149.5,-327 149.5,-327 246.5,-327 246.5,-327 149.5,-327"/>
<polygon fill="none" stroke="#bfbfbf" points="121,-280 121,-374 246,-374 246,-280 121,-280"/>
</a>
</g>
</g>
<!-- Node3&#45;&gt;Node1 -->
<g id="edge2_Node000001_Node000003" class="edge">
<title>Node3&#45;&gt;Node1</title>
<g id="a_edge2_Node000001_Node000003"><a xlink:title=" ">
<path fill="none" stroke="#63b8ff" d="M168.15,-270.08C159.94,-240.16 149.67,-202.73 140.52,-169.4"/>
<polygon fill="none" stroke="#63b8ff" points="164.83,-271.2 170.85,-279.91 171.58,-269.34 164.83,-271.2"/>
</a>
</g>
</g>
</g>
</svg>
