<?xml version="1.0" encoding="UTF-8" standalone="no"?>
<!DOCTYPE svg PUBLIC "-//W3C//DTD SVG 1.1//EN"
 "http://www.w3.org/Graphics/SVG/1.1/DTD/svg11.dtd">
<!-- Generated by graphviz version 2.43.0 (0)
 -->
<!-- Title: SilhouetteMethod&lt; PT, PD, M &gt; Pages: 1 -->
<svg width="131pt" height="198pt"
 viewBox="0.00 0.00 131.00 198.00" xmlns="http://www.w3.org/2000/svg" xmlns:xlink="http://www.w3.org/1999/xlink">
<g id="graph0" class="graph" transform="scale(1 1) rotate(0) translate(4 194)">
<title>SilhouetteMethod&lt; PT, PD, M &gt;</title>
<!-- Node1 -->
<g id="Node000001" class="node">
<title>Node1</title>
<g id="a_Node000001"><a xlink:title="Implements the Silhouette Method to determine the optimal number of clusters.">
<polygon fill="#999999" stroke="transparent" points="123,-75 0,-75 0,0 123,0 123,-75"/>
<text text-anchor="start" x="5.5" y="-62.5" font-family="Helvetica,sans-Serif" font-size="10.00">SilhouetteMethod&lt; PT,</text>
<text text-anchor="start" x="40.5" y="-51.5" font-family="Helvetica,sans-Serif" font-size="10.00"> PD, M &gt;</text>
<text text-anchor="start" x="60" y="-36.5" font-family="Helvetica,sans-Serif" font-size="10.00"> </text>
<text text-anchor="start" x="6.5" y="-21.5" font-family="Helvetica,sans-Serif" font-size="10.00">+</text>
<text text-anchor="start" x="21.5" y="-21.5" font-family="Helvetica,sans-Serif" font-size="10.00">SilhouetteMethod()</text>
<text text-anchor="start" x="6.5" y="-6.5" font-family="Helvetica,sans-Serif" font-size="10.00">+</text>
<text text-anchor="start" x="21.5" y="-6.5" font-family="Helvetica,sans-Serif" font-size="10.00">findK()</text>
<polygon fill="#666666" stroke="#666666" points="0.5,-46.5 0.5,-46.5 123.5,-46.5 123.5,-46.5 0.5,-46.5"/>
<polygon fill="#666666" stroke="#666666" points="0.5,-31.5 0.5,-31.5 123.5,-31.5 123.5,-31.5 0.5,-31.5"/>
<polygon fill="none" stroke="#666666" points="0,0 0,-75 123,-75 123,0 0,0"/>
</a>
</g>
</g>
<!-- Node2 -->
<g id="Node000002" class="node">
<title>Node2</title>
<g id="a_Node000002"><a xlink:href="classKinit.html" target="_top" xlink:title="Abstract base class for determining the optimal number of clusters (k).">
<polygon fill="white" stroke="transparent" points="112.5,-190 10.5,-190 10.5,-111 112.5,-111 112.5,-190"/>
<text text-anchor="start" x="15.5" y="-177.5" font-family="Helvetica,sans-Serif" font-size="10.00">Kinit&lt; PT, PD, M &gt;</text>
<text text-anchor="start" x="21" y="-162.5" font-family="Helvetica,sans-Serif" font-size="10.00">#</text>
<text text-anchor="start" x="40.5" y="-162.5" font-family="Helvetica,sans-Serif" font-size="10.00">m_kMeans</text>
<text text-anchor="start" x="21" y="-147.5" font-family="Helvetica,sans-Serif" font-size="10.00">+</text>
<text text-anchor="start" x="40.5" y="-147.5" font-family="Helvetica,sans-Serif" font-size="10.00">Kinit()</text>
<text text-anchor="start" x="21" y="-132.5" font-family="Helvetica,sans-Serif" font-size="10.00">+</text>
<text text-anchor="start" x="40.5" y="-132.5" font-family="Helvetica,sans-Serif" font-size="10.00">~Kinit()</text>
<text text-anchor="start" x="21" y="-117.5" font-family="Helvetica,sans-Serif" font-size="10.00">+</text>
<text text-anchor="start" x="40.5" y="-117.5" font-family="Helvetica,sans-Serif" font-size="10.00">findK()</text>
<polygon fill="#666666" stroke="#666666" points="10.5,-172.5 10.5,-172.5 112.5,-172.5 112.5,-172.5 10.5,-172.5"/>
<polygon fill="#666666" stroke="#666666" points="10.5,-157.5 10.5,-157.5 38.5,-157.5 38.5,-157.5 10.5,-157.5"/>
<polygon fill="#666666" stroke="#666666" points="38.5,-157.5 38.5,-157.5 112.5,-157.5 112.5,-157.5 38.5,-157.5"/>
<polygon fill="none" stroke="#666666" points="10.5,-111 10.5,-190 112.5,-190 112.5,-111 10.5,-111"/>
</a>
</g>
</g>
<!-- Node2&#45;&gt;Node1 -->
<g id="edge1_Node000001_Node000002" class="edge">
<title>Node2&#45;&gt;Node1</title>
<g id="a_edge1_Node000001_Node000002"><a xlink:title=" ">
<path fill="none" stroke="#63b8ff" d="M61.5,-100.95C61.5,-92.27 61.5,-83.35 61.5,-75.08"/>
<polygon fill="none" stroke="#63b8ff" points="58,-100.99 61.5,-110.99 65,-100.99 58,-100.99"/>
</a>
</g>
</g>
</g>
</svg>
