<?xml version="1.0" encoding="UTF-8" standalone="no"?>
<!DOCTYPE svg PUBLIC "-//W3C//DTD SVG 1.1//EN"
 "http://www.w3.org/Graphics/SVG/1.1/DTD/svg11.dtd">
<!-- Generated by graphviz version 2.43.0 (0)
 -->
<!-- Title: HasWgtCent&lt; PT, PD &gt; Pages: 1 -->
<svg width="139pt" height="307pt"
 viewBox="0.00 0.00 139.00 307.00" xmlns="http://www.w3.org/2000/svg" xmlns:xlink="http://www.w3.org/1999/xlink">
<g id="graph0" class="graph" transform="scale(1 1) rotate(0) translate(4 303)">
<title>HasWgtCent&lt; PT, PD &gt;</title>
<!-- Node1 -->
<g id="Node000001" class="node">
<title>Node1</title>
<g id="a_Node000001"><a xlink:title="Represents an object with an array of weights and a counter.">
<polygon fill="#999999" stroke="transparent" points="128,-299 3,-299 3,-205 128,-205 128,-299"/>
<text text-anchor="start" x="8.5" y="-287" font-family="Helvetica,sans-Serif" font-size="10.00">HasWgtCent&lt; PT, PD &gt;</text>
<text text-anchor="start" x="14" y="-272" font-family="Helvetica,sans-Serif" font-size="10.00">+</text>
<text text-anchor="start" x="33.5" y="-272" font-family="Helvetica,sans-Serif" font-size="10.00">wgtCent</text>
<text text-anchor="start" x="14" y="-257" font-family="Helvetica,sans-Serif" font-size="10.00">+</text>
<text text-anchor="start" x="33.5" y="-257" font-family="Helvetica,sans-Serif" font-size="10.00">count</text>
<text text-anchor="start" x="14" y="-242" font-family="Helvetica,sans-Serif" font-size="10.00">+</text>
<text text-anchor="start" x="33.5" y="-242" font-family="Helvetica,sans-Serif" font-size="10.00">HasWgtCent()</text>
<text text-anchor="start" x="14" y="-227" font-family="Helvetica,sans-Serif" font-size="10.00">+</text>
<text text-anchor="start" x="33.5" y="-227" font-family="Helvetica,sans-Serif" font-size="10.00">resetCount()</text>
<text text-anchor="start" x="14" y="-212" font-family="Helvetica,sans-Serif" font-size="10.00">+</text>
<text text-anchor="start" x="33.5" y="-212" font-family="Helvetica,sans-Serif" font-size="10.00">~HasWgtCent()</text>
<polygon fill="#666666" stroke="#666666" points="3.5,-282 3.5,-282 128.5,-282 128.5,-282 3.5,-282"/>
<polygon fill="#666666" stroke="#666666" points="3.5,-252 3.5,-252 31.5,-252 31.5,-252 3.5,-252"/>
<polygon fill="#666666" stroke="#666666" points="31.5,-252 31.5,-252 128.5,-252 128.5,-252 31.5,-252"/>
<polygon fill="none" stroke="#666666" points="3,-205 3,-299 128,-299 128,-205 3,-205"/>
</a>
</g>
</g>
<!-- Node2 -->
<g id="Node000002" class="node">
<title>Node2</title>
<g id="a_Node000002"><a xlink:href="classCentroidPoint.html" target="_top" xlink:title="Represents a point with a centroid and associated weights.">
<polygon fill="white" stroke="transparent" points="131,-169 0,-169 0,0 131,0 131,-169"/>
<text text-anchor="start" x="5.5" y="-156.5" font-family="Helvetica,sans-Serif" font-size="10.00">CentroidPoint&lt; PT, PD &gt;</text>
<text text-anchor="start" x="64" y="-141.5" font-family="Helvetica,sans-Serif" font-size="10.00"> </text>
<text text-anchor="start" x="11.5" y="-126.5" font-family="Helvetica,sans-Serif" font-size="10.00">+</text>
<text text-anchor="start" x="31.5" y="-126.5" font-family="Helvetica,sans-Serif" font-size="10.00">CentroidPoint()</text>
<text text-anchor="start" x="11.5" y="-111.5" font-family="Helvetica,sans-Serif" font-size="10.00">+</text>
<text text-anchor="start" x="31.5" y="-111.5" font-family="Helvetica,sans-Serif" font-size="10.00">CentroidPoint()</text>
<text text-anchor="start" x="11.5" y="-96.5" font-family="Helvetica,sans-Serif" font-size="10.00">+</text>
<text text-anchor="start" x="31.5" y="-96.5" font-family="Helvetica,sans-Serif" font-size="10.00">operator+()</text>
<text text-anchor="start" x="11.5" y="-81.5" font-family="Helvetica,sans-Serif" font-size="10.00">+</text>
<text text-anchor="start" x="31.5" y="-81.5" font-family="Helvetica,sans-Serif" font-size="10.00">normalize()</text>
<text text-anchor="start" x="11.5" y="-66.5" font-family="Helvetica,sans-Serif" font-size="10.00">+</text>
<text text-anchor="start" x="31.5" y="-66.5" font-family="Helvetica,sans-Serif" font-size="10.00">operator==()</text>
<text text-anchor="start" x="11.5" y="-51.5" font-family="Helvetica,sans-Serif" font-size="10.00">+</text>
<text text-anchor="start" x="31.5" y="-51.5" font-family="Helvetica,sans-Serif" font-size="10.00">operator==()</text>
<text text-anchor="start" x="11.5" y="-36.5" font-family="Helvetica,sans-Serif" font-size="10.00">+</text>
<text text-anchor="start" x="31.5" y="-36.5" font-family="Helvetica,sans-Serif" font-size="10.00">operator!=()</text>
<text text-anchor="start" x="11.5" y="-21.5" font-family="Helvetica,sans-Serif" font-size="10.00">+</text>
<text text-anchor="start" x="31.5" y="-21.5" font-family="Helvetica,sans-Serif" font-size="10.00">operator!=()</text>
<text text-anchor="start" x="11.5" y="-6.5" font-family="Helvetica,sans-Serif" font-size="10.00">+</text>
<text text-anchor="start" x="31.5" y="-6.5" font-family="Helvetica,sans-Serif" font-size="10.00">~CentroidPoint()</text>
<polygon fill="#666666" stroke="#666666" points="0.5,-151.5 0.5,-151.5 131.5,-151.5 131.5,-151.5 0.5,-151.5"/>
<polygon fill="#666666" stroke="#666666" points="0.5,-136.5 0.5,-136.5 131.5,-136.5 131.5,-136.5 0.5,-136.5"/>
<polygon fill="none" stroke="#666666" points="0,0 0,-169 131,-169 131,0 0,0"/>
</a>
</g>
</g>
<!-- Node1&#45;&gt;Node2 -->
<g id="edge1_Node000001_Node000002" class="edge">
<title>Node1&#45;&gt;Node2</title>
<g id="a_edge1_Node000001_Node000002"><a xlink:title=" ">
<path fill="none" stroke="#63b8ff" d="M65.5,-194.66C65.5,-186.4 65.5,-177.74 65.5,-169.06"/>
<polygon fill="none" stroke="#63b8ff" points="62,-194.9 65.5,-204.9 69,-194.9 62,-194.9"/>
</a>
</g>
</g>
</g>
</svg>
