<?xml version="1.0" encoding="UTF-8" standalone="no"?>
<!DOCTYPE svg PUBLIC "-//W3C//DTD SVG 1.1//EN"
 "http://www.w3.org/Graphics/SVG/1.1/DTD/svg11.dtd">
<!-- Generated by graphviz version 2.43.0 (0)
 -->
<!-- Title: meshviewer::Mesh Pages: 1 -->
<svg width="120pt" height="594pt"
 viewBox="0.00 0.00 120.00 594.00" xmlns="http://www.w3.org/2000/svg" xmlns:xlink="http://www.w3.org/1999/xlink">
<g id="graph0" class="graph" transform="scale(1 1) rotate(0) translate(4 590)">
<title>meshviewer::Mesh</title>
<!-- Node1 -->
<g id="Node000001" class="node">
<title>Node1</title>
<g id="a_Node000001"><a xlink:title="Represents a 3D mesh with OpenGL rendering capabilities.">
<polygon fill="#999999" stroke="transparent" points="108.5,-199 3.5,-199 3.5,0 108.5,0 108.5,-199"/>
<text text-anchor="start" x="10" y="-186.5" font-family="Helvetica,sans-Serif" font-size="10.00">meshviewer::Mesh</text>
<text text-anchor="start" x="8" y="-171.5" font-family="Helvetica,sans-Serif" font-size="10.00">#</text>
<text text-anchor="start" x="21" y="-171.5" font-family="Helvetica,sans-Serif" font-size="10.00">indexSize</text>
<text text-anchor="start" x="8" y="-156.5" font-family="Helvetica,sans-Serif" font-size="10.00">#</text>
<text text-anchor="start" x="21" y="-156.5" font-family="Helvetica,sans-Serif" font-size="10.00">vertices</text>
<text text-anchor="start" x="8" y="-141.5" font-family="Helvetica,sans-Serif" font-size="10.00">#</text>
<text text-anchor="start" x="21" y="-141.5" font-family="Helvetica,sans-Serif" font-size="10.00">indices</text>
<text text-anchor="start" x="8" y="-126.5" font-family="Helvetica,sans-Serif" font-size="10.00">#</text>
<text text-anchor="start" x="21" y="-126.5" font-family="Helvetica,sans-Serif" font-size="10.00">glVAO</text>
<text text-anchor="start" x="8" y="-111.5" font-family="Helvetica,sans-Serif" font-size="10.00">#</text>
<text text-anchor="start" x="21" y="-111.5" font-family="Helvetica,sans-Serif" font-size="10.00">glVBO</text>
<text text-anchor="start" x="8" y="-96.5" font-family="Helvetica,sans-Serif" font-size="10.00">#</text>
<text text-anchor="start" x="21" y="-96.5" font-family="Helvetica,sans-Serif" font-size="10.00">glEBO</text>
<text text-anchor="start" x="8" y="-81.5" font-family="Helvetica,sans-Serif" font-size="10.00">+</text>
<text text-anchor="start" x="21" y="-81.5" font-family="Helvetica,sans-Serif" font-size="10.00">Mesh()</text>
<text text-anchor="start" x="8" y="-66.5" font-family="Helvetica,sans-Serif" font-size="10.00">+</text>
<text text-anchor="start" x="21" y="-66.5" font-family="Helvetica,sans-Serif" font-size="10.00">Mesh()</text>
<text text-anchor="start" x="8" y="-51.5" font-family="Helvetica,sans-Serif" font-size="10.00">+</text>
<text text-anchor="start" x="21" y="-51.5" font-family="Helvetica,sans-Serif" font-size="10.00">~Mesh()</text>
<text text-anchor="start" x="8" y="-36.5" font-family="Helvetica,sans-Serif" font-size="10.00">+</text>
<text text-anchor="start" x="21" y="-36.5" font-family="Helvetica,sans-Serif" font-size="10.00">draw()</text>
<text text-anchor="start" x="8" y="-21.5" font-family="Helvetica,sans-Serif" font-size="10.00">+</text>
<text text-anchor="start" x="21" y="-21.5" font-family="Helvetica,sans-Serif" font-size="10.00">getVertexCount()</text>
<text text-anchor="start" x="8" y="-6.5" font-family="Helvetica,sans-Serif" font-size="10.00">+</text>
<text text-anchor="start" x="21" y="-6.5" font-family="Helvetica,sans-Serif" font-size="10.00">getVertex()</text>
<polygon fill="#666666" stroke="#666666" points="4,-181.5 4,-181.5 109,-181.5 109,-181.5 4,-181.5"/>
<polygon fill="#666666" stroke="#666666" points="4,-91.5 4,-91.5 19,-91.5 19,-91.5 4,-91.5"/>
<polygon fill="#666666" stroke="#666666" points="19,-91.5 19,-91.5 109,-91.5 109,-91.5 19,-91.5"/>
<polygon fill="none" stroke="#666666" points="3.5,0 3.5,-199 108.5,-199 108.5,0 3.5,0"/>
</a>
</g>
</g>
<!-- Node2 -->
<g id="Node000002" class="node">
<title>Node2</title>
<g id="a_Node000002"><a xlink:href="classMaterial.html" target="_top" xlink:title="Represents a material that combines textures and shaders.">
<polygon fill="white" stroke="transparent" points="91,-325 21,-325 21,-246 91,-246 91,-325"/>
<text text-anchor="start" x="35.5" y="-312.5" font-family="Helvetica,sans-Serif" font-size="10.00">Material</text>
<text text-anchor="start" x="25" y="-297.5" font-family="Helvetica,sans-Serif" font-size="10.00">#</text>
<text text-anchor="start" x="38" y="-297.5" font-family="Helvetica,sans-Serif" font-size="10.00">textures</text>
<text text-anchor="start" x="25" y="-282.5" font-family="Helvetica,sans-Serif" font-size="10.00">+</text>
<text text-anchor="start" x="38" y="-282.5" font-family="Helvetica,sans-Serif" font-size="10.00">Material()</text>
<text text-anchor="start" x="25" y="-267.5" font-family="Helvetica,sans-Serif" font-size="10.00">+</text>
<text text-anchor="start" x="38" y="-267.5" font-family="Helvetica,sans-Serif" font-size="10.00">Material()</text>
<text text-anchor="start" x="25" y="-252.5" font-family="Helvetica,sans-Serif" font-size="10.00">+</text>
<text text-anchor="start" x="38" y="-252.5" font-family="Helvetica,sans-Serif" font-size="10.00">use()</text>
<polygon fill="#666666" stroke="#666666" points="21,-307.5 21,-307.5 91,-307.5 91,-307.5 21,-307.5"/>
<polygon fill="#666666" stroke="#666666" points="21,-292.5 21,-292.5 36,-292.5 36,-292.5 21,-292.5"/>
<polygon fill="#666666" stroke="#666666" points="36,-292.5 36,-292.5 91,-292.5 91,-292.5 36,-292.5"/>
<polygon fill="none" stroke="#666666" points="21,-246 21,-325 91,-325 91,-246 21,-246"/>
</a>
</g>
</g>
<!-- Node2&#45;&gt;Node1 -->
<g id="edge1_Node000001_Node000002" class="edge">
<title>Node2&#45;&gt;Node1</title>
<g id="a_edge1_Node000001_Node000002"><a xlink:title=" ">
<path fill="none" stroke="#63b8ff" d="M56,-245.93C56,-235.57 56,-223.84 56,-211.63"/>
<polygon fill="none" stroke="#63b8ff" points="56,-211.31 52,-205.31 56,-199.31 60,-205.31 56,-211.31"/>
</a>
</g>
<text text-anchor="middle" x="82.5" y="-220" font-family="Helvetica,sans-Serif" font-size="10.00" fill="grey"> #material</text>
</g>
<!-- Node3 -->
<g id="Node000003" class="node">
<title>Node3</title>
<g id="a_Node000003"><a xlink:href="classShaderProgram.html" target="_top" xlink:title="Represents an OpenGL shader program.">
<polygon fill="white" stroke="transparent" points="112,-586 0,-586 0,-372 112,-372 112,-586"/>
<text text-anchor="start" x="18" y="-574" font-family="Helvetica,sans-Serif" font-size="10.00">ShaderProgram</text>
<text text-anchor="start" x="4" y="-559" font-family="Helvetica,sans-Serif" font-size="10.00">#</text>
<text text-anchor="start" x="17" y="-559" font-family="Helvetica,sans-Serif" font-size="10.00">glProgram</text>
<text text-anchor="start" x="4" y="-544" font-family="Helvetica,sans-Serif" font-size="10.00">+</text>
<text text-anchor="start" x="17" y="-544" font-family="Helvetica,sans-Serif" font-size="10.00">ShaderProgram()</text>
<text text-anchor="start" x="4" y="-529" font-family="Helvetica,sans-Serif" font-size="10.00">+</text>
<text text-anchor="start" x="17" y="-529" font-family="Helvetica,sans-Serif" font-size="10.00">ShaderProgram()</text>
<text text-anchor="start" x="4" y="-514" font-family="Helvetica,sans-Serif" font-size="10.00">+</text>
<text text-anchor="start" x="17" y="-514" font-family="Helvetica,sans-Serif" font-size="10.00">ShaderProgram()</text>
<text text-anchor="start" x="4" y="-499" font-family="Helvetica,sans-Serif" font-size="10.00">+</text>
<text text-anchor="start" x="17" y="-499" font-family="Helvetica,sans-Serif" font-size="10.00">~ShaderProgram()</text>
<text text-anchor="start" x="4" y="-484" font-family="Helvetica,sans-Serif" font-size="10.00">+</text>
<text text-anchor="start" x="17" y="-484" font-family="Helvetica,sans-Serif" font-size="10.00">use()</text>
<text text-anchor="start" x="4" y="-469" font-family="Helvetica,sans-Serif" font-size="10.00">+</text>
<text text-anchor="start" x="17" y="-469" font-family="Helvetica,sans-Serif" font-size="10.00">setInt()</text>
<text text-anchor="start" x="4" y="-454" font-family="Helvetica,sans-Serif" font-size="10.00">+</text>
<text text-anchor="start" x="17" y="-454" font-family="Helvetica,sans-Serif" font-size="10.00">setFloat()</text>
<text text-anchor="start" x="4" y="-439" font-family="Helvetica,sans-Serif" font-size="10.00">+</text>
<text text-anchor="start" x="17" y="-439" font-family="Helvetica,sans-Serif" font-size="10.00">setVec3()</text>
<text text-anchor="start" x="4" y="-424" font-family="Helvetica,sans-Serif" font-size="10.00">+</text>
<text text-anchor="start" x="17" y="-424" font-family="Helvetica,sans-Serif" font-size="10.00">setVec4()</text>
<text text-anchor="start" x="4" y="-409" font-family="Helvetica,sans-Serif" font-size="10.00">+</text>
<text text-anchor="start" x="17" y="-409" font-family="Helvetica,sans-Serif" font-size="10.00">setMat3()</text>
<text text-anchor="start" x="4" y="-394" font-family="Helvetica,sans-Serif" font-size="10.00">+</text>
<text text-anchor="start" x="17" y="-394" font-family="Helvetica,sans-Serif" font-size="10.00">setMat4()</text>
<text text-anchor="start" x="4" y="-379" font-family="Helvetica,sans-Serif" font-size="10.00">+</text>
<text text-anchor="start" x="17" y="-379" font-family="Helvetica,sans-Serif" font-size="10.00">setMVPMatrices()</text>
<polygon fill="#666666" stroke="#666666" points="0,-569 0,-569 112,-569 112,-569 0,-569"/>
<polygon fill="#666666" stroke="#666666" points="0,-554 0,-554 15,-554 15,-554 0,-554"/>
<polygon fill="#666666" stroke="#666666" points="15,-554 15,-554 112,-554 112,-554 15,-554"/>
<polygon fill="none" stroke="#666666" points="0,-372 0,-586 112,-586 112,-372 0,-372"/>
</a>
</g>
</g>
<!-- Node3&#45;&gt;Node2 -->
<g id="edge2_Node000002_Node000003" class="edge">
<title>Node3&#45;&gt;Node2</title>
<g id="a_edge2_Node000002_Node000003"><a xlink:title=" ">
<path fill="none" stroke="#63b8ff" d="M56,-371.89C56,-359.86 56,-348.04 56,-337.23"/>
<polygon fill="none" stroke="#63b8ff" points="56,-337.03 52,-331.03 56,-325.03 60,-331.03 56,-337.03"/>
</a>
</g>
<text text-anchor="middle" x="82.5" y="-346" font-family="Helvetica,sans-Serif" font-size="10.00" fill="grey"> #program</text>
</g>
</g>
</svg>
