<?xml version="1.0" encoding="UTF-8" standalone="no"?>
<!DOCTYPE svg PUBLIC "-//W3C//DTD SVG 1.1//EN"
 "http://www.w3.org/Graphics/SVG/1.1/DTD/svg11.dtd">
<!-- Generated by graphviz version 2.43.0 (0)
 -->
<!-- Title: Kinit&lt; PT, PD, M &gt; Pages: 1 -->
<svg width="451pt" height="198pt"
 viewBox="0.00 0.00 450.50 198.00" xmlns="http://www.w3.org/2000/svg" xmlns:xlink="http://www.w3.org/1999/xlink">
<g id="graph0" class="graph" transform="scale(1 1) rotate(0) translate(4 194)">
<title>Kinit&lt; PT, PD, M &gt;</title>
<!-- Node1 -->
<g id="Node000001" class="node">
<title>Node1</title>
<g id="a_Node000001"><a xlink:title="Abstract base class for determining the optimal number of clusters (k).">
<polygon fill="#999999" stroke="transparent" points="284,-190 182,-190 182,-111 284,-111 284,-190"/>
<text text-anchor="start" x="187" y="-177.5" font-family="Helvetica,sans-Serif" font-size="10.00">Kinit&lt; PT, PD, M &gt;</text>
<text text-anchor="start" x="192.5" y="-162.5" font-family="Helvetica,sans-Serif" font-size="10.00">#</text>
<text text-anchor="start" x="212" y="-162.5" font-family="Helvetica,sans-Serif" font-size="10.00">m_kMeans</text>
<text text-anchor="start" x="192.5" y="-147.5" font-family="Helvetica,sans-Serif" font-size="10.00">+</text>
<text text-anchor="start" x="212" y="-147.5" font-family="Helvetica,sans-Serif" font-size="10.00">Kinit()</text>
<text text-anchor="start" x="192.5" y="-132.5" font-family="Helvetica,sans-Serif" font-size="10.00">+</text>
<text text-anchor="start" x="212" y="-132.5" font-family="Helvetica,sans-Serif" font-size="10.00">~Kinit()</text>
<text text-anchor="start" x="192.5" y="-117.5" font-family="Helvetica,sans-Serif" font-size="10.00">+</text>
<text text-anchor="start" x="212" y="-117.5" font-family="Helvetica,sans-Serif" font-size="10.00">findK()</text>
<polygon fill="#666666" stroke="#666666" points="182,-172.5 182,-172.5 284,-172.5 284,-172.5 182,-172.5"/>
<polygon fill="#666666" stroke="#666666" points="182,-157.5 182,-157.5 210,-157.5 210,-157.5 182,-157.5"/>
<polygon fill="#666666" stroke="#666666" points="210,-157.5 210,-157.5 284,-157.5 284,-157.5 210,-157.5"/>
<polygon fill="none" stroke="#666666" points="182,-111 182,-190 284,-190 284,-111 182,-111"/>
</a>
</g>
</g>
<!-- Node2 -->
<g id="Node000002" class="node">
<title>Node2</title>
<g id="a_Node000002"><a xlink:href="classElbowMethod.html" target="_top" xlink:title="Implements the &quot;elbow method&quot; to determine the optimal number of clusters.">
<polygon fill="white" stroke="transparent" points="146,-69.5 0,-69.5 0,-5.5 146,-5.5 146,-69.5"/>
<text text-anchor="start" x="5" y="-57.5" font-family="Helvetica,sans-Serif" font-size="10.00">ElbowMethod&lt; PT, PD, M &gt;</text>
<text text-anchor="start" x="71" y="-42.5" font-family="Helvetica,sans-Serif" font-size="10.00"> </text>
<text text-anchor="start" x="16.5" y="-27.5" font-family="Helvetica,sans-Serif" font-size="10.00">+</text>
<text text-anchor="start" x="42" y="-27.5" font-family="Helvetica,sans-Serif" font-size="10.00">ElbowMethod()</text>
<text text-anchor="start" x="16.5" y="-12.5" font-family="Helvetica,sans-Serif" font-size="10.00">+</text>
<text text-anchor="start" x="42" y="-12.5" font-family="Helvetica,sans-Serif" font-size="10.00">findK()</text>
<polygon fill="#666666" stroke="#666666" points="0,-52.5 0,-52.5 146,-52.5 146,-52.5 0,-52.5"/>
<polygon fill="#666666" stroke="#666666" points="0,-37.5 0,-37.5 146,-37.5 146,-37.5 0,-37.5"/>
<polygon fill="none" stroke="#666666" points="0,-5.5 0,-69.5 146,-69.5 146,-5.5 0,-5.5"/>
</a>
</g>
</g>
<!-- Node1&#45;&gt;Node2 -->
<g id="edge1_Node000001_Node000002" class="edge">
<title>Node1&#45;&gt;Node2</title>
<g id="a_edge1_Node000001_Node000002"><a xlink:title=" ">
<path fill="none" stroke="#63b8ff" d="M173.6,-108.29C155.17,-95.51 135.18,-81.64 117.92,-69.66"/>
<polygon fill="none" stroke="#63b8ff" points="171.72,-111.25 181.94,-114.07 175.71,-105.5 171.72,-111.25"/>
</a>
</g>
</g>
<!-- Node3 -->
<g id="Node000003" class="node">
<title>Node3</title>
<g id="a_Node000003"><a xlink:href="classKDEMethod.html" target="_top" xlink:title="Implements a K initialization method based on Kernel Density Estimation (KDE).">
<polygon fill="white" stroke="transparent" points="301.5,-69.5 164.5,-69.5 164.5,-5.5 301.5,-5.5 301.5,-69.5"/>
<text text-anchor="start" x="170" y="-57.5" font-family="Helvetica,sans-Serif" font-size="10.00">KDEMethod&lt; PT, PD, M &gt;</text>
<text text-anchor="start" x="231.5" y="-42.5" font-family="Helvetica,sans-Serif" font-size="10.00"> </text>
<text text-anchor="start" x="181.5" y="-27.5" font-family="Helvetica,sans-Serif" font-size="10.00">+</text>
<text text-anchor="start" x="207" y="-27.5" font-family="Helvetica,sans-Serif" font-size="10.00">KDEMethod()</text>
<text text-anchor="start" x="181.5" y="-12.5" font-family="Helvetica,sans-Serif" font-size="10.00">+</text>
<text text-anchor="start" x="207" y="-12.5" font-family="Helvetica,sans-Serif" font-size="10.00">findK()</text>
<polygon fill="#666666" stroke="#666666" points="165,-52.5 165,-52.5 302,-52.5 302,-52.5 165,-52.5"/>
<polygon fill="#666666" stroke="#666666" points="165,-37.5 165,-37.5 302,-37.5 302,-37.5 165,-37.5"/>
<polygon fill="none" stroke="#666666" points="164.5,-5.5 164.5,-69.5 301.5,-69.5 301.5,-5.5 164.5,-5.5"/>
</a>
</g>
</g>
<!-- Node1&#45;&gt;Node3 -->
<g id="edge2_Node000001_Node000003" class="edge">
<title>Node1&#45;&gt;Node3</title>
<g id="a_edge2_Node000001_Node000003"><a xlink:title=" ">
<path fill="none" stroke="#63b8ff" d="M233,-100.95C233,-90.32 233,-79.34 233,-69.61"/>
<polygon fill="none" stroke="#63b8ff" points="229.5,-100.99 233,-110.99 236.5,-100.99 229.5,-100.99"/>
</a>
</g>
</g>
<!-- Node4 -->
<g id="Node000004" class="node">
<title>Node4</title>
<g id="a_Node000004"><a xlink:href="classSilhouetteMethod.html" target="_top" xlink:title="Implements the Silhouette method for determining the optimal number of clusters.">
<polygon fill="white" stroke="transparent" points="442.5,-75 319.5,-75 319.5,0 442.5,0 442.5,-75"/>
<text text-anchor="start" x="325" y="-62.5" font-family="Helvetica,sans-Serif" font-size="10.00">SilhouetteMethod&lt; PT,</text>
<text text-anchor="start" x="360" y="-51.5" font-family="Helvetica,sans-Serif" font-size="10.00"> PD, M &gt;</text>
<text text-anchor="start" x="379.5" y="-36.5" font-family="Helvetica,sans-Serif" font-size="10.00"> </text>
<text text-anchor="start" x="326" y="-21.5" font-family="Helvetica,sans-Serif" font-size="10.00">+</text>
<text text-anchor="start" x="341" y="-21.5" font-family="Helvetica,sans-Serif" font-size="10.00">SilhouetteMethod()</text>
<text text-anchor="start" x="326" y="-6.5" font-family="Helvetica,sans-Serif" font-size="10.00">+</text>
<text text-anchor="start" x="341" y="-6.5" font-family="Helvetica,sans-Serif" font-size="10.00">findK()</text>
<polygon fill="#666666" stroke="#666666" points="320,-46.5 320,-46.5 443,-46.5 443,-46.5 320,-46.5"/>
<polygon fill="#666666" stroke="#666666" points="320,-31.5 320,-31.5 443,-31.5 443,-31.5 320,-31.5"/>
<polygon fill="none" stroke="#666666" points="319.5,0 319.5,-75 442.5,-75 442.5,0 319.5,0"/>
</a>
</g>
</g>
<!-- Node1&#45;&gt;Node4 -->
<g id="edge3_Node000001_Node000004" class="edge">
<title>Node1&#45;&gt;Node4</title>
<g id="a_edge3_Node000001_Node000004"><a xlink:title=" ">
<path fill="none" stroke="#63b8ff" d="M292.47,-104.9C305.67,-95 319.52,-84.61 332.23,-75.08"/>
<polygon fill="none" stroke="#63b8ff" points="290.25,-102.19 284.35,-110.99 294.45,-107.79 290.25,-102.19"/>
</a>
</g>
</g>
</g>
</svg>
