<?xml version="1.0" encoding="UTF-8" standalone="no"?>
<!DOCTYPE svg PUBLIC "-//W3C//DTD SVG 1.1//EN"
 "http://www.w3.org/Graphics/SVG/1.1/DTD/svg11.dtd">
<!-- Generated by graphviz version 2.43.0 (0)
 -->
<!-- Title: KDE3D Pages: 1 -->
<svg width="334pt" height="348pt"
 viewBox="0.00 0.00 333.50 348.00" xmlns="http://www.w3.org/2000/svg" xmlns:xlink="http://www.w3.org/1999/xlink">
<g id="graph0" class="graph" transform="scale(1 1) rotate(0) translate(4 344)">
<title>KDE3D</title>
<!-- Node1 -->
<g id="Node000001" class="node">
<title>Node1</title>
<g id="a_Node000001"><a xlink:title="Implements Kernel Density Estimation (KDE) for 3D data.">
<polygon fill="#999999" stroke="transparent" points="219,-109 107,-109 107,0 219,0 219,-109"/>
<text text-anchor="start" x="146" y="-96.5" font-family="Helvetica,sans-Serif" font-size="10.00">KDE3D</text>
<text text-anchor="start" x="161" y="-81.5" font-family="Helvetica,sans-Serif" font-size="10.00"> </text>
<text text-anchor="start" x="111" y="-66.5" font-family="Helvetica,sans-Serif" font-size="10.00">+</text>
<text text-anchor="start" x="124" y="-66.5" font-family="Helvetica,sans-Serif" font-size="10.00">KDE3D()</text>
<text text-anchor="start" x="111" y="-51.5" font-family="Helvetica,sans-Serif" font-size="10.00">+</text>
<text text-anchor="start" x="124" y="-51.5" font-family="Helvetica,sans-Serif" font-size="10.00">KDE3D()</text>
<text text-anchor="start" x="111" y="-36.5" font-family="Helvetica,sans-Serif" font-size="10.00">+</text>
<text text-anchor="start" x="124" y="-36.5" font-family="Helvetica,sans-Serif" font-size="10.00">findCentroid()</text>
<text text-anchor="start" x="111" y="-21.5" font-family="Helvetica,sans-Serif" font-size="10.00">+</text>
<text text-anchor="start" x="124" y="-21.5" font-family="Helvetica,sans-Serif" font-size="10.00">generateGrid()</text>
<text text-anchor="start" x="111" y="-6.5" font-family="Helvetica,sans-Serif" font-size="10.00">+</text>
<text text-anchor="start" x="124" y="-6.5" font-family="Helvetica,sans-Serif" font-size="10.00">findLocalMaxima()</text>
<polygon fill="#666666" stroke="#666666" points="107,-91.5 107,-91.5 219,-91.5 219,-91.5 107,-91.5"/>
<polygon fill="#666666" stroke="#666666" points="107,-76.5 107,-76.5 219,-76.5 219,-76.5 107,-76.5"/>
<polygon fill="none" stroke="#666666" points="107,0 107,-109 219,-109 219,0 107,0"/>
</a>
</g>
</g>
<!-- Node2 -->
<g id="Node000002" class="node">
<title>Node2</title>
<g id="a_Node000002"><a xlink:href="classCentroidInitMethod.html" target="_top" xlink:title=" ">
<polygon fill="white" stroke="transparent" points="154,-340 0,-340 0,-145 154,-145 154,-340"/>
<text text-anchor="start" x="30" y="-327.5" font-family="Helvetica,sans-Serif" font-size="10.00">CentroidInitMethod</text>
<text text-anchor="start" x="43" y="-316.5" font-family="Helvetica,sans-Serif" font-size="10.00">&lt; double, 3 &gt;</text>
<text text-anchor="start" x="4" y="-301.5" font-family="Helvetica,sans-Serif" font-size="10.00">#</text>
<text text-anchor="start" x="17" y="-301.5" font-family="Helvetica,sans-Serif" font-size="10.00">m_data</text>
<text text-anchor="start" x="4" y="-286.5" font-family="Helvetica,sans-Serif" font-size="10.00">#</text>
<text text-anchor="start" x="17" y="-286.5" font-family="Helvetica,sans-Serif" font-size="10.00">m_k</text>
<text text-anchor="start" x="4" y="-271.5" font-family="Helvetica,sans-Serif" font-size="10.00">+</text>
<text text-anchor="start" x="17" y="-271.5" font-family="Helvetica,sans-Serif" font-size="10.00">~CentroidInitMethod()</text>
<text text-anchor="start" x="4" y="-256.5" font-family="Helvetica,sans-Serif" font-size="10.00">+</text>
<text text-anchor="start" x="17" y="-256.5" font-family="Helvetica,sans-Serif" font-size="10.00">CentroidInitMethod()</text>
<text text-anchor="start" x="4" y="-241.5" font-family="Helvetica,sans-Serif" font-size="10.00">+</text>
<text text-anchor="start" x="17" y="-241.5" font-family="Helvetica,sans-Serif" font-size="10.00">CentroidInitMethod()</text>
<text text-anchor="start" x="4" y="-226.5" font-family="Helvetica,sans-Serif" font-size="10.00">+</text>
<text text-anchor="start" x="17" y="-226.5" font-family="Helvetica,sans-Serif" font-size="10.00">findCentroid()</text>
<text text-anchor="start" x="4" y="-211.5" font-family="Helvetica,sans-Serif" font-size="10.00">+</text>
<text text-anchor="start" x="17" y="-211.5" font-family="Helvetica,sans-Serif" font-size="10.00">get_k()</text>
<text text-anchor="start" x="4" y="-196.5" font-family="Helvetica,sans-Serif" font-size="10.00">+</text>
<text text-anchor="start" x="17" y="-196.5" font-family="Helvetica,sans-Serif" font-size="10.00">exportedMesh()</text>
<text text-anchor="start" x="4" y="-181.5" font-family="Helvetica,sans-Serif" font-size="10.00">+</text>
<text text-anchor="start" x="17" y="-181.5" font-family="Helvetica,sans-Serif" font-size="10.00">exportedMesh()</text>
<text text-anchor="start" x="4" y="-166.5" font-family="Helvetica,sans-Serif" font-size="10.00">+</text>
<text text-anchor="start" x="17" y="-166.5" font-family="Helvetica,sans-Serif" font-size="10.00">truncateToThreeDecimals()</text>
<text text-anchor="start" x="4" y="-151.5" font-family="Helvetica,sans-Serif" font-size="10.00">#</text>
<text text-anchor="start" x="17" y="-151.5" font-family="Helvetica,sans-Serif" font-size="10.00">set_k()</text>
<polygon fill="#666666" stroke="#666666" points="0,-311.5 0,-311.5 154,-311.5 154,-311.5 0,-311.5"/>
<polygon fill="#666666" stroke="#666666" points="0,-281.5 0,-281.5 15,-281.5 15,-281.5 0,-281.5"/>
<polygon fill="#666666" stroke="#666666" points="15,-281.5 15,-281.5 154,-281.5 154,-281.5 15,-281.5"/>
<polygon fill="none" stroke="#666666" points="0,-145 0,-340 154,-340 154,-145 0,-145"/>
</a>
</g>
</g>
<!-- Node2&#45;&gt;Node1 -->
<g id="edge1_Node000001_Node000002" class="edge">
<title>Node2&#45;&gt;Node1</title>
<g id="a_edge1_Node000001_Node000002"><a xlink:title=" ">
<path fill="none" stroke="#63b8ff" d="M125.86,-135.83C130.06,-126.75 134.18,-117.83 138.07,-109.42"/>
<polygon fill="none" stroke="#63b8ff" points="122.66,-134.41 121.64,-144.96 129.01,-137.35 122.66,-134.41"/>
</a>
</g>
</g>
<!-- Node3 -->
<g id="Node000003" class="node">
<title>Node3</title>
<g id="a_Node000003"><a xlink:href="classKDEBase.html" target="_top" xlink:title=" ">
<polygon fill="white" stroke="transparent" points="325.5,-327 172.5,-327 172.5,-158 325.5,-158 325.5,-327"/>
<text text-anchor="start" x="213" y="-314.5" font-family="Helvetica,sans-Serif" font-size="10.00">KDEBase&lt; 3 &gt;</text>
<text text-anchor="start" x="177" y="-299.5" font-family="Helvetica,sans-Serif" font-size="10.00">+</text>
<text text-anchor="start" x="190" y="-299.5" font-family="Helvetica,sans-Serif" font-size="10.00">m_transformedPoints</text>
<text text-anchor="start" x="177" y="-284.5" font-family="Helvetica,sans-Serif" font-size="10.00">+</text>
<text text-anchor="start" x="190" y="-284.5" font-family="Helvetica,sans-Serif" font-size="10.00">m_h_sqrt_inv</text>
<text text-anchor="start" x="177" y="-269.5" font-family="Helvetica,sans-Serif" font-size="10.00">+</text>
<text text-anchor="start" x="190" y="-269.5" font-family="Helvetica,sans-Serif" font-size="10.00">m_h_det_sqrt</text>
<text text-anchor="start" x="177" y="-254.5" font-family="Helvetica,sans-Serif" font-size="10.00">+</text>
<text text-anchor="start" x="190" y="-254.5" font-family="Helvetica,sans-Serif" font-size="10.00">m_h</text>
<text text-anchor="start" x="177" y="-239.5" font-family="Helvetica,sans-Serif" font-size="10.00">+</text>
<text text-anchor="start" x="190" y="-239.5" font-family="Helvetica,sans-Serif" font-size="10.00">KDEBase()</text>
<text text-anchor="start" x="177" y="-224.5" font-family="Helvetica,sans-Serif" font-size="10.00">+</text>
<text text-anchor="start" x="190" y="-224.5" font-family="Helvetica,sans-Serif" font-size="10.00">~KDEBase()</text>
<text text-anchor="start" x="177" y="-209.5" font-family="Helvetica,sans-Serif" font-size="10.00">+</text>
<text text-anchor="start" x="190" y="-209.5" font-family="Helvetica,sans-Serif" font-size="10.00">computeMeanAndStdDev()</text>
<text text-anchor="start" x="177" y="-194.5" font-family="Helvetica,sans-Serif" font-size="10.00">+</text>
<text text-anchor="start" x="190" y="-194.5" font-family="Helvetica,sans-Serif" font-size="10.00">bandwidth_RuleOfThumb()</text>
<text text-anchor="start" x="177" y="-179.5" font-family="Helvetica,sans-Serif" font-size="10.00">+</text>
<text text-anchor="start" x="190" y="-179.5" font-family="Helvetica,sans-Serif" font-size="10.00">kdeValue()</text>
<text text-anchor="start" x="177" y="-164.5" font-family="Helvetica,sans-Serif" font-size="10.00">+</text>
<text text-anchor="start" x="190" y="-164.5" font-family="Helvetica,sans-Serif" font-size="10.00">pointToVector()</text>
<polygon fill="#666666" stroke="#666666" points="173,-309.5 173,-309.5 326,-309.5 326,-309.5 173,-309.5"/>
<polygon fill="#666666" stroke="#666666" points="173,-249.5 173,-249.5 188,-249.5 188,-249.5 173,-249.5"/>
<polygon fill="#666666" stroke="#666666" points="188,-249.5 188,-249.5 326,-249.5 326,-249.5 188,-249.5"/>
<polygon fill="none" stroke="#666666" points="172.5,-158 172.5,-327 325.5,-327 325.5,-158 172.5,-158"/>
</a>
</g>
</g>
<!-- Node3&#45;&gt;Node1 -->
<g id="edge2_Node000001_Node000003" class="edge">
<title>Node3&#45;&gt;Node1</title>
<g id="a_edge2_Node000001_Node000003"><a xlink:title=" ">
<path fill="none" stroke="#63b8ff" d="M205.98,-148.45C199.75,-134.99 193.53,-121.54 187.83,-109.21"/>
<polygon fill="none" stroke="#63b8ff" points="202.9,-150.14 210.28,-157.75 209.26,-147.2 202.9,-150.14"/>
</a>
</g>
</g>
</g>
</svg>
