<?xml version="1.0" encoding="UTF-8" standalone="no"?>
<!DOCTYPE svg PUBLIC "-//W3C//DTD SVG 1.1//EN"
 "http://www.w3.org/Graphics/SVG/1.1/DTD/svg11.dtd">
<!-- Generated by graphviz version 2.43.0 (0)
 -->
<!-- Title: Material Pages: 1 -->
<svg width="108pt" height="247pt"
 viewBox="0.00 0.00 108.00 247.00" xmlns="http://www.w3.org/2000/svg" xmlns:xlink="http://www.w3.org/1999/xlink">
<g id="graph0" class="graph" transform="scale(1 1) rotate(0) translate(4 243)">
<title>Material</title>
<!-- Node1 -->
<g id="Node000001" class="node">
<title>Node1</title>
<g id="a_Node000001"><a xlink:title="Represents a material that combines textures and shaders.">
<polygon fill="#999999" stroke="transparent" points="85,-239 15,-239 15,-145 85,-145 85,-239"/>
<text text-anchor="start" x="29.5" y="-227" font-family="Helvetica,sans-Serif" font-size="10.00">Material</text>
<text text-anchor="start" x="19" y="-212" font-family="Helvetica,sans-Serif" font-size="10.00">#</text>
<text text-anchor="start" x="32" y="-212" font-family="Helvetica,sans-Serif" font-size="10.00">program</text>
<text text-anchor="start" x="19" y="-197" font-family="Helvetica,sans-Serif" font-size="10.00">#</text>
<text text-anchor="start" x="32" y="-197" font-family="Helvetica,sans-Serif" font-size="10.00">textures</text>
<text text-anchor="start" x="19" y="-182" font-family="Helvetica,sans-Serif" font-size="10.00">+</text>
<text text-anchor="start" x="32" y="-182" font-family="Helvetica,sans-Serif" font-size="10.00">Material()</text>
<text text-anchor="start" x="19" y="-167" font-family="Helvetica,sans-Serif" font-size="10.00">+</text>
<text text-anchor="start" x="32" y="-167" font-family="Helvetica,sans-Serif" font-size="10.00">Material()</text>
<text text-anchor="start" x="19" y="-152" font-family="Helvetica,sans-Serif" font-size="10.00">+</text>
<text text-anchor="start" x="32" y="-152" font-family="Helvetica,sans-Serif" font-size="10.00">use()</text>
<polygon fill="#666666" stroke="#666666" points="15,-222 15,-222 85,-222 85,-222 15,-222"/>
<polygon fill="#666666" stroke="#666666" points="15,-192 15,-192 30,-192 30,-192 15,-192"/>
<polygon fill="#666666" stroke="#666666" points="30,-192 30,-192 85,-192 85,-192 30,-192"/>
<polygon fill="none" stroke="#666666" points="15,-145 15,-239 85,-239 85,-145 15,-145"/>
</a>
</g>
</g>
<!-- Node2 -->
<g id="Node000002" class="node">
<title>Node2</title>
<g id="a_Node000002"><a xlink:href="classPhongMaterial.html" target="_top" xlink:title="A material implementing the Phong shading model.">
<polygon fill="white" stroke="transparent" points="100,-109 0,-109 0,0 100,0 100,-109"/>
<text text-anchor="start" x="14.5" y="-96.5" font-family="Helvetica,sans-Serif" font-size="10.00">PhongMaterial</text>
<text text-anchor="start" x="4" y="-81.5" font-family="Helvetica,sans-Serif" font-size="10.00">#</text>
<text text-anchor="start" x="17" y="-81.5" font-family="Helvetica,sans-Serif" font-size="10.00">texDiffuse</text>
<text text-anchor="start" x="4" y="-66.5" font-family="Helvetica,sans-Serif" font-size="10.00">#</text>
<text text-anchor="start" x="17" y="-66.5" font-family="Helvetica,sans-Serif" font-size="10.00">texSpecular</text>
<text text-anchor="start" x="4" y="-51.5" font-family="Helvetica,sans-Serif" font-size="10.00">#</text>
<text text-anchor="start" x="17" y="-51.5" font-family="Helvetica,sans-Serif" font-size="10.00">shininess</text>
<text text-anchor="start" x="4" y="-36.5" font-family="Helvetica,sans-Serif" font-size="10.00">+</text>
<text text-anchor="start" x="17" y="-36.5" font-family="Helvetica,sans-Serif" font-size="10.00">PhongMaterial()</text>
<text text-anchor="start" x="4" y="-21.5" font-family="Helvetica,sans-Serif" font-size="10.00">+</text>
<text text-anchor="start" x="17" y="-21.5" font-family="Helvetica,sans-Serif" font-size="10.00">PhongMaterial()</text>
<text text-anchor="start" x="4" y="-6.5" font-family="Helvetica,sans-Serif" font-size="10.00">+</text>
<text text-anchor="start" x="17" y="-6.5" font-family="Helvetica,sans-Serif" font-size="10.00">use()</text>
<polygon fill="#666666" stroke="#666666" points="0,-91.5 0,-91.5 100,-91.5 100,-91.5 0,-91.5"/>
<polygon fill="#666666" stroke="#666666" points="0,-46.5 0,-46.5 15,-46.5 15,-46.5 0,-46.5"/>
<polygon fill="#666666" stroke="#666666" points="15,-46.5 15,-46.5 100,-46.5 100,-46.5 15,-46.5"/>
<polygon fill="none" stroke="#666666" points="0,0 0,-109 100,-109 100,0 0,0"/>
</a>
</g>
</g>
<!-- Node1&#45;&gt;Node2 -->
<g id="edge1_Node000001_Node000002" class="edge">
<title>Node1&#45;&gt;Node2</title>
<g id="a_edge1_Node000001_Node000002"><a xlink:title=" ">
<path fill="none" stroke="#63b8ff" d="M50,-134.58C50,-126.12 50,-117.41 50,-109.01"/>
<polygon fill="none" stroke="#63b8ff" points="46.5,-134.75 50,-144.75 53.5,-134.75 46.5,-134.75"/>
</a>
</g>
</g>
</g>
</svg>
