<?xml version="1.0" encoding="UTF-8" standalone="no"?>
<!DOCTYPE svg PUBLIC "-//W3C//DTD SVG 1.1//EN"
 "http://www.w3.org/Graphics/SVG/1.1/DTD/svg11.dtd">
<!-- Generated by graphviz version 2.43.0 (0)
 -->
<!-- Title: Model Pages: 1 -->
<svg width="237pt" height="453pt"
 viewBox="0.00 0.00 237.00 453.00" xmlns="http://www.w3.org/2000/svg" xmlns:xlink="http://www.w3.org/1999/xlink">
<g id="graph0" class="graph" transform="scale(1 1) rotate(0) translate(4 449)">
<title>Model</title>
<!-- Node1 -->
<g id="Node000001" class="node">
<title>Node1</title>
<g id="a_Node000001"><a xlink:title="Represents a 3D model composed of multiple meshes.">
<polygon fill="#999999" stroke="transparent" points="186,-184 44,-184 44,0 186,0 186,-184"/>
<text text-anchor="start" x="99.5" y="-172" font-family="Helvetica,sans-Serif" font-size="10.00">Model</text>
<text text-anchor="start" x="48" y="-157" font-family="Helvetica,sans-Serif" font-size="10.00">#</text>
<text text-anchor="start" x="61" y="-157" font-family="Helvetica,sans-Serif" font-size="10.00">loader</text>
<text text-anchor="start" x="48" y="-142" font-family="Helvetica,sans-Serif" font-size="10.00">#</text>
<text text-anchor="start" x="61" y="-142" font-family="Helvetica,sans-Serif" font-size="10.00">meshes</text>
<text text-anchor="start" x="48" y="-127" font-family="Helvetica,sans-Serif" font-size="10.00">#</text>
<text text-anchor="start" x="61" y="-127" font-family="Helvetica,sans-Serif" font-size="10.00">textures</text>
<text text-anchor="start" x="48" y="-112" font-family="Helvetica,sans-Serif" font-size="10.00">#</text>
<text text-anchor="start" x="61" y="-112" font-family="Helvetica,sans-Serif" font-size="10.00">materials</text>
<text text-anchor="start" x="48" y="-97" font-family="Helvetica,sans-Serif" font-size="10.00">+</text>
<text text-anchor="start" x="61" y="-97" font-family="Helvetica,sans-Serif" font-size="10.00">Model()</text>
<text text-anchor="start" x="48" y="-82" font-family="Helvetica,sans-Serif" font-size="10.00">+</text>
<text text-anchor="start" x="61" y="-82" font-family="Helvetica,sans-Serif" font-size="10.00">Model()</text>
<text text-anchor="start" x="48" y="-67" font-family="Helvetica,sans-Serif" font-size="10.00">+</text>
<text text-anchor="start" x="61" y="-67" font-family="Helvetica,sans-Serif" font-size="10.00">~Model()</text>
<text text-anchor="start" x="48" y="-52" font-family="Helvetica,sans-Serif" font-size="10.00">+</text>
<text text-anchor="start" x="61" y="-52" font-family="Helvetica,sans-Serif" font-size="10.00">draw()</text>
<text text-anchor="start" x="48" y="-37" font-family="Helvetica,sans-Serif" font-size="10.00">+</text>
<text text-anchor="start" x="61" y="-37" font-family="Helvetica,sans-Serif" font-size="10.00">getBoundingBoxSize()</text>
<text text-anchor="start" x="48" y="-22" font-family="Helvetica,sans-Serif" font-size="10.00">+</text>
<text text-anchor="start" x="61" y="-22" font-family="Helvetica,sans-Serif" font-size="10.00">getBoundingBoxCenter()</text>
<text text-anchor="start" x="48" y="-7" font-family="Helvetica,sans-Serif" font-size="10.00">#</text>
<text text-anchor="start" x="61" y="-7" font-family="Helvetica,sans-Serif" font-size="10.00">loadTexture()</text>
<polygon fill="#666666" stroke="#666666" points="44,-167 44,-167 186,-167 186,-167 44,-167"/>
<polygon fill="#666666" stroke="#666666" points="44,-107 44,-107 59,-107 59,-107 44,-107"/>
<polygon fill="#666666" stroke="#666666" points="59,-107 59,-107 186,-107 186,-107 59,-107"/>
<polygon fill="none" stroke="#666666" points="44,0 44,-184 186,-184 186,0 44,0"/>
</a>
</g>
</g>
<!-- Node2 -->
<g id="Node000002" class="node">
<title>Node2</title>
<g id="a_Node000002"><a xlink:href="classShaderProgram.html" target="_top" xlink:title="Represents an OpenGL shader program.">
<polygon fill="white" stroke="transparent" points="112,-445 0,-445 0,-231 112,-231 112,-445"/>
<text text-anchor="start" x="18" y="-433" font-family="Helvetica,sans-Serif" font-size="10.00">ShaderProgram</text>
<text text-anchor="start" x="4" y="-418" font-family="Helvetica,sans-Serif" font-size="10.00">#</text>
<text text-anchor="start" x="17" y="-418" font-family="Helvetica,sans-Serif" font-size="10.00">glProgram</text>
<text text-anchor="start" x="4" y="-403" font-family="Helvetica,sans-Serif" font-size="10.00">+</text>
<text text-anchor="start" x="17" y="-403" font-family="Helvetica,sans-Serif" font-size="10.00">ShaderProgram()</text>
<text text-anchor="start" x="4" y="-388" font-family="Helvetica,sans-Serif" font-size="10.00">+</text>
<text text-anchor="start" x="17" y="-388" font-family="Helvetica,sans-Serif" font-size="10.00">ShaderProgram()</text>
<text text-anchor="start" x="4" y="-373" font-family="Helvetica,sans-Serif" font-size="10.00">+</text>
<text text-anchor="start" x="17" y="-373" font-family="Helvetica,sans-Serif" font-size="10.00">ShaderProgram()</text>
<text text-anchor="start" x="4" y="-358" font-family="Helvetica,sans-Serif" font-size="10.00">+</text>
<text text-anchor="start" x="17" y="-358" font-family="Helvetica,sans-Serif" font-size="10.00">~ShaderProgram()</text>
<text text-anchor="start" x="4" y="-343" font-family="Helvetica,sans-Serif" font-size="10.00">+</text>
<text text-anchor="start" x="17" y="-343" font-family="Helvetica,sans-Serif" font-size="10.00">use()</text>
<text text-anchor="start" x="4" y="-328" font-family="Helvetica,sans-Serif" font-size="10.00">+</text>
<text text-anchor="start" x="17" y="-328" font-family="Helvetica,sans-Serif" font-size="10.00">setInt()</text>
<text text-anchor="start" x="4" y="-313" font-family="Helvetica,sans-Serif" font-size="10.00">+</text>
<text text-anchor="start" x="17" y="-313" font-family="Helvetica,sans-Serif" font-size="10.00">setFloat()</text>
<text text-anchor="start" x="4" y="-298" font-family="Helvetica,sans-Serif" font-size="10.00">+</text>
<text text-anchor="start" x="17" y="-298" font-family="Helvetica,sans-Serif" font-size="10.00">setVec3()</text>
<text text-anchor="start" x="4" y="-283" font-family="Helvetica,sans-Serif" font-size="10.00">+</text>
<text text-anchor="start" x="17" y="-283" font-family="Helvetica,sans-Serif" font-size="10.00">setVec4()</text>
<text text-anchor="start" x="4" y="-268" font-family="Helvetica,sans-Serif" font-size="10.00">+</text>
<text text-anchor="start" x="17" y="-268" font-family="Helvetica,sans-Serif" font-size="10.00">setMat3()</text>
<text text-anchor="start" x="4" y="-253" font-family="Helvetica,sans-Serif" font-size="10.00">+</text>
<text text-anchor="start" x="17" y="-253" font-family="Helvetica,sans-Serif" font-size="10.00">setMat4()</text>
<text text-anchor="start" x="4" y="-238" font-family="Helvetica,sans-Serif" font-size="10.00">+</text>
<text text-anchor="start" x="17" y="-238" font-family="Helvetica,sans-Serif" font-size="10.00">setMVPMatrices()</text>
<polygon fill="#666666" stroke="#666666" points="0,-428 0,-428 112,-428 112,-428 0,-428"/>
<polygon fill="#666666" stroke="#666666" points="0,-413 0,-413 15,-413 15,-413 0,-413"/>
<polygon fill="#666666" stroke="#666666" points="15,-413 15,-413 112,-413 112,-413 15,-413"/>
<polygon fill="none" stroke="#666666" points="0,-231 0,-445 112,-445 112,-231 0,-231"/>
</a>
</g>
</g>
<!-- Node2&#45;&gt;Node1 -->
<g id="edge1_Node000001_Node000002" class="edge">
<title>Node2&#45;&gt;Node1</title>
<g id="a_edge1_Node000001_Node000002"><a xlink:title=" ">
<path fill="none" stroke="#63b8ff" d="M81.71,-230.69C84.5,-219.15 87.33,-207.43 90.11,-195.94"/>
<polygon fill="none" stroke="#63b8ff" points="90.16,-195.73 87.68,-188.96 92.98,-184.07 95.46,-190.84 90.16,-195.73"/>
</a>
</g>
<text text-anchor="middle" x="114.5" y="-205" font-family="Helvetica,sans-Serif" font-size="10.00" fill="grey"> #program</text>
</g>
<!-- Node3 -->
<g id="Node000003" class="node">
<title>Node3</title>
<g id="a_Node000003"><a xlink:href="classTexture2D.html" target="_top" xlink:title="Represents a 2D texture used in materials.">
<polygon fill="white" stroke="transparent" points="217.5,-415 130.5,-415 130.5,-261 217.5,-261 217.5,-415"/>
<text text-anchor="start" x="149.5" y="-403" font-family="Helvetica,sans-Serif" font-size="10.00">Texture2D</text>
<text text-anchor="start" x="135" y="-388" font-family="Helvetica,sans-Serif" font-size="10.00">#</text>
<text text-anchor="start" x="148" y="-388" font-family="Helvetica,sans-Serif" font-size="10.00">data</text>
<text text-anchor="start" x="135" y="-373" font-family="Helvetica,sans-Serif" font-size="10.00">#</text>
<text text-anchor="start" x="148" y="-373" font-family="Helvetica,sans-Serif" font-size="10.00">glTexture</text>
<text text-anchor="start" x="135" y="-358" font-family="Helvetica,sans-Serif" font-size="10.00">#</text>
<text text-anchor="start" x="148" y="-358" font-family="Helvetica,sans-Serif" font-size="10.00">width</text>
<text text-anchor="start" x="135" y="-343" font-family="Helvetica,sans-Serif" font-size="10.00">#</text>
<text text-anchor="start" x="148" y="-343" font-family="Helvetica,sans-Serif" font-size="10.00">height</text>
<text text-anchor="start" x="135" y="-328" font-family="Helvetica,sans-Serif" font-size="10.00">+</text>
<text text-anchor="start" x="148" y="-328" font-family="Helvetica,sans-Serif" font-size="10.00">Texture2D()</text>
<text text-anchor="start" x="135" y="-313" font-family="Helvetica,sans-Serif" font-size="10.00">+</text>
<text text-anchor="start" x="148" y="-313" font-family="Helvetica,sans-Serif" font-size="10.00">Texture2D()</text>
<text text-anchor="start" x="135" y="-298" font-family="Helvetica,sans-Serif" font-size="10.00">+</text>
<text text-anchor="start" x="148" y="-298" font-family="Helvetica,sans-Serif" font-size="10.00">Texture2D()</text>
<text text-anchor="start" x="135" y="-283" font-family="Helvetica,sans-Serif" font-size="10.00">+</text>
<text text-anchor="start" x="148" y="-283" font-family="Helvetica,sans-Serif" font-size="10.00">~Texture2D()</text>
<text text-anchor="start" x="135" y="-268" font-family="Helvetica,sans-Serif" font-size="10.00">+</text>
<text text-anchor="start" x="148" y="-268" font-family="Helvetica,sans-Serif" font-size="10.00">use()</text>
<polygon fill="#666666" stroke="#666666" points="131,-398 131,-398 218,-398 218,-398 131,-398"/>
<polygon fill="#666666" stroke="#666666" points="131,-338 131,-338 146,-338 146,-338 131,-338"/>
<polygon fill="#666666" stroke="#666666" points="146,-338 146,-338 218,-338 218,-338 146,-338"/>
<polygon fill="none" stroke="#666666" points="130.5,-261 130.5,-415 217.5,-415 217.5,-261 130.5,-261"/>
</a>
</g>
</g>
<!-- Node3&#45;&gt;Node1 -->
<g id="edge2_Node000001_Node000003" class="edge">
<title>Node3&#45;&gt;Node1</title>
<g id="a_edge2_Node000001_Node000003"><a xlink:title=" ">
<path fill="none" stroke="#63b8ff" d="M158.42,-260.79C154.27,-241.55 149.65,-220.98 145,-202 144.51,-200 144.01,-197.98 143.5,-195.95"/>
<polygon fill="none" stroke="#63b8ff" points="143.47,-195.82 138.11,-190.99 140.51,-184.19 145.87,-189.02 143.47,-195.82"/>
</a>
</g>
<text text-anchor="middle" x="188" y="-205" font-family="Helvetica,sans-Serif" font-size="10.00" fill="grey"> #defaultTexture</text>
</g>
</g>
</svg>
