<?xml version="1.0" encoding="UTF-8" standalone="no"?>
<!DOCTYPE svg PUBLIC "-//W3C//DTD SVG 1.1//EN"
 "http://www.w3.org/Graphics/SVG/1.1/DTD/svg11.dtd">
<!-- Generated by graphviz version 2.43.0 (0)
 -->
<!-- Title: Kinit&lt; PT, PD, M &gt; Pages: 1 -->
<svg width="296pt" height="198pt"
 viewBox="0.00 0.00 295.50 198.00" xmlns="http://www.w3.org/2000/svg" xmlns:xlink="http://www.w3.org/1999/xlink">
<g id="graph0" class="graph" transform="scale(1 1) rotate(0) translate(4 194)">
<title>Kinit&lt; PT, PD, M &gt;</title>
<!-- Node1 -->
<g id="Node000001" class="node">
<title>Node1</title>
<g id="a_Node000001"><a xlink:title="Abstract base class for determining the optimal number of clusters (k).">
<polygon fill="#999999" stroke="transparent" points="200,-190 98,-190 98,-111 200,-111 200,-190"/>
<text text-anchor="start" x="103" y="-177.5" font-family="Helvetica,sans-Serif" font-size="10.00">Kinit&lt; PT, PD, M &gt;</text>
<text text-anchor="start" x="108.5" y="-162.5" font-family="Helvetica,sans-Serif" font-size="10.00">#</text>
<text text-anchor="start" x="128" y="-162.5" font-family="Helvetica,sans-Serif" font-size="10.00">m_kMeans</text>
<text text-anchor="start" x="108.5" y="-147.5" font-family="Helvetica,sans-Serif" font-size="10.00">+</text>
<text text-anchor="start" x="128" y="-147.5" font-family="Helvetica,sans-Serif" font-size="10.00">Kinit()</text>
<text text-anchor="start" x="108.5" y="-132.5" font-family="Helvetica,sans-Serif" font-size="10.00">+</text>
<text text-anchor="start" x="128" y="-132.5" font-family="Helvetica,sans-Serif" font-size="10.00">~Kinit()</text>
<text text-anchor="start" x="108.5" y="-117.5" font-family="Helvetica,sans-Serif" font-size="10.00">+</text>
<text text-anchor="start" x="128" y="-117.5" font-family="Helvetica,sans-Serif" font-size="10.00">findK()</text>
<polygon fill="#666666" stroke="#666666" points="98,-172.5 98,-172.5 200,-172.5 200,-172.5 98,-172.5"/>
<polygon fill="#666666" stroke="#666666" points="98,-157.5 98,-157.5 126,-157.5 126,-157.5 98,-157.5"/>
<polygon fill="#666666" stroke="#666666" points="126,-157.5 126,-157.5 200,-157.5 200,-157.5 126,-157.5"/>
<polygon fill="none" stroke="#666666" points="98,-111 98,-190 200,-190 200,-111 98,-111"/>
</a>
</g>
</g>
<!-- Node2 -->
<g id="Node000002" class="node">
<title>Node2</title>
<g id="a_Node000002"><a xlink:href="classElbowMethod.html" target="_top" xlink:title="Implements the &quot;elbow method&quot; to determine the optimal number of clusters.">
<polygon fill="white" stroke="transparent" points="146,-69.5 0,-69.5 0,-5.5 146,-5.5 146,-69.5"/>
<text text-anchor="start" x="5" y="-57.5" font-family="Helvetica,sans-Serif" font-size="10.00">ElbowMethod&lt; PT, PD, M &gt;</text>
<text text-anchor="start" x="71" y="-42.5" font-family="Helvetica,sans-Serif" font-size="10.00"> </text>
<text text-anchor="start" x="16.5" y="-27.5" font-family="Helvetica,sans-Serif" font-size="10.00">+</text>
<text text-anchor="start" x="42" y="-27.5" font-family="Helvetica,sans-Serif" font-size="10.00">ElbowMethod()</text>
<text text-anchor="start" x="16.5" y="-12.5" font-family="Helvetica,sans-Serif" font-size="10.00">+</text>
<text text-anchor="start" x="42" y="-12.5" font-family="Helvetica,sans-Serif" font-size="10.00">findK()</text>
<polygon fill="#666666" stroke="#666666" points="0,-52.5 0,-52.5 146,-52.5 146,-52.5 0,-52.5"/>
<polygon fill="#666666" stroke="#666666" points="0,-37.5 0,-37.5 146,-37.5 146,-37.5 0,-37.5"/>
<polygon fill="none" stroke="#666666" points="0,-5.5 0,-69.5 146,-69.5 146,-5.5 0,-5.5"/>
</a>
</g>
</g>
<!-- Node1&#45;&gt;Node2 -->
<g id="edge1_Node000001_Node000002" class="edge">
<title>Node1&#45;&gt;Node2</title>
<g id="a_edge1_Node000001_Node000002"><a xlink:title=" ">
<path fill="none" stroke="#63b8ff" d="M116.88,-102.59C109.26,-91.45 101.31,-79.84 94.3,-69.61"/>
<polygon fill="none" stroke="#63b8ff" points="114.09,-104.72 122.63,-110.99 119.87,-100.76 114.09,-104.72"/>
</a>
</g>
</g>
<!-- Node3 -->
<g id="Node000003" class="node">
<title>Node3</title>
<g id="a_Node000003"><a xlink:href="classSilhouetteMethod.html" target="_top" xlink:title="Implements the Silhouette method for determining the optimal number of clusters.">
<polygon fill="white" stroke="transparent" points="287.5,-75 164.5,-75 164.5,0 287.5,0 287.5,-75"/>
<text text-anchor="start" x="170" y="-62.5" font-family="Helvetica,sans-Serif" font-size="10.00">SilhouetteMethod&lt; PT,</text>
<text text-anchor="start" x="205" y="-51.5" font-family="Helvetica,sans-Serif" font-size="10.00"> PD, M &gt;</text>
<text text-anchor="start" x="224.5" y="-36.5" font-family="Helvetica,sans-Serif" font-size="10.00"> </text>
<text text-anchor="start" x="171" y="-21.5" font-family="Helvetica,sans-Serif" font-size="10.00">+</text>
<text text-anchor="start" x="186" y="-21.5" font-family="Helvetica,sans-Serif" font-size="10.00">SilhouetteMethod()</text>
<text text-anchor="start" x="171" y="-6.5" font-family="Helvetica,sans-Serif" font-size="10.00">+</text>
<text text-anchor="start" x="186" y="-6.5" font-family="Helvetica,sans-Serif" font-size="10.00">findK()</text>
<polygon fill="#666666" stroke="#666666" points="165,-46.5 165,-46.5 288,-46.5 288,-46.5 165,-46.5"/>
<polygon fill="#666666" stroke="#666666" points="165,-31.5 165,-31.5 288,-31.5 288,-31.5 165,-31.5"/>
<polygon fill="none" stroke="#666666" points="164.5,0 164.5,-75 287.5,-75 287.5,0 164.5,0"/>
</a>
</g>
</g>
<!-- Node1&#45;&gt;Node3 -->
<g id="edge2_Node000001_Node000003" class="edge">
<title>Node1&#45;&gt;Node3</title>
<g id="a_edge2_Node000001_Node000003"><a xlink:title=" ">
<path fill="none" stroke="#63b8ff" d="M181.5,-102.65C187.89,-93.43 194.51,-83.89 200.63,-75.08"/>
<polygon fill="none" stroke="#63b8ff" points="178.54,-100.78 175.71,-110.99 184.29,-104.77 178.54,-100.78"/>
</a>
</g>
</g>
</g>
</svg>
