<?xml version="1.0" encoding="UTF-8" standalone="no"?>
<!DOCTYPE svg PUBLIC "-//W3C//DTD SVG 1.1//EN"
 "http://www.w3.org/Graphics/SVG/1.1/DTD/svg11.dtd">
<!-- Generated by graphviz version 2.43.0 (0)
 -->
<!-- Title: MostDistanceClass&lt; PD &gt; Pages: 1 -->
<svg width="162pt" height="423pt"
 viewBox="0.00 0.00 162.00 423.00" xmlns="http://www.w3.org/2000/svg" xmlns:xlink="http://www.w3.org/1999/xlink">
<g id="graph0" class="graph" transform="scale(1 1) rotate(0) translate(4 419)">
<title>MostDistanceClass&lt; PD &gt;</title>
<!-- Node1 -->
<g id="Node000001" class="node">
<title>Node1</title>
<g id="a_Node000001"><a xlink:title="Class for centroid initialization based on maximum distance.">
<polygon fill="#999999" stroke="transparent" points="147,-79 7,-79 7,0 147,0 147,-79"/>
<text text-anchor="start" x="12" y="-66.5" font-family="Helvetica,sans-Serif" font-size="10.00">MostDistanceClass&lt; PD &gt;</text>
<text text-anchor="start" x="75" y="-51.5" font-family="Helvetica,sans-Serif" font-size="10.00"> </text>
<text text-anchor="start" x="15.5" y="-36.5" font-family="Helvetica,sans-Serif" font-size="10.00">+</text>
<text text-anchor="start" x="33" y="-36.5" font-family="Helvetica,sans-Serif" font-size="10.00">MostDistanceClass()</text>
<text text-anchor="start" x="15.5" y="-21.5" font-family="Helvetica,sans-Serif" font-size="10.00">+</text>
<text text-anchor="start" x="33" y="-21.5" font-family="Helvetica,sans-Serif" font-size="10.00">MostDistanceClass()</text>
<text text-anchor="start" x="15.5" y="-6.5" font-family="Helvetica,sans-Serif" font-size="10.00">+</text>
<text text-anchor="start" x="33" y="-6.5" font-family="Helvetica,sans-Serif" font-size="10.00">findCentroid()</text>
<polygon fill="#666666" stroke="#666666" points="7,-61.5 7,-61.5 147,-61.5 147,-61.5 7,-61.5"/>
<polygon fill="#666666" stroke="#666666" points="7,-46.5 7,-46.5 147,-46.5 147,-46.5 7,-46.5"/>
<polygon fill="none" stroke="#666666" points="7,0 7,-79 147,-79 147,0 7,0"/>
</a>
</g>
</g>
<!-- Node2 -->
<g id="Node000002" class="node">
<title>Node2</title>
<g id="a_Node000002"><a xlink:href="classCentroidInitMethod.html" target="_top" xlink:title=" ">
<polygon fill="white" stroke="transparent" points="154,-415 0,-415 0,-115 154,-115 154,-415"/>
<text text-anchor="start" x="30" y="-403" font-family="Helvetica,sans-Serif" font-size="10.00">CentroidInitMethod</text>
<text text-anchor="start" x="39" y="-392" font-family="Helvetica,sans-Serif" font-size="10.00">&lt; double, PD &gt;</text>
<text text-anchor="start" x="4" y="-377" font-family="Helvetica,sans-Serif" font-size="10.00">#</text>
<text text-anchor="start" x="17" y="-377" font-family="Helvetica,sans-Serif" font-size="10.00">m_data</text>
<text text-anchor="start" x="4" y="-362" font-family="Helvetica,sans-Serif" font-size="10.00">#</text>
<text text-anchor="start" x="17" y="-362" font-family="Helvetica,sans-Serif" font-size="10.00">m_k</text>
<text text-anchor="start" x="4" y="-347" font-family="Helvetica,sans-Serif" font-size="10.00">+</text>
<text text-anchor="start" x="17" y="-347" font-family="Helvetica,sans-Serif" font-size="10.00">~CentroidInitMethod()</text>
<text text-anchor="start" x="4" y="-332" font-family="Helvetica,sans-Serif" font-size="10.00">+</text>
<text text-anchor="start" x="17" y="-332" font-family="Helvetica,sans-Serif" font-size="10.00">~CentroidInitMethod()</text>
<text text-anchor="start" x="4" y="-317" font-family="Helvetica,sans-Serif" font-size="10.00">+</text>
<text text-anchor="start" x="17" y="-317" font-family="Helvetica,sans-Serif" font-size="10.00">CentroidInitMethod()</text>
<text text-anchor="start" x="4" y="-302" font-family="Helvetica,sans-Serif" font-size="10.00">+</text>
<text text-anchor="start" x="17" y="-302" font-family="Helvetica,sans-Serif" font-size="10.00">CentroidInitMethod()</text>
<text text-anchor="start" x="4" y="-287" font-family="Helvetica,sans-Serif" font-size="10.00">+</text>
<text text-anchor="start" x="17" y="-287" font-family="Helvetica,sans-Serif" font-size="10.00">CentroidInitMethod()</text>
<text text-anchor="start" x="4" y="-272" font-family="Helvetica,sans-Serif" font-size="10.00">+</text>
<text text-anchor="start" x="17" y="-272" font-family="Helvetica,sans-Serif" font-size="10.00">CentroidInitMethod()</text>
<text text-anchor="start" x="4" y="-257" font-family="Helvetica,sans-Serif" font-size="10.00">+</text>
<text text-anchor="start" x="17" y="-257" font-family="Helvetica,sans-Serif" font-size="10.00">findCentroid()</text>
<text text-anchor="start" x="4" y="-242" font-family="Helvetica,sans-Serif" font-size="10.00">+</text>
<text text-anchor="start" x="17" y="-242" font-family="Helvetica,sans-Serif" font-size="10.00">findCentroid()</text>
<text text-anchor="start" x="4" y="-227" font-family="Helvetica,sans-Serif" font-size="10.00">+</text>
<text text-anchor="start" x="17" y="-227" font-family="Helvetica,sans-Serif" font-size="10.00">exportedMesh()</text>
<text text-anchor="start" x="4" y="-212" font-family="Helvetica,sans-Serif" font-size="10.00">+</text>
<text text-anchor="start" x="17" y="-212" font-family="Helvetica,sans-Serif" font-size="10.00">exportedMesh()</text>
<text text-anchor="start" x="4" y="-197" font-family="Helvetica,sans-Serif" font-size="10.00">+</text>
<text text-anchor="start" x="17" y="-197" font-family="Helvetica,sans-Serif" font-size="10.00">exportedMesh()</text>
<text text-anchor="start" x="4" y="-182" font-family="Helvetica,sans-Serif" font-size="10.00">+</text>
<text text-anchor="start" x="17" y="-182" font-family="Helvetica,sans-Serif" font-size="10.00">exportedMesh()</text>
<text text-anchor="start" x="4" y="-167" font-family="Helvetica,sans-Serif" font-size="10.00">+</text>
<text text-anchor="start" x="17" y="-167" font-family="Helvetica,sans-Serif" font-size="10.00">truncateToThreeDecimals()</text>
<text text-anchor="start" x="4" y="-152" font-family="Helvetica,sans-Serif" font-size="10.00">+</text>
<text text-anchor="start" x="17" y="-152" font-family="Helvetica,sans-Serif" font-size="10.00">truncateToThreeDecimals()</text>
<text text-anchor="start" x="4" y="-137" font-family="Helvetica,sans-Serif" font-size="10.00">#</text>
<text text-anchor="start" x="17" y="-137" font-family="Helvetica,sans-Serif" font-size="10.00">set_k()</text>
<text text-anchor="start" x="4" y="-122" font-family="Helvetica,sans-Serif" font-size="10.00">#</text>
<text text-anchor="start" x="17" y="-122" font-family="Helvetica,sans-Serif" font-size="10.00">set_k()</text>
<polygon fill="#666666" stroke="#666666" points="0,-387 0,-387 154,-387 154,-387 0,-387"/>
<polygon fill="#666666" stroke="#666666" points="0,-357 0,-357 15,-357 15,-357 0,-357"/>
<polygon fill="#666666" stroke="#666666" points="15,-357 15,-357 154,-357 154,-357 15,-357"/>
<polygon fill="none" stroke="#666666" points="0,-115 0,-415 154,-415 154,-115 0,-115"/>
</a>
</g>
</g>
<!-- Node2&#45;&gt;Node1 -->
<g id="edge1_Node000001_Node000002" class="edge">
<title>Node2&#45;&gt;Node1</title>
<g id="a_edge1_Node000001_Node000002"><a xlink:title=" ">
<path fill="none" stroke="#63b8ff" d="M77,-104.76C77,-95.57 77,-86.91 77,-79.1"/>
<polygon fill="none" stroke="#63b8ff" points="73.5,-104.92 77,-114.92 80.5,-104.92 73.5,-104.92"/>
</a>
</g>
</g>
</g>
</svg>
