<?xml version="1.0" encoding="UTF-8" standalone="no"?>
<!DOCTYPE svg PUBLIC "-//W3C//DTD SVG 1.1//EN"
 "http://www.w3.org/Graphics/SVG/1.1/DTD/svg11.dtd">
<!-- Generated by graphviz version 2.43.0 (0)
 -->
<!-- Title: GeodesicHeatMetric&lt; PT, PD &gt; Pages: 1 -->
<svg width="290pt" height="651pt"
 viewBox="0.00 0.00 289.50 651.00" xmlns="http://www.w3.org/2000/svg" xmlns:xlink="http://www.w3.org/1999/xlink">
<g id="graph0" class="graph" transform="scale(1 1) rotate(0) translate(4 647)">
<title>GeodesicHeatMetric&lt; PT, PD &gt;</title>
<!-- Node1 -->
<g id="Node000001" class="node">
<title>Node1</title>
<g id="a_Node000001"><a xlink:title="A class for computing geodesic distances using heat diffusion&#45;based method.">
<polygon fill="#999999" stroke="transparent" points="189,-75 61,-75 61,0 189,0 189,-75"/>
<text text-anchor="start" x="75" y="-62.5" font-family="Helvetica,sans-Serif" font-size="10.00">GeodesicHeatMetric</text>
<text text-anchor="start" x="97.5" y="-51.5" font-family="Helvetica,sans-Serif" font-size="10.00">&lt; PT, PD &gt;</text>
<text text-anchor="start" x="65" y="-36.5" font-family="Helvetica,sans-Serif" font-size="10.00">#</text>
<text text-anchor="start" x="78" y="-36.5" font-family="Helvetica,sans-Serif" font-size="10.00">data_heat</text>
<text text-anchor="start" x="65" y="-21.5" font-family="Helvetica,sans-Serif" font-size="10.00">+</text>
<text text-anchor="start" x="78" y="-21.5" font-family="Helvetica,sans-Serif" font-size="10.00">GeodesicHeatMetric()</text>
<text text-anchor="start" x="65" y="-6.5" font-family="Helvetica,sans-Serif" font-size="10.00">+</text>
<text text-anchor="start" x="78" y="-6.5" font-family="Helvetica,sans-Serif" font-size="10.00">computeDistances()</text>
<polygon fill="#666666" stroke="#666666" points="61,-46.5 61,-46.5 189,-46.5 189,-46.5 61,-46.5"/>
<polygon fill="#666666" stroke="#666666" points="61,-31.5 61,-31.5 76,-31.5 76,-31.5 61,-31.5"/>
<polygon fill="#666666" stroke="#666666" points="76,-31.5 76,-31.5 189,-31.5 189,-31.5 76,-31.5"/>
<polygon fill="none" stroke="#666666" points="61,0 61,-75 189,-75 189,0 61,0"/>
</a>
</g>
</g>
<!-- Node2 -->
<g id="Node000002" class="node">
<title>Node2</title>
<g id="a_Node000002"><a xlink:href="classGeodesicMetric.html" target="_top" xlink:title="A class for computing geodesic distances on a mesh with Dijkstra&#39;s algorithm.">
<polygon fill="white" stroke="transparent" points="206,-352 44,-352 44,-112 206,-112 206,-352"/>
<text text-anchor="start" x="73.5" y="-340" font-family="Helvetica,sans-Serif" font-size="10.00">GeodesicMetric&lt; PT,</text>
<text text-anchor="start" x="111" y="-329" font-family="Helvetica,sans-Serif" font-size="10.00"> PD &gt;</text>
<text text-anchor="start" x="48" y="-314" font-family="Helvetica,sans-Serif" font-size="10.00">#</text>
<text text-anchor="start" x="61" y="-314" font-family="Helvetica,sans-Serif" font-size="10.00">distances</text>
<text text-anchor="start" x="48" y="-299" font-family="Helvetica,sans-Serif" font-size="10.00">#</text>
<text text-anchor="start" x="61" y="-299" font-family="Helvetica,sans-Serif" font-size="10.00">oldPoints</text>
<text text-anchor="start" x="48" y="-284" font-family="Helvetica,sans-Serif" font-size="10.00">#</text>
<text text-anchor="start" x="61" y="-284" font-family="Helvetica,sans-Serif" font-size="10.00">avgDistances</text>
<text text-anchor="start" x="48" y="-269" font-family="Helvetica,sans-Serif" font-size="10.00">+</text>
<text text-anchor="start" x="61" y="-269" font-family="Helvetica,sans-Serif" font-size="10.00">GeodesicMetric()</text>
<text text-anchor="start" x="48" y="-254" font-family="Helvetica,sans-Serif" font-size="10.00">+</text>
<text text-anchor="start" x="61" y="-254" font-family="Helvetica,sans-Serif" font-size="10.00">setup()</text>
<text text-anchor="start" x="48" y="-239" font-family="Helvetica,sans-Serif" font-size="10.00">+</text>
<text text-anchor="start" x="61" y="-239" font-family="Helvetica,sans-Serif" font-size="10.00">fit_cpu()</text>
<text text-anchor="start" x="48" y="-224" font-family="Helvetica,sans-Serif" font-size="10.00">+</text>
<text text-anchor="start" x="61" y="-224" font-family="Helvetica,sans-Serif" font-size="10.00">findClosestFace()</text>
<text text-anchor="start" x="48" y="-209" font-family="Helvetica,sans-Serif" font-size="10.00">+</text>
<text text-anchor="start" x="61" y="-209" font-family="Helvetica,sans-Serif" font-size="10.00">getPoints()</text>
<text text-anchor="start" x="48" y="-194" font-family="Helvetica,sans-Serif" font-size="10.00">#</text>
<text text-anchor="start" x="61" y="-194" font-family="Helvetica,sans-Serif" font-size="10.00">computeEuclideanDistance()</text>
<text text-anchor="start" x="48" y="-179" font-family="Helvetica,sans-Serif" font-size="10.00">#</text>
<text text-anchor="start" x="61" y="-179" font-family="Helvetica,sans-Serif" font-size="10.00">computeDistances()</text>
<text text-anchor="start" x="48" y="-164" font-family="Helvetica,sans-Serif" font-size="10.00">#</text>
<text text-anchor="start" x="61" y="-164" font-family="Helvetica,sans-Serif" font-size="10.00">storeCentroids()</text>
<text text-anchor="start" x="48" y="-149" font-family="Helvetica,sans-Serif" font-size="10.00">#</text>
<text text-anchor="start" x="61" y="-149" font-family="Helvetica,sans-Serif" font-size="10.00">dihedralAngle()</text>
<text text-anchor="start" x="48" y="-134" font-family="Helvetica,sans-Serif" font-size="10.00">#</text>
<text text-anchor="start" x="61" y="-134" font-family="Helvetica,sans-Serif" font-size="10.00">setupAvg()</text>
<text text-anchor="start" x="48" y="-119" font-family="Helvetica,sans-Serif" font-size="10.00">#</text>
<text text-anchor="start" x="61" y="-119" font-family="Helvetica,sans-Serif" font-size="10.00">checkConvergence()</text>
<polygon fill="#666666" stroke="#666666" points="44,-324 44,-324 206,-324 206,-324 44,-324"/>
<polygon fill="#666666" stroke="#666666" points="44,-279 44,-279 59,-279 59,-279 44,-279"/>
<polygon fill="#666666" stroke="#666666" points="59,-279 59,-279 206,-279 206,-279 59,-279"/>
<polygon fill="none" stroke="#666666" points="44,-112 44,-352 206,-352 206,-112 44,-112"/>
</a>
</g>
</g>
<!-- Node2&#45;&gt;Node1 -->
<g id="edge1_Node000001_Node000002" class="edge">
<title>Node2&#45;&gt;Node1</title>
<g id="a_edge1_Node000001_Node000002"><a xlink:title=" ">
<path fill="none" stroke="#63b8ff" d="M125,-101.73C125,-92.2 125,-83.16 125,-75.06"/>
<polygon fill="none" stroke="#63b8ff" points="121.5,-101.83 125,-111.83 128.5,-101.83 121.5,-101.83"/>
</a>
</g>
</g>
<!-- Node3 -->
<g id="Node000003" class="node">
<title>Node3</title>
<g id="a_Node000003"><a xlink:href="classMetric.html" target="_top" xlink:title="Abstract class representing a generic metric for calculating distances.">
<polygon fill="white" stroke="transparent" points="100,-643 0,-643 0,-399 100,-399 100,-643"/>
<text text-anchor="start" x="7.5" y="-631" font-family="Helvetica,sans-Serif" font-size="10.00">Metric&lt; PT, PD &gt;</text>
<text text-anchor="start" x="4" y="-616" font-family="Helvetica,sans-Serif" font-size="10.00">#</text>
<text text-anchor="start" x="17" y="-616" font-family="Helvetica,sans-Serif" font-size="10.00">threshold</text>
<text text-anchor="start" x="4" y="-601" font-family="Helvetica,sans-Serif" font-size="10.00">#</text>
<text text-anchor="start" x="17" y="-601" font-family="Helvetica,sans-Serif" font-size="10.00">oldCentroids</text>
<text text-anchor="start" x="4" y="-586" font-family="Helvetica,sans-Serif" font-size="10.00">#</text>
<text text-anchor="start" x="17" y="-586" font-family="Helvetica,sans-Serif" font-size="10.00">centroids</text>
<text text-anchor="start" x="4" y="-571" font-family="Helvetica,sans-Serif" font-size="10.00">#</text>
<text text-anchor="start" x="17" y="-571" font-family="Helvetica,sans-Serif" font-size="10.00">data</text>
<text text-anchor="start" x="4" y="-556" font-family="Helvetica,sans-Serif" font-size="10.00">+</text>
<text text-anchor="start" x="17" y="-556" font-family="Helvetica,sans-Serif" font-size="10.00">Metric()</text>
<text text-anchor="start" x="4" y="-541" font-family="Helvetica,sans-Serif" font-size="10.00">+</text>
<text text-anchor="start" x="17" y="-541" font-family="Helvetica,sans-Serif" font-size="10.00">Metric()</text>
<text text-anchor="start" x="4" y="-526" font-family="Helvetica,sans-Serif" font-size="10.00">+</text>
<text text-anchor="start" x="17" y="-526" font-family="Helvetica,sans-Serif" font-size="10.00">Metric()</text>
<text text-anchor="start" x="4" y="-511" font-family="Helvetica,sans-Serif" font-size="10.00">+</text>
<text text-anchor="start" x="17" y="-511" font-family="Helvetica,sans-Serif" font-size="10.00">~Metric()</text>
<text text-anchor="start" x="4" y="-496" font-family="Helvetica,sans-Serif" font-size="10.00">+</text>
<text text-anchor="start" x="17" y="-496" font-family="Helvetica,sans-Serif" font-size="10.00">setup()</text>
<text text-anchor="start" x="4" y="-481" font-family="Helvetica,sans-Serif" font-size="10.00">+</text>
<text text-anchor="start" x="17" y="-481" font-family="Helvetica,sans-Serif" font-size="10.00">setCentroids()</text>
<text text-anchor="start" x="4" y="-466" font-family="Helvetica,sans-Serif" font-size="10.00">+</text>
<text text-anchor="start" x="17" y="-466" font-family="Helvetica,sans-Serif" font-size="10.00">fit_cpu()</text>
<text text-anchor="start" x="4" y="-451" font-family="Helvetica,sans-Serif" font-size="10.00">+</text>
<text text-anchor="start" x="17" y="-451" font-family="Helvetica,sans-Serif" font-size="10.00">setPoints()</text>
<text text-anchor="start" x="4" y="-436" font-family="Helvetica,sans-Serif" font-size="10.00">+</text>
<text text-anchor="start" x="17" y="-436" font-family="Helvetica,sans-Serif" font-size="10.00">getPoints()</text>
<text text-anchor="start" x="4" y="-421" font-family="Helvetica,sans-Serif" font-size="10.00">+</text>
<text text-anchor="start" x="17" y="-421" font-family="Helvetica,sans-Serif" font-size="10.00">resetCentroids()</text>
<text text-anchor="start" x="4" y="-406" font-family="Helvetica,sans-Serif" font-size="10.00">#</text>
<text text-anchor="start" x="17" y="-406" font-family="Helvetica,sans-Serif" font-size="10.00">storeCentroids()</text>
<polygon fill="#666666" stroke="#666666" points="0,-626 0,-626 100,-626 100,-626 0,-626"/>
<polygon fill="#666666" stroke="#666666" points="0,-566 0,-566 15,-566 15,-566 0,-566"/>
<polygon fill="#666666" stroke="#666666" points="15,-566 15,-566 100,-566 100,-566 15,-566"/>
<polygon fill="none" stroke="#666666" points="0,-399 0,-643 100,-643 100,-399 0,-399"/>
</a>
</g>
</g>
<!-- Node3&#45;&gt;Node2 -->
<g id="edge2_Node000002_Node000003" class="edge">
<title>Node3&#45;&gt;Node2</title>
<g id="a_edge2_Node000002_Node000003"><a xlink:title=" ">
<path fill="none" stroke="#63b8ff" d="M84.26,-388.88C87.47,-376.6 90.72,-364.2 93.89,-352.03"/>
<polygon fill="none" stroke="#63b8ff" points="80.84,-388.14 81.7,-398.7 87.61,-389.91 80.84,-388.14"/>
</a>
</g>
</g>
<!-- Node4 -->
<g id="Node000004" class="node">
<title>Node4</title>
<g id="a_Node000004"><a xlink:href="classMesh.html" target="_top" xlink:title="Represents a 3D mesh composed of vertices, faces, and adjacency relationships.">
<polygon fill="white" stroke="transparent" points="281.5,-626 118.5,-626 118.5,-416 281.5,-416 281.5,-626"/>
<text text-anchor="start" x="187" y="-614" font-family="Helvetica,sans-Serif" font-size="10.00">Mesh</text>
<text text-anchor="start" x="198.5" y="-599" font-family="Helvetica,sans-Serif" font-size="10.00"> </text>
<text text-anchor="start" x="123" y="-584" font-family="Helvetica,sans-Serif" font-size="10.00">+</text>
<text text-anchor="start" x="136" y="-584" font-family="Helvetica,sans-Serif" font-size="10.00">Mesh()</text>
<text text-anchor="start" x="123" y="-569" font-family="Helvetica,sans-Serif" font-size="10.00">+</text>
<text text-anchor="start" x="136" y="-569" font-family="Helvetica,sans-Serif" font-size="10.00">Mesh()</text>
<text text-anchor="start" x="123" y="-554" font-family="Helvetica,sans-Serif" font-size="10.00">+</text>
<text text-anchor="start" x="136" y="-554" font-family="Helvetica,sans-Serif" font-size="10.00">createSegmentationFromSeg</text>
<text text-anchor="start" x="136" y="-543" font-family="Helvetica,sans-Serif" font-size="10.00">File()</text>
<text text-anchor="start" x="123" y="-528" font-family="Helvetica,sans-Serif" font-size="10.00">+</text>
<text text-anchor="start" x="136" y="-528" font-family="Helvetica,sans-Serif" font-size="10.00">buildFaceAdjacency()</text>
<text text-anchor="start" x="123" y="-513" font-family="Helvetica,sans-Serif" font-size="10.00">+</text>
<text text-anchor="start" x="136" y="-513" font-family="Helvetica,sans-Serif" font-size="10.00">getFaceCluster()</text>
<text text-anchor="start" x="123" y="-498" font-family="Helvetica,sans-Serif" font-size="10.00">+</text>
<text text-anchor="start" x="136" y="-498" font-family="Helvetica,sans-Serif" font-size="10.00">setFaceCluster()</text>
<text text-anchor="start" x="123" y="-483" font-family="Helvetica,sans-Serif" font-size="10.00">+</text>
<text text-anchor="start" x="136" y="-483" font-family="Helvetica,sans-Serif" font-size="10.00">getMeshFacesPoints()</text>
<text text-anchor="start" x="123" y="-468" font-family="Helvetica,sans-Serif" font-size="10.00">+</text>
<text text-anchor="start" x="136" y="-468" font-family="Helvetica,sans-Serif" font-size="10.00">getFace()</text>
<text text-anchor="start" x="123" y="-453" font-family="Helvetica,sans-Serif" font-size="10.00">+</text>
<text text-anchor="start" x="136" y="-453" font-family="Helvetica,sans-Serif" font-size="10.00">numFaces()</text>
<text text-anchor="start" x="123" y="-438" font-family="Helvetica,sans-Serif" font-size="10.00">+</text>
<text text-anchor="start" x="136" y="-438" font-family="Helvetica,sans-Serif" font-size="10.00">getVertices()</text>
<text text-anchor="start" x="136" y="-423" font-family="Helvetica,sans-Serif" font-size="10.00">and 8 more...</text>
<polygon fill="#666666" stroke="#666666" points="119,-609 119,-609 282,-609 282,-609 119,-609"/>
<polygon fill="#666666" stroke="#666666" points="119,-594 119,-594 282,-594 282,-594 119,-594"/>
<polygon fill="none" stroke="#666666" points="118.5,-416 118.5,-626 281.5,-626 281.5,-416 118.5,-416"/>
</a>
</g>
</g>
<!-- Node4&#45;&gt;Node2 -->
<g id="edge3_Node000002_Node000004" class="edge">
<title>Node4&#45;&gt;Node2</title>
<g id="a_edge3_Node000002_Node000004"><a xlink:title=" ">
<path fill="none" stroke="#63b8ff" d="M172.82,-415.98C168.4,-399.09 163.78,-381.4 159.22,-363.96"/>
<polygon fill="none" stroke="#63b8ff" points="159.2,-363.86 153.81,-359.06 156.16,-352.25 161.55,-357.04 159.2,-363.86"/>
</a>
</g>
<text text-anchor="middle" x="182.5" y="-373" font-family="Helvetica,sans-Serif" font-size="10.00" fill="grey"> #mesh</text>
</g>
</g>
</svg>
