<?xml version="1.0" encoding="UTF-8" standalone="no"?>
<!DOCTYPE svg PUBLIC "-//W3C//DTD SVG 1.1//EN"
 "http://www.w3.org/Graphics/SVG/1.1/DTD/svg11.dtd">
<!-- Generated by graphviz version 2.43.0 (0)
 -->
<!-- Title: ElbowMethod&lt; PT, PD, M &gt; Pages: 1 -->
<svg width="154pt" height="187pt"
 viewBox="0.00 0.00 154.00 187.00" xmlns="http://www.w3.org/2000/svg" xmlns:xlink="http://www.w3.org/1999/xlink">
<g id="graph0" class="graph" transform="scale(1 1) rotate(0) translate(4 183)">
<title>ElbowMethod&lt; PT, PD, M &gt;</title>
<!-- Node1 -->
<g id="Node000001" class="node">
<title>Node1</title>
<g id="a_Node000001"><a xlink:title=" ">
<polygon fill="#999999" stroke="transparent" points="146,-64 0,-64 0,0 146,0 146,-64"/>
<text text-anchor="start" x="5" y="-52" font-family="Helvetica,sans-Serif" font-size="10.00">ElbowMethod&lt; PT, PD, M &gt;</text>
<text text-anchor="start" x="71" y="-37" font-family="Helvetica,sans-Serif" font-size="10.00"> </text>
<text text-anchor="start" x="16.5" y="-22" font-family="Helvetica,sans-Serif" font-size="10.00">+</text>
<text text-anchor="start" x="42" y="-22" font-family="Helvetica,sans-Serif" font-size="10.00">ElbowMethod()</text>
<text text-anchor="start" x="16.5" y="-7" font-family="Helvetica,sans-Serif" font-size="10.00">+</text>
<text text-anchor="start" x="42" y="-7" font-family="Helvetica,sans-Serif" font-size="10.00">findK()</text>
<polygon fill="#666666" stroke="#666666" points="0,-47 0,-47 146,-47 146,-47 0,-47"/>
<polygon fill="#666666" stroke="#666666" points="0,-32 0,-32 146,-32 146,-32 0,-32"/>
<polygon fill="none" stroke="#666666" points="0,0 0,-64 146,-64 146,0 0,0"/>
</a>
</g>
</g>
<!-- Node2 -->
<g id="Node000002" class="node">
<title>Node2</title>
<g id="a_Node000002"><a xlink:href="classKinit.html" target="_top" xlink:title="Abstract base class for determining the optimal number of clusters (k).">
<polygon fill="white" stroke="transparent" points="124,-179 22,-179 22,-100 124,-100 124,-179"/>
<text text-anchor="start" x="27" y="-166.5" font-family="Helvetica,sans-Serif" font-size="10.00">Kinit&lt; PT, PD, M &gt;</text>
<text text-anchor="start" x="32.5" y="-151.5" font-family="Helvetica,sans-Serif" font-size="10.00">#</text>
<text text-anchor="start" x="52" y="-151.5" font-family="Helvetica,sans-Serif" font-size="10.00">m_kMeans</text>
<text text-anchor="start" x="32.5" y="-136.5" font-family="Helvetica,sans-Serif" font-size="10.00">+</text>
<text text-anchor="start" x="52" y="-136.5" font-family="Helvetica,sans-Serif" font-size="10.00">Kinit()</text>
<text text-anchor="start" x="32.5" y="-121.5" font-family="Helvetica,sans-Serif" font-size="10.00">+</text>
<text text-anchor="start" x="52" y="-121.5" font-family="Helvetica,sans-Serif" font-size="10.00">~Kinit()</text>
<text text-anchor="start" x="32.5" y="-106.5" font-family="Helvetica,sans-Serif" font-size="10.00">+</text>
<text text-anchor="start" x="52" y="-106.5" font-family="Helvetica,sans-Serif" font-size="10.00">findK()</text>
<polygon fill="#666666" stroke="#666666" points="22,-161.5 22,-161.5 124,-161.5 124,-161.5 22,-161.5"/>
<polygon fill="#666666" stroke="#666666" points="22,-146.5 22,-146.5 50,-146.5 50,-146.5 22,-146.5"/>
<polygon fill="#666666" stroke="#666666" points="50,-146.5 50,-146.5 124,-146.5 124,-146.5 50,-146.5"/>
<polygon fill="none" stroke="#666666" points="22,-100 22,-179 124,-179 124,-100 22,-100"/>
</a>
</g>
</g>
<!-- Node2&#45;&gt;Node1 -->
<g id="edge1_Node000001_Node000002" class="edge">
<title>Node2&#45;&gt;Node1</title>
<g id="a_edge1_Node000001_Node000002"><a xlink:title=" ">
<path fill="none" stroke="#63b8ff" d="M73,-89.71C73,-81 73,-72.14 73,-64.09"/>
<polygon fill="none" stroke="#63b8ff" points="69.5,-89.81 73,-99.81 76.5,-89.81 69.5,-89.81"/>
</a>
</g>
</g>
</g>
</svg>
