<?xml version="1.0" encoding="UTF-8" standalone="no"?>
<!DOCTYPE svg PUBLIC "-//W3C//DTD SVG 1.1//EN"
 "http://www.w3.org/Graphics/SVG/1.1/DTD/svg11.dtd">
<!-- Generated by graphviz version 2.43.0 (0)
 -->
<!-- Title: GeodesicMetric&lt; PT, PD &gt; Pages: 1 -->
<svg width="290pt" height="565pt"
 viewBox="0.00 0.00 289.50 565.00" xmlns="http://www.w3.org/2000/svg" xmlns:xlink="http://www.w3.org/1999/xlink">
<g id="graph0" class="graph" transform="scale(1 1) rotate(0) translate(4 561)">
<title>GeodesicMetric&lt; PT, PD &gt;</title>
<!-- Node1 -->
<g id="Node000001" class="node">
<title>Node1</title>
<g id="a_Node000001"><a xlink:title=" ">
<polygon fill="#999999" stroke="transparent" points="206,-240 44,-240 44,0 206,0 206,-240"/>
<text text-anchor="start" x="73.5" y="-228" font-family="Helvetica,sans-Serif" font-size="10.00">GeodesicMetric&lt; PT,</text>
<text text-anchor="start" x="111" y="-217" font-family="Helvetica,sans-Serif" font-size="10.00"> PD &gt;</text>
<text text-anchor="start" x="48" y="-202" font-family="Helvetica,sans-Serif" font-size="10.00">#</text>
<text text-anchor="start" x="61" y="-202" font-family="Helvetica,sans-Serif" font-size="10.00">distances</text>
<text text-anchor="start" x="48" y="-187" font-family="Helvetica,sans-Serif" font-size="10.00">#</text>
<text text-anchor="start" x="61" y="-187" font-family="Helvetica,sans-Serif" font-size="10.00">oldPoints</text>
<text text-anchor="start" x="48" y="-172" font-family="Helvetica,sans-Serif" font-size="10.00">#</text>
<text text-anchor="start" x="61" y="-172" font-family="Helvetica,sans-Serif" font-size="10.00">avgDistances</text>
<text text-anchor="start" x="48" y="-157" font-family="Helvetica,sans-Serif" font-size="10.00">+</text>
<text text-anchor="start" x="61" y="-157" font-family="Helvetica,sans-Serif" font-size="10.00">GeodesicMetric()</text>
<text text-anchor="start" x="48" y="-142" font-family="Helvetica,sans-Serif" font-size="10.00">+</text>
<text text-anchor="start" x="61" y="-142" font-family="Helvetica,sans-Serif" font-size="10.00">setup()</text>
<text text-anchor="start" x="48" y="-127" font-family="Helvetica,sans-Serif" font-size="10.00">+</text>
<text text-anchor="start" x="61" y="-127" font-family="Helvetica,sans-Serif" font-size="10.00">fit_cpu()</text>
<text text-anchor="start" x="48" y="-112" font-family="Helvetica,sans-Serif" font-size="10.00">+</text>
<text text-anchor="start" x="61" y="-112" font-family="Helvetica,sans-Serif" font-size="10.00">findClosestFace()</text>
<text text-anchor="start" x="48" y="-97" font-family="Helvetica,sans-Serif" font-size="10.00">+</text>
<text text-anchor="start" x="61" y="-97" font-family="Helvetica,sans-Serif" font-size="10.00">getPoints()</text>
<text text-anchor="start" x="48" y="-82" font-family="Helvetica,sans-Serif" font-size="10.00">#</text>
<text text-anchor="start" x="61" y="-82" font-family="Helvetica,sans-Serif" font-size="10.00">computeEuclideanDistance()</text>
<text text-anchor="start" x="48" y="-67" font-family="Helvetica,sans-Serif" font-size="10.00">#</text>
<text text-anchor="start" x="61" y="-67" font-family="Helvetica,sans-Serif" font-size="10.00">computeDistances()</text>
<text text-anchor="start" x="48" y="-52" font-family="Helvetica,sans-Serif" font-size="10.00">#</text>
<text text-anchor="start" x="61" y="-52" font-family="Helvetica,sans-Serif" font-size="10.00">storeCentroids()</text>
<text text-anchor="start" x="48" y="-37" font-family="Helvetica,sans-Serif" font-size="10.00">#</text>
<text text-anchor="start" x="61" y="-37" font-family="Helvetica,sans-Serif" font-size="10.00">dihedralAngle()</text>
<text text-anchor="start" x="48" y="-22" font-family="Helvetica,sans-Serif" font-size="10.00">#</text>
<text text-anchor="start" x="61" y="-22" font-family="Helvetica,sans-Serif" font-size="10.00">setupAvg()</text>
<text text-anchor="start" x="48" y="-7" font-family="Helvetica,sans-Serif" font-size="10.00">#</text>
<text text-anchor="start" x="61" y="-7" font-family="Helvetica,sans-Serif" font-size="10.00">checkConvergence()</text>
<polygon fill="#666666" stroke="#666666" points="44,-212 44,-212 206,-212 206,-212 44,-212"/>
<polygon fill="#666666" stroke="#666666" points="44,-167 44,-167 59,-167 59,-167 44,-167"/>
<polygon fill="#666666" stroke="#666666" points="59,-167 59,-167 206,-167 206,-167 59,-167"/>
<polygon fill="none" stroke="#666666" points="44,0 44,-240 206,-240 206,0 44,0"/>
</a>
</g>
</g>
<!-- Node2 -->
<g id="Node000002" class="node">
<title>Node2</title>
<g id="a_Node000002"><a xlink:href="classMetric.html" target="_top" xlink:title=" ">
<polygon fill="white" stroke="transparent" points="100,-544 0,-544 0,-300 100,-300 100,-544"/>
<text text-anchor="start" x="7.5" y="-532" font-family="Helvetica,sans-Serif" font-size="10.00">Metric&lt; PT, PD &gt;</text>
<text text-anchor="start" x="4" y="-517" font-family="Helvetica,sans-Serif" font-size="10.00">#</text>
<text text-anchor="start" x="17" y="-517" font-family="Helvetica,sans-Serif" font-size="10.00">threshold</text>
<text text-anchor="start" x="4" y="-502" font-family="Helvetica,sans-Serif" font-size="10.00">#</text>
<text text-anchor="start" x="17" y="-502" font-family="Helvetica,sans-Serif" font-size="10.00">oldCentroids</text>
<text text-anchor="start" x="4" y="-487" font-family="Helvetica,sans-Serif" font-size="10.00">#</text>
<text text-anchor="start" x="17" y="-487" font-family="Helvetica,sans-Serif" font-size="10.00">centroids</text>
<text text-anchor="start" x="4" y="-472" font-family="Helvetica,sans-Serif" font-size="10.00">#</text>
<text text-anchor="start" x="17" y="-472" font-family="Helvetica,sans-Serif" font-size="10.00">data</text>
<text text-anchor="start" x="4" y="-457" font-family="Helvetica,sans-Serif" font-size="10.00">+</text>
<text text-anchor="start" x="17" y="-457" font-family="Helvetica,sans-Serif" font-size="10.00">Metric()</text>
<text text-anchor="start" x="4" y="-442" font-family="Helvetica,sans-Serif" font-size="10.00">+</text>
<text text-anchor="start" x="17" y="-442" font-family="Helvetica,sans-Serif" font-size="10.00">Metric()</text>
<text text-anchor="start" x="4" y="-427" font-family="Helvetica,sans-Serif" font-size="10.00">+</text>
<text text-anchor="start" x="17" y="-427" font-family="Helvetica,sans-Serif" font-size="10.00">Metric()</text>
<text text-anchor="start" x="4" y="-412" font-family="Helvetica,sans-Serif" font-size="10.00">+</text>
<text text-anchor="start" x="17" y="-412" font-family="Helvetica,sans-Serif" font-size="10.00">~Metric()</text>
<text text-anchor="start" x="4" y="-397" font-family="Helvetica,sans-Serif" font-size="10.00">+</text>
<text text-anchor="start" x="17" y="-397" font-family="Helvetica,sans-Serif" font-size="10.00">setup()</text>
<text text-anchor="start" x="4" y="-382" font-family="Helvetica,sans-Serif" font-size="10.00">+</text>
<text text-anchor="start" x="17" y="-382" font-family="Helvetica,sans-Serif" font-size="10.00">setCentroids()</text>
<text text-anchor="start" x="4" y="-367" font-family="Helvetica,sans-Serif" font-size="10.00">+</text>
<text text-anchor="start" x="17" y="-367" font-family="Helvetica,sans-Serif" font-size="10.00">fit_cpu()</text>
<text text-anchor="start" x="4" y="-352" font-family="Helvetica,sans-Serif" font-size="10.00">+</text>
<text text-anchor="start" x="17" y="-352" font-family="Helvetica,sans-Serif" font-size="10.00">setPoints()</text>
<text text-anchor="start" x="4" y="-337" font-family="Helvetica,sans-Serif" font-size="10.00">+</text>
<text text-anchor="start" x="17" y="-337" font-family="Helvetica,sans-Serif" font-size="10.00">getPoints()</text>
<text text-anchor="start" x="4" y="-322" font-family="Helvetica,sans-Serif" font-size="10.00">+</text>
<text text-anchor="start" x="17" y="-322" font-family="Helvetica,sans-Serif" font-size="10.00">resetCentroids()</text>
<text text-anchor="start" x="4" y="-307" font-family="Helvetica,sans-Serif" font-size="10.00">#</text>
<text text-anchor="start" x="17" y="-307" font-family="Helvetica,sans-Serif" font-size="10.00">storeCentroids()</text>
<polygon fill="#666666" stroke="#666666" points="0,-527 0,-527 100,-527 100,-527 0,-527"/>
<polygon fill="#666666" stroke="#666666" points="0,-467 0,-467 15,-467 15,-467 0,-467"/>
<polygon fill="#666666" stroke="#666666" points="15,-467 15,-467 100,-467 100,-467 15,-467"/>
<polygon fill="none" stroke="#666666" points="0,-300 0,-544 100,-544 100,-300 0,-300"/>
</a>
</g>
</g>
<!-- Node2&#45;&gt;Node1 -->
<g id="edge1_Node000001_Node000002" class="edge">
<title>Node2&#45;&gt;Node1</title>
<g id="a_edge1_Node000001_Node000002"><a xlink:title=" ">
<path fill="none" stroke="#63b8ff" d="M82.72,-290.11C86.87,-273.5 91.1,-256.58 95.21,-240.17"/>
<polygon fill="none" stroke="#63b8ff" points="79.32,-289.29 80.29,-299.84 86.11,-290.99 79.32,-289.29"/>
</a>
</g>
</g>
<!-- Node3 -->
<g id="Node000003" class="node">
<title>Node3</title>
<g id="a_Node000003"><a xlink:href="classMesh.html" target="_top" xlink:title=" ">
<polygon fill="white" stroke="transparent" points="281.5,-557 118.5,-557 118.5,-287 281.5,-287 281.5,-557"/>
<text text-anchor="start" x="187" y="-545" font-family="Helvetica,sans-Serif" font-size="10.00">Mesh</text>
<text text-anchor="start" x="198.5" y="-530" font-family="Helvetica,sans-Serif" font-size="10.00"> </text>
<text text-anchor="start" x="123" y="-515" font-family="Helvetica,sans-Serif" font-size="10.00">+</text>
<text text-anchor="start" x="136" y="-515" font-family="Helvetica,sans-Serif" font-size="10.00">Mesh()</text>
<text text-anchor="start" x="123" y="-500" font-family="Helvetica,sans-Serif" font-size="10.00">+</text>
<text text-anchor="start" x="136" y="-500" font-family="Helvetica,sans-Serif" font-size="10.00">createSegmentationFromSeg</text>
<text text-anchor="start" x="136" y="-489" font-family="Helvetica,sans-Serif" font-size="10.00">File()</text>
<text text-anchor="start" x="123" y="-474" font-family="Helvetica,sans-Serif" font-size="10.00">+</text>
<text text-anchor="start" x="136" y="-474" font-family="Helvetica,sans-Serif" font-size="10.00">buildFaceAdjacency()</text>
<text text-anchor="start" x="123" y="-459" font-family="Helvetica,sans-Serif" font-size="10.00">+</text>
<text text-anchor="start" x="136" y="-459" font-family="Helvetica,sans-Serif" font-size="10.00">getFaceCluster()</text>
<text text-anchor="start" x="123" y="-444" font-family="Helvetica,sans-Serif" font-size="10.00">+</text>
<text text-anchor="start" x="136" y="-444" font-family="Helvetica,sans-Serif" font-size="10.00">setFaceCluster()</text>
<text text-anchor="start" x="123" y="-429" font-family="Helvetica,sans-Serif" font-size="10.00">+</text>
<text text-anchor="start" x="136" y="-429" font-family="Helvetica,sans-Serif" font-size="10.00">getMeshFacesPoints()</text>
<text text-anchor="start" x="123" y="-414" font-family="Helvetica,sans-Serif" font-size="10.00">+</text>
<text text-anchor="start" x="136" y="-414" font-family="Helvetica,sans-Serif" font-size="10.00">getFace()</text>
<text text-anchor="start" x="123" y="-399" font-family="Helvetica,sans-Serif" font-size="10.00">+</text>
<text text-anchor="start" x="136" y="-399" font-family="Helvetica,sans-Serif" font-size="10.00">numFaces()</text>
<text text-anchor="start" x="123" y="-384" font-family="Helvetica,sans-Serif" font-size="10.00">+</text>
<text text-anchor="start" x="136" y="-384" font-family="Helvetica,sans-Serif" font-size="10.00">getVertices()</text>
<text text-anchor="start" x="123" y="-369" font-family="Helvetica,sans-Serif" font-size="10.00">+</text>
<text text-anchor="start" x="136" y="-369" font-family="Helvetica,sans-Serif" font-size="10.00">getFaceAdjacencyAt()</text>
<text text-anchor="start" x="123" y="-354" font-family="Helvetica,sans-Serif" font-size="10.00">+</text>
<text text-anchor="start" x="136" y="-354" font-family="Helvetica,sans-Serif" font-size="10.00">exportToObj()</text>
<text text-anchor="start" x="123" y="-339" font-family="Helvetica,sans-Serif" font-size="10.00">+</text>
<text text-anchor="start" x="136" y="-339" font-family="Helvetica,sans-Serif" font-size="10.00">exportToGroupedObj()</text>
<text text-anchor="start" x="123" y="-324" font-family="Helvetica,sans-Serif" font-size="10.00">+</text>
<text text-anchor="start" x="136" y="-324" font-family="Helvetica,sans-Serif" font-size="10.00">getMeshVertices()</text>
<text text-anchor="start" x="123" y="-309" font-family="Helvetica,sans-Serif" font-size="10.00">+</text>
<text text-anchor="start" x="136" y="-309" font-family="Helvetica,sans-Serif" font-size="10.00">getFaceAdjacency()</text>
<text text-anchor="start" x="123" y="-294" font-family="Helvetica,sans-Serif" font-size="10.00">+</text>
<text text-anchor="start" x="136" y="-294" font-family="Helvetica,sans-Serif" font-size="10.00">getMeshFaces()</text>
<polygon fill="#bfbfbf" stroke="#bfbfbf" points="119,-540 119,-540 282,-540 282,-540 119,-540"/>
<polygon fill="#bfbfbf" stroke="#bfbfbf" points="119,-525 119,-525 282,-525 282,-525 119,-525"/>
<polygon fill="none" stroke="#bfbfbf" points="118.5,-287 118.5,-557 281.5,-557 281.5,-287 118.5,-287"/>
</a>
</g>
</g>
<!-- Node3&#45;&gt;Node1 -->
<g id="edge2_Node000001_Node000003" class="edge">
<title>Node3&#45;&gt;Node1</title>
<g id="a_edge2_Node000001_Node000003"><a xlink:title=" ">
<path fill="none" stroke="#63b8ff" d="M166.45,-286.79C163.58,-275.33 160.69,-263.74 157.83,-252.3"/>
<polygon fill="none" stroke="#63b8ff" points="157.77,-252.09 152.44,-247.24 154.86,-240.45 160.2,-245.3 157.77,-252.09"/>
</a>
</g>
<text text-anchor="middle" x="180.5" y="-261" font-family="Helvetica,sans-Serif" font-size="10.00" fill="grey"> #mesh</text>
</g>
</g>
</svg>
