<?xml version="1.0" encoding="UTF-8" standalone="no"?>
<!DOCTYPE svg PUBLIC "-//W3C//DTD SVG 1.1//EN"
 "http://www.w3.org/Graphics/SVG/1.1/DTD/svg11.dtd">
<!-- Generated by graphviz version 2.43.0 (0)
 -->
<!-- Title: KDE&lt; PD &gt; Pages: 1 -->
<svg width="334pt" height="438pt"
 viewBox="0.00 0.00 333.50 438.00" xmlns="http://www.w3.org/2000/svg" xmlns:xlink="http://www.w3.org/1999/xlink">
<g id="graph0" class="graph" transform="scale(1 1) rotate(0) translate(4 434)">
<title>KDE&lt; PD &gt;</title>
<!-- Node1 -->
<g id="Node000001" class="node">
<title>Node1</title>
<g id="a_Node000001"><a xlink:title="Implements Kernel Density Estimation (KDE) for centroid initialization.">
<polygon fill="#999999" stroke="transparent" points="244.5,-94 81.5,-94 81.5,0 244.5,0 244.5,-94"/>
<text text-anchor="start" x="135" y="-82" font-family="Helvetica,sans-Serif" font-size="10.00">KDE&lt; PD &gt;</text>
<text text-anchor="start" x="161.5" y="-67" font-family="Helvetica,sans-Serif" font-size="10.00"> </text>
<text text-anchor="start" x="86" y="-52" font-family="Helvetica,sans-Serif" font-size="10.00">+</text>
<text text-anchor="start" x="99" y="-52" font-family="Helvetica,sans-Serif" font-size="10.00">KDE()</text>
<text text-anchor="start" x="86" y="-37" font-family="Helvetica,sans-Serif" font-size="10.00">+</text>
<text text-anchor="start" x="99" y="-37" font-family="Helvetica,sans-Serif" font-size="10.00">KDE()</text>
<text text-anchor="start" x="86" y="-22" font-family="Helvetica,sans-Serif" font-size="10.00">+</text>
<text text-anchor="start" x="99" y="-22" font-family="Helvetica,sans-Serif" font-size="10.00">findCentroid()</text>
<text text-anchor="start" x="86" y="-7" font-family="Helvetica,sans-Serif" font-size="10.00">+</text>
<text text-anchor="start" x="99" y="-7" font-family="Helvetica,sans-Serif" font-size="10.00">findLocalWithoutRestriction()</text>
<polygon fill="#666666" stroke="#666666" points="82,-77 82,-77 245,-77 245,-77 82,-77"/>
<polygon fill="#666666" stroke="#666666" points="82,-62 82,-62 245,-62 245,-62 82,-62"/>
<polygon fill="none" stroke="#666666" points="81.5,0 81.5,-94 244.5,-94 244.5,0 81.5,0"/>
</a>
</g>
</g>
<!-- Node2 -->
<g id="Node000002" class="node">
<title>Node2</title>
<g id="a_Node000002"><a xlink:href="classCentroidInitMethod.html" target="_top" xlink:title=" ">
<polygon fill="white" stroke="transparent" points="154,-430 0,-430 0,-130 154,-130 154,-430"/>
<text text-anchor="start" x="30" y="-418" font-family="Helvetica,sans-Serif" font-size="10.00">CentroidInitMethod</text>
<text text-anchor="start" x="39" y="-407" font-family="Helvetica,sans-Serif" font-size="10.00">&lt; double, PD &gt;</text>
<text text-anchor="start" x="4" y="-392" font-family="Helvetica,sans-Serif" font-size="10.00">#</text>
<text text-anchor="start" x="17" y="-392" font-family="Helvetica,sans-Serif" font-size="10.00">m_data</text>
<text text-anchor="start" x="4" y="-377" font-family="Helvetica,sans-Serif" font-size="10.00">#</text>
<text text-anchor="start" x="17" y="-377" font-family="Helvetica,sans-Serif" font-size="10.00">m_k</text>
<text text-anchor="start" x="4" y="-362" font-family="Helvetica,sans-Serif" font-size="10.00">+</text>
<text text-anchor="start" x="17" y="-362" font-family="Helvetica,sans-Serif" font-size="10.00">~CentroidInitMethod()</text>
<text text-anchor="start" x="4" y="-347" font-family="Helvetica,sans-Serif" font-size="10.00">+</text>
<text text-anchor="start" x="17" y="-347" font-family="Helvetica,sans-Serif" font-size="10.00">~CentroidInitMethod()</text>
<text text-anchor="start" x="4" y="-332" font-family="Helvetica,sans-Serif" font-size="10.00">+</text>
<text text-anchor="start" x="17" y="-332" font-family="Helvetica,sans-Serif" font-size="10.00">CentroidInitMethod()</text>
<text text-anchor="start" x="4" y="-317" font-family="Helvetica,sans-Serif" font-size="10.00">+</text>
<text text-anchor="start" x="17" y="-317" font-family="Helvetica,sans-Serif" font-size="10.00">CentroidInitMethod()</text>
<text text-anchor="start" x="4" y="-302" font-family="Helvetica,sans-Serif" font-size="10.00">+</text>
<text text-anchor="start" x="17" y="-302" font-family="Helvetica,sans-Serif" font-size="10.00">CentroidInitMethod()</text>
<text text-anchor="start" x="4" y="-287" font-family="Helvetica,sans-Serif" font-size="10.00">+</text>
<text text-anchor="start" x="17" y="-287" font-family="Helvetica,sans-Serif" font-size="10.00">CentroidInitMethod()</text>
<text text-anchor="start" x="4" y="-272" font-family="Helvetica,sans-Serif" font-size="10.00">+</text>
<text text-anchor="start" x="17" y="-272" font-family="Helvetica,sans-Serif" font-size="10.00">findCentroid()</text>
<text text-anchor="start" x="4" y="-257" font-family="Helvetica,sans-Serif" font-size="10.00">+</text>
<text text-anchor="start" x="17" y="-257" font-family="Helvetica,sans-Serif" font-size="10.00">findCentroid()</text>
<text text-anchor="start" x="4" y="-242" font-family="Helvetica,sans-Serif" font-size="10.00">+</text>
<text text-anchor="start" x="17" y="-242" font-family="Helvetica,sans-Serif" font-size="10.00">exportedMesh()</text>
<text text-anchor="start" x="4" y="-227" font-family="Helvetica,sans-Serif" font-size="10.00">+</text>
<text text-anchor="start" x="17" y="-227" font-family="Helvetica,sans-Serif" font-size="10.00">exportedMesh()</text>
<text text-anchor="start" x="4" y="-212" font-family="Helvetica,sans-Serif" font-size="10.00">+</text>
<text text-anchor="start" x="17" y="-212" font-family="Helvetica,sans-Serif" font-size="10.00">exportedMesh()</text>
<text text-anchor="start" x="4" y="-197" font-family="Helvetica,sans-Serif" font-size="10.00">+</text>
<text text-anchor="start" x="17" y="-197" font-family="Helvetica,sans-Serif" font-size="10.00">exportedMesh()</text>
<text text-anchor="start" x="4" y="-182" font-family="Helvetica,sans-Serif" font-size="10.00">+</text>
<text text-anchor="start" x="17" y="-182" font-family="Helvetica,sans-Serif" font-size="10.00">truncateToThreeDecimals()</text>
<text text-anchor="start" x="4" y="-167" font-family="Helvetica,sans-Serif" font-size="10.00">+</text>
<text text-anchor="start" x="17" y="-167" font-family="Helvetica,sans-Serif" font-size="10.00">truncateToThreeDecimals()</text>
<text text-anchor="start" x="4" y="-152" font-family="Helvetica,sans-Serif" font-size="10.00">#</text>
<text text-anchor="start" x="17" y="-152" font-family="Helvetica,sans-Serif" font-size="10.00">set_k()</text>
<text text-anchor="start" x="4" y="-137" font-family="Helvetica,sans-Serif" font-size="10.00">#</text>
<text text-anchor="start" x="17" y="-137" font-family="Helvetica,sans-Serif" font-size="10.00">set_k()</text>
<polygon fill="#666666" stroke="#666666" points="0,-402 0,-402 154,-402 154,-402 0,-402"/>
<polygon fill="#666666" stroke="#666666" points="0,-372 0,-372 15,-372 15,-372 0,-372"/>
<polygon fill="#666666" stroke="#666666" points="15,-372 15,-372 154,-372 154,-372 15,-372"/>
<polygon fill="none" stroke="#666666" points="0,-130 0,-430 154,-430 154,-130 0,-130"/>
</a>
</g>
</g>
<!-- Node2&#45;&gt;Node1 -->
<g id="edge1_Node000001_Node000002" class="edge">
<title>Node2&#45;&gt;Node1</title>
<g id="a_edge1_Node000001_Node000002"><a xlink:title=" ">
<path fill="none" stroke="#63b8ff" d="M136.06,-120.36C139.51,-111.09 142.8,-102.25 145.82,-94.14"/>
<polygon fill="none" stroke="#63b8ff" points="132.77,-119.17 132.56,-129.77 139.33,-121.62 132.77,-119.17"/>
</a>
</g>
</g>
<!-- Node3 -->
<g id="Node000003" class="node">
<title>Node3</title>
<g id="a_Node000003"><a xlink:href="classKDEBase.html" target="_top" xlink:title="Base class for Kernel Density Estimation (KDE) operations.">
<polygon fill="white" stroke="transparent" points="325.5,-364.5 172.5,-364.5 172.5,-195.5 325.5,-195.5 325.5,-364.5"/>
<text text-anchor="start" x="209" y="-352" font-family="Helvetica,sans-Serif" font-size="10.00">KDEBase&lt; PD &gt;</text>
<text text-anchor="start" x="177" y="-337" font-family="Helvetica,sans-Serif" font-size="10.00">+</text>
<text text-anchor="start" x="190" y="-337" font-family="Helvetica,sans-Serif" font-size="10.00">m_transformedPoints</text>
<text text-anchor="start" x="177" y="-322" font-family="Helvetica,sans-Serif" font-size="10.00">+</text>
<text text-anchor="start" x="190" y="-322" font-family="Helvetica,sans-Serif" font-size="10.00">m_h_sqrt_inv</text>
<text text-anchor="start" x="177" y="-307" font-family="Helvetica,sans-Serif" font-size="10.00">+</text>
<text text-anchor="start" x="190" y="-307" font-family="Helvetica,sans-Serif" font-size="10.00">m_h_det_sqrt</text>
<text text-anchor="start" x="177" y="-292" font-family="Helvetica,sans-Serif" font-size="10.00">+</text>
<text text-anchor="start" x="190" y="-292" font-family="Helvetica,sans-Serif" font-size="10.00">m_h</text>
<text text-anchor="start" x="177" y="-277" font-family="Helvetica,sans-Serif" font-size="10.00">+</text>
<text text-anchor="start" x="190" y="-277" font-family="Helvetica,sans-Serif" font-size="10.00">KDEBase()</text>
<text text-anchor="start" x="177" y="-262" font-family="Helvetica,sans-Serif" font-size="10.00">+</text>
<text text-anchor="start" x="190" y="-262" font-family="Helvetica,sans-Serif" font-size="10.00">~KDEBase()</text>
<text text-anchor="start" x="177" y="-247" font-family="Helvetica,sans-Serif" font-size="10.00">+</text>
<text text-anchor="start" x="190" y="-247" font-family="Helvetica,sans-Serif" font-size="10.00">computeMeanAndStdDev()</text>
<text text-anchor="start" x="177" y="-232" font-family="Helvetica,sans-Serif" font-size="10.00">+</text>
<text text-anchor="start" x="190" y="-232" font-family="Helvetica,sans-Serif" font-size="10.00">bandwidth_RuleOfThumb()</text>
<text text-anchor="start" x="177" y="-217" font-family="Helvetica,sans-Serif" font-size="10.00">+</text>
<text text-anchor="start" x="190" y="-217" font-family="Helvetica,sans-Serif" font-size="10.00">kdeValue()</text>
<text text-anchor="start" x="177" y="-202" font-family="Helvetica,sans-Serif" font-size="10.00">+</text>
<text text-anchor="start" x="190" y="-202" font-family="Helvetica,sans-Serif" font-size="10.00">pointToVector()</text>
<polygon fill="#666666" stroke="#666666" points="173,-347 173,-347 326,-347 326,-347 173,-347"/>
<polygon fill="#666666" stroke="#666666" points="173,-287 173,-287 188,-287 188,-287 173,-287"/>
<polygon fill="#666666" stroke="#666666" points="188,-287 188,-287 326,-287 326,-287 188,-287"/>
<polygon fill="none" stroke="#666666" points="172.5,-195.5 172.5,-364.5 325.5,-364.5 325.5,-195.5 172.5,-195.5"/>
</a>
</g>
</g>
<!-- Node3&#45;&gt;Node1 -->
<g id="edge2_Node000001_Node000003" class="edge">
<title>Node3&#45;&gt;Node1</title>
<g id="a_edge2_Node000001_Node000003"><a xlink:title=" ">
<path fill="none" stroke="#63b8ff" d="M214.23,-185.6C202.51,-154.13 189.95,-120.39 180.2,-94.2"/>
<polygon fill="none" stroke="#63b8ff" points="211.06,-187.13 217.83,-195.28 217.62,-184.68 211.06,-187.13"/>
</a>
</g>
</g>
</g>
</svg>
