<?xml version="1.0" encoding="UTF-8" standalone="no"?>
<!DOCTYPE svg PUBLIC "-//W3C//DTD SVG 1.1//EN"
 "http://www.w3.org/Graphics/SVG/1.1/DTD/svg11.dtd">
<!-- Generated by graphviz version 2.43.0 (0)
 -->
<!-- Title: KdNode&lt; PT, PD &gt; Pages: 1 -->
<svg width="133pt" height="277pt"
 viewBox="0.00 0.00 133.00 277.00" xmlns="http://www.w3.org/2000/svg" xmlns:xlink="http://www.w3.org/1999/xlink">
<g id="graph0" class="graph" transform="scale(1 1) rotate(0) translate(4 273)">
<title>KdNode&lt; PT, PD &gt;</title>
<!-- Node1 -->
<g id="Node000001" class="node">
<title>Node1</title>
<g id="a_Node000001"><a xlink:title="Represents a node in a kd tree, including bounding box and child pointers.">
<polygon fill="#999999" stroke="transparent" points="114,-139 11,-139 11,0 114,0 114,-139"/>
<text text-anchor="start" x="16.5" y="-126.5" font-family="Helvetica,sans-Serif" font-size="10.00">KdNode&lt; PT, PD &gt;</text>
<text text-anchor="start" x="22" y="-111.5" font-family="Helvetica,sans-Serif" font-size="10.00">+</text>
<text text-anchor="start" x="41.5" y="-111.5" font-family="Helvetica,sans-Serif" font-size="10.00">cellMin</text>
<text text-anchor="start" x="22" y="-96.5" font-family="Helvetica,sans-Serif" font-size="10.00">+</text>
<text text-anchor="start" x="41.5" y="-96.5" font-family="Helvetica,sans-Serif" font-size="10.00">cellMax</text>
<text text-anchor="start" x="22" y="-81.5" font-family="Helvetica,sans-Serif" font-size="10.00">+</text>
<text text-anchor="start" x="41.5" y="-81.5" font-family="Helvetica,sans-Serif" font-size="10.00">left</text>
<text text-anchor="start" x="22" y="-66.5" font-family="Helvetica,sans-Serif" font-size="10.00">+</text>
<text text-anchor="start" x="41.5" y="-66.5" font-family="Helvetica,sans-Serif" font-size="10.00">right</text>
<text text-anchor="start" x="22" y="-51.5" font-family="Helvetica,sans-Serif" font-size="10.00">+</text>
<text text-anchor="start" x="41.5" y="-51.5" font-family="Helvetica,sans-Serif" font-size="10.00">myPoint</text>
<text text-anchor="start" x="22" y="-36.5" font-family="Helvetica,sans-Serif" font-size="10.00">+</text>
<text text-anchor="start" x="41.5" y="-36.5" font-family="Helvetica,sans-Serif" font-size="10.00">KdNode()</text>
<text text-anchor="start" x="22" y="-21.5" font-family="Helvetica,sans-Serif" font-size="10.00">+</text>
<text text-anchor="start" x="41.5" y="-21.5" font-family="Helvetica,sans-Serif" font-size="10.00">KdNode()</text>
<text text-anchor="start" x="22" y="-6.5" font-family="Helvetica,sans-Serif" font-size="10.00">+</text>
<text text-anchor="start" x="41.5" y="-6.5" font-family="Helvetica,sans-Serif" font-size="10.00">~KdNode()</text>
<polygon fill="#666666" stroke="#666666" points="11.5,-121.5 11.5,-121.5 114.5,-121.5 114.5,-121.5 11.5,-121.5"/>
<polygon fill="#666666" stroke="#666666" points="11.5,-46.5 11.5,-46.5 39.5,-46.5 39.5,-46.5 11.5,-46.5"/>
<polygon fill="#666666" stroke="#666666" points="39.5,-46.5 39.5,-46.5 114.5,-46.5 114.5,-46.5 39.5,-46.5"/>
<polygon fill="none" stroke="#666666" points="11,0 11,-139 114,-139 114,0 11,0"/>
</a>
</g>
</g>
<!-- Node2 -->
<g id="Node000002" class="node">
<title>Node2</title>
<g id="a_Node000002"><a xlink:href="classHasWgtCent.html" target="_top" xlink:title="Represents an object with an array of weights and a counter.">
<polygon fill="white" stroke="transparent" points="125,-269 0,-269 0,-175 125,-175 125,-269"/>
<text text-anchor="start" x="5.5" y="-257" font-family="Helvetica,sans-Serif" font-size="10.00">HasWgtCent&lt; PT, PD &gt;</text>
<text text-anchor="start" x="11" y="-242" font-family="Helvetica,sans-Serif" font-size="10.00">+</text>
<text text-anchor="start" x="30.5" y="-242" font-family="Helvetica,sans-Serif" font-size="10.00">wgtCent</text>
<text text-anchor="start" x="11" y="-227" font-family="Helvetica,sans-Serif" font-size="10.00">+</text>
<text text-anchor="start" x="30.5" y="-227" font-family="Helvetica,sans-Serif" font-size="10.00">count</text>
<text text-anchor="start" x="11" y="-212" font-family="Helvetica,sans-Serif" font-size="10.00">+</text>
<text text-anchor="start" x="30.5" y="-212" font-family="Helvetica,sans-Serif" font-size="10.00">HasWgtCent()</text>
<text text-anchor="start" x="11" y="-197" font-family="Helvetica,sans-Serif" font-size="10.00">+</text>
<text text-anchor="start" x="30.5" y="-197" font-family="Helvetica,sans-Serif" font-size="10.00">resetCount()</text>
<text text-anchor="start" x="11" y="-182" font-family="Helvetica,sans-Serif" font-size="10.00">+</text>
<text text-anchor="start" x="30.5" y="-182" font-family="Helvetica,sans-Serif" font-size="10.00">~HasWgtCent()</text>
<polygon fill="#666666" stroke="#666666" points="0.5,-252 0.5,-252 125.5,-252 125.5,-252 0.5,-252"/>
<polygon fill="#666666" stroke="#666666" points="0.5,-222 0.5,-222 28.5,-222 28.5,-222 0.5,-222"/>
<polygon fill="#666666" stroke="#666666" points="28.5,-222 28.5,-222 125.5,-222 125.5,-222 28.5,-222"/>
<polygon fill="none" stroke="#666666" points="0,-175 0,-269 125,-269 125,-175 0,-175"/>
</a>
</g>
</g>
<!-- Node2&#45;&gt;Node1 -->
<g id="edge1_Node000001_Node000002" class="edge">
<title>Node2&#45;&gt;Node1</title>
<g id="a_edge1_Node000001_Node000002"><a xlink:title=" ">
<path fill="none" stroke="#63b8ff" d="M62.5,-164.38C62.5,-156.14 62.5,-147.58 62.5,-139.14"/>
<polygon fill="none" stroke="#63b8ff" points="59,-164.62 62.5,-174.62 66,-164.62 59,-164.62"/>
</a>
</g>
</g>
</g>
</svg>
