<?xml version="1.0" encoding="UTF-8" standalone="no"?>
<!DOCTYPE svg PUBLIC "-//W3C//DTD SVG 1.1//EN"
 "http://www.w3.org/Graphics/SVG/1.1/DTD/svg11.dtd">
<!-- Generated by graphviz version 2.43.0 (0)
 -->
<!-- Title: GeodesicHeatMetric&lt; PT, PD &gt; Pages: 1 -->
<svg width="290pt" height="677pt"
 viewBox="0.00 0.00 289.50 677.00" xmlns="http://www.w3.org/2000/svg" xmlns:xlink="http://www.w3.org/1999/xlink">
<g id="graph0" class="graph" transform="scale(1 1) rotate(0) translate(4 673)">
<title>GeodesicHeatMetric&lt; PT, PD &gt;</title>
<!-- Node1 -->
<g id="Node000001" class="node">
<title>Node1</title>
<g id="a_Node000001"><a xlink:title=" ">
<polygon fill="#999999" stroke="transparent" points="189,-75 61,-75 61,0 189,0 189,-75"/>
<text text-anchor="start" x="75" y="-62.5" font-family="Helvetica,sans-Serif" font-size="10.00">GeodesicHeatMetric</text>
<text text-anchor="start" x="97.5" y="-51.5" font-family="Helvetica,sans-Serif" font-size="10.00">&lt; PT, PD &gt;</text>
<text text-anchor="start" x="65" y="-36.5" font-family="Helvetica,sans-Serif" font-size="10.00">#</text>
<text text-anchor="start" x="78" y="-36.5" font-family="Helvetica,sans-Serif" font-size="10.00">data_heat</text>
<text text-anchor="start" x="65" y="-21.5" font-family="Helvetica,sans-Serif" font-size="10.00">+</text>
<text text-anchor="start" x="78" y="-21.5" font-family="Helvetica,sans-Serif" font-size="10.00">GeodesicHeatMetric()</text>
<text text-anchor="start" x="65" y="-6.5" font-family="Helvetica,sans-Serif" font-size="10.00">#</text>
<text text-anchor="start" x="78" y="-6.5" font-family="Helvetica,sans-Serif" font-size="10.00">computeDistances()</text>
<polygon fill="#666666" stroke="#666666" points="61,-46.5 61,-46.5 189,-46.5 189,-46.5 61,-46.5"/>
<polygon fill="#666666" stroke="#666666" points="61,-31.5 61,-31.5 76,-31.5 76,-31.5 61,-31.5"/>
<polygon fill="#666666" stroke="#666666" points="76,-31.5 76,-31.5 189,-31.5 189,-31.5 76,-31.5"/>
<polygon fill="none" stroke="#666666" points="61,0 61,-75 189,-75 189,0 61,0"/>
</a>
</g>
</g>
<!-- Node2 -->
<g id="Node000002" class="node">
<title>Node2</title>
<g id="a_Node000002"><a xlink:href="classGeodesicMetric.html" target="_top" xlink:title=" ">
<polygon fill="white" stroke="transparent" points="206,-352 44,-352 44,-112 206,-112 206,-352"/>
<text text-anchor="start" x="73.5" y="-340" font-family="Helvetica,sans-Serif" font-size="10.00">GeodesicMetric&lt; PT,</text>
<text text-anchor="start" x="111" y="-329" font-family="Helvetica,sans-Serif" font-size="10.00"> PD &gt;</text>
<text text-anchor="start" x="48" y="-314" font-family="Helvetica,sans-Serif" font-size="10.00">#</text>
<text text-anchor="start" x="61" y="-314" font-family="Helvetica,sans-Serif" font-size="10.00">distances</text>
<text text-anchor="start" x="48" y="-299" font-family="Helvetica,sans-Serif" font-size="10.00">#</text>
<text text-anchor="start" x="61" y="-299" font-family="Helvetica,sans-Serif" font-size="10.00">oldPoints</text>
<text text-anchor="start" x="48" y="-284" font-family="Helvetica,sans-Serif" font-size="10.00">#</text>
<text text-anchor="start" x="61" y="-284" font-family="Helvetica,sans-Serif" font-size="10.00">avgDistances</text>
<text text-anchor="start" x="48" y="-269" font-family="Helvetica,sans-Serif" font-size="10.00">+</text>
<text text-anchor="start" x="61" y="-269" font-family="Helvetica,sans-Serif" font-size="10.00">GeodesicMetric()</text>
<text text-anchor="start" x="48" y="-254" font-family="Helvetica,sans-Serif" font-size="10.00">+</text>
<text text-anchor="start" x="61" y="-254" font-family="Helvetica,sans-Serif" font-size="10.00">setup()</text>
<text text-anchor="start" x="48" y="-239" font-family="Helvetica,sans-Serif" font-size="10.00">+</text>
<text text-anchor="start" x="61" y="-239" font-family="Helvetica,sans-Serif" font-size="10.00">fit_cpu()</text>
<text text-anchor="start" x="48" y="-224" font-family="Helvetica,sans-Serif" font-size="10.00">+</text>
<text text-anchor="start" x="61" y="-224" font-family="Helvetica,sans-Serif" font-size="10.00">findClosestFace()</text>
<text text-anchor="start" x="48" y="-209" font-family="Helvetica,sans-Serif" font-size="10.00">+</text>
<text text-anchor="start" x="61" y="-209" font-family="Helvetica,sans-Serif" font-size="10.00">getPoints()</text>
<text text-anchor="start" x="48" y="-194" font-family="Helvetica,sans-Serif" font-size="10.00">#</text>
<text text-anchor="start" x="61" y="-194" font-family="Helvetica,sans-Serif" font-size="10.00">computeEuclideanDistance()</text>
<text text-anchor="start" x="48" y="-179" font-family="Helvetica,sans-Serif" font-size="10.00">#</text>
<text text-anchor="start" x="61" y="-179" font-family="Helvetica,sans-Serif" font-size="10.00">computeDistances()</text>
<text text-anchor="start" x="48" y="-164" font-family="Helvetica,sans-Serif" font-size="10.00">#</text>
<text text-anchor="start" x="61" y="-164" font-family="Helvetica,sans-Serif" font-size="10.00">storeCentroids()</text>
<text text-anchor="start" x="48" y="-149" font-family="Helvetica,sans-Serif" font-size="10.00">#</text>
<text text-anchor="start" x="61" y="-149" font-family="Helvetica,sans-Serif" font-size="10.00">dihedralAngle()</text>
<text text-anchor="start" x="48" y="-134" font-family="Helvetica,sans-Serif" font-size="10.00">#</text>
<text text-anchor="start" x="61" y="-134" font-family="Helvetica,sans-Serif" font-size="10.00">setupAvg()</text>
<text text-anchor="start" x="48" y="-119" font-family="Helvetica,sans-Serif" font-size="10.00">#</text>
<text text-anchor="start" x="61" y="-119" font-family="Helvetica,sans-Serif" font-size="10.00">checkConvergence()</text>
<polygon fill="#bfbfbf" stroke="#bfbfbf" points="44,-324 44,-324 206,-324 206,-324 44,-324"/>
<polygon fill="#bfbfbf" stroke="#bfbfbf" points="44,-279 44,-279 59,-279 59,-279 44,-279"/>
<polygon fill="#bfbfbf" stroke="#bfbfbf" points="59,-279 59,-279 206,-279 206,-279 59,-279"/>
<polygon fill="none" stroke="#bfbfbf" points="44,-112 44,-352 206,-352 206,-112 44,-112"/>
</a>
</g>
</g>
<!-- Node2&#45;&gt;Node1 -->
<g id="edge1_Node000001_Node000002" class="edge">
<title>Node2&#45;&gt;Node1</title>
<g id="a_edge1_Node000001_Node000002"><a xlink:title=" ">
<path fill="none" stroke="#63b8ff" d="M125,-101.73C125,-92.2 125,-83.16 125,-75.06"/>
<polygon fill="none" stroke="#63b8ff" points="121.5,-101.83 125,-111.83 128.5,-101.83 121.5,-101.83"/>
</a>
</g>
</g>
<!-- Node3 -->
<g id="Node000003" class="node">
<title>Node3</title>
<g id="a_Node000003"><a xlink:href="classMetric.html" target="_top" xlink:title=" ">
<polygon fill="white" stroke="transparent" points="100,-656 0,-656 0,-412 100,-412 100,-656"/>
<text text-anchor="start" x="7.5" y="-644" font-family="Helvetica,sans-Serif" font-size="10.00">Metric&lt; PT, PD &gt;</text>
<text text-anchor="start" x="4" y="-629" font-family="Helvetica,sans-Serif" font-size="10.00">#</text>
<text text-anchor="start" x="17" y="-629" font-family="Helvetica,sans-Serif" font-size="10.00">threshold</text>
<text text-anchor="start" x="4" y="-614" font-family="Helvetica,sans-Serif" font-size="10.00">#</text>
<text text-anchor="start" x="17" y="-614" font-family="Helvetica,sans-Serif" font-size="10.00">oldCentroids</text>
<text text-anchor="start" x="4" y="-599" font-family="Helvetica,sans-Serif" font-size="10.00">#</text>
<text text-anchor="start" x="17" y="-599" font-family="Helvetica,sans-Serif" font-size="10.00">centroids</text>
<text text-anchor="start" x="4" y="-584" font-family="Helvetica,sans-Serif" font-size="10.00">#</text>
<text text-anchor="start" x="17" y="-584" font-family="Helvetica,sans-Serif" font-size="10.00">data</text>
<text text-anchor="start" x="4" y="-569" font-family="Helvetica,sans-Serif" font-size="10.00">+</text>
<text text-anchor="start" x="17" y="-569" font-family="Helvetica,sans-Serif" font-size="10.00">Metric()</text>
<text text-anchor="start" x="4" y="-554" font-family="Helvetica,sans-Serif" font-size="10.00">+</text>
<text text-anchor="start" x="17" y="-554" font-family="Helvetica,sans-Serif" font-size="10.00">Metric()</text>
<text text-anchor="start" x="4" y="-539" font-family="Helvetica,sans-Serif" font-size="10.00">+</text>
<text text-anchor="start" x="17" y="-539" font-family="Helvetica,sans-Serif" font-size="10.00">Metric()</text>
<text text-anchor="start" x="4" y="-524" font-family="Helvetica,sans-Serif" font-size="10.00">+</text>
<text text-anchor="start" x="17" y="-524" font-family="Helvetica,sans-Serif" font-size="10.00">~Metric()</text>
<text text-anchor="start" x="4" y="-509" font-family="Helvetica,sans-Serif" font-size="10.00">+</text>
<text text-anchor="start" x="17" y="-509" font-family="Helvetica,sans-Serif" font-size="10.00">setup()</text>
<text text-anchor="start" x="4" y="-494" font-family="Helvetica,sans-Serif" font-size="10.00">+</text>
<text text-anchor="start" x="17" y="-494" font-family="Helvetica,sans-Serif" font-size="10.00">setCentroids()</text>
<text text-anchor="start" x="4" y="-479" font-family="Helvetica,sans-Serif" font-size="10.00">+</text>
<text text-anchor="start" x="17" y="-479" font-family="Helvetica,sans-Serif" font-size="10.00">fit_cpu()</text>
<text text-anchor="start" x="4" y="-464" font-family="Helvetica,sans-Serif" font-size="10.00">+</text>
<text text-anchor="start" x="17" y="-464" font-family="Helvetica,sans-Serif" font-size="10.00">setPoints()</text>
<text text-anchor="start" x="4" y="-449" font-family="Helvetica,sans-Serif" font-size="10.00">+</text>
<text text-anchor="start" x="17" y="-449" font-family="Helvetica,sans-Serif" font-size="10.00">getPoints()</text>
<text text-anchor="start" x="4" y="-434" font-family="Helvetica,sans-Serif" font-size="10.00">+</text>
<text text-anchor="start" x="17" y="-434" font-family="Helvetica,sans-Serif" font-size="10.00">resetCentroids()</text>
<text text-anchor="start" x="4" y="-419" font-family="Helvetica,sans-Serif" font-size="10.00">#</text>
<text text-anchor="start" x="17" y="-419" font-family="Helvetica,sans-Serif" font-size="10.00">storeCentroids()</text>
<polygon fill="#666666" stroke="#666666" points="0,-639 0,-639 100,-639 100,-639 0,-639"/>
<polygon fill="#666666" stroke="#666666" points="0,-579 0,-579 15,-579 15,-579 0,-579"/>
<polygon fill="#666666" stroke="#666666" points="15,-579 15,-579 100,-579 100,-579 15,-579"/>
<polygon fill="none" stroke="#666666" points="0,-412 0,-656 100,-656 100,-412 0,-412"/>
</a>
</g>
</g>
<!-- Node3&#45;&gt;Node2 -->
<g id="edge2_Node000002_Node000003" class="edge">
<title>Node3&#45;&gt;Node2</title>
<g id="a_edge2_Node000002_Node000003"><a xlink:title=" ">
<path fill="none" stroke="#63b8ff" d="M82.72,-402.11C86.87,-385.5 91.1,-368.58 95.21,-352.17"/>
<polygon fill="none" stroke="#63b8ff" points="79.32,-401.29 80.29,-411.84 86.11,-402.99 79.32,-401.29"/>
</a>
</g>
</g>
<!-- Node4 -->
<g id="Node000004" class="node">
<title>Node4</title>
<g id="a_Node000004"><a xlink:href="classMesh.html" target="_top" xlink:title=" ">
<polygon fill="white" stroke="transparent" points="281.5,-669 118.5,-669 118.5,-399 281.5,-399 281.5,-669"/>
<text text-anchor="start" x="187" y="-657" font-family="Helvetica,sans-Serif" font-size="10.00">Mesh</text>
<text text-anchor="start" x="198.5" y="-642" font-family="Helvetica,sans-Serif" font-size="10.00"> </text>
<text text-anchor="start" x="123" y="-627" font-family="Helvetica,sans-Serif" font-size="10.00">+</text>
<text text-anchor="start" x="136" y="-627" font-family="Helvetica,sans-Serif" font-size="10.00">Mesh()</text>
<text text-anchor="start" x="123" y="-612" font-family="Helvetica,sans-Serif" font-size="10.00">+</text>
<text text-anchor="start" x="136" y="-612" font-family="Helvetica,sans-Serif" font-size="10.00">createSegmentationFromSeg</text>
<text text-anchor="start" x="136" y="-601" font-family="Helvetica,sans-Serif" font-size="10.00">File()</text>
<text text-anchor="start" x="123" y="-586" font-family="Helvetica,sans-Serif" font-size="10.00">+</text>
<text text-anchor="start" x="136" y="-586" font-family="Helvetica,sans-Serif" font-size="10.00">buildFaceAdjacency()</text>
<text text-anchor="start" x="123" y="-571" font-family="Helvetica,sans-Serif" font-size="10.00">+</text>
<text text-anchor="start" x="136" y="-571" font-family="Helvetica,sans-Serif" font-size="10.00">getFaceCluster()</text>
<text text-anchor="start" x="123" y="-556" font-family="Helvetica,sans-Serif" font-size="10.00">+</text>
<text text-anchor="start" x="136" y="-556" font-family="Helvetica,sans-Serif" font-size="10.00">setFaceCluster()</text>
<text text-anchor="start" x="123" y="-541" font-family="Helvetica,sans-Serif" font-size="10.00">+</text>
<text text-anchor="start" x="136" y="-541" font-family="Helvetica,sans-Serif" font-size="10.00">getMeshFacesPoints()</text>
<text text-anchor="start" x="123" y="-526" font-family="Helvetica,sans-Serif" font-size="10.00">+</text>
<text text-anchor="start" x="136" y="-526" font-family="Helvetica,sans-Serif" font-size="10.00">getFace()</text>
<text text-anchor="start" x="123" y="-511" font-family="Helvetica,sans-Serif" font-size="10.00">+</text>
<text text-anchor="start" x="136" y="-511" font-family="Helvetica,sans-Serif" font-size="10.00">numFaces()</text>
<text text-anchor="start" x="123" y="-496" font-family="Helvetica,sans-Serif" font-size="10.00">+</text>
<text text-anchor="start" x="136" y="-496" font-family="Helvetica,sans-Serif" font-size="10.00">getVertices()</text>
<text text-anchor="start" x="123" y="-481" font-family="Helvetica,sans-Serif" font-size="10.00">+</text>
<text text-anchor="start" x="136" y="-481" font-family="Helvetica,sans-Serif" font-size="10.00">getFaceAdjacencyAt()</text>
<text text-anchor="start" x="123" y="-466" font-family="Helvetica,sans-Serif" font-size="10.00">+</text>
<text text-anchor="start" x="136" y="-466" font-family="Helvetica,sans-Serif" font-size="10.00">exportToObj()</text>
<text text-anchor="start" x="123" y="-451" font-family="Helvetica,sans-Serif" font-size="10.00">+</text>
<text text-anchor="start" x="136" y="-451" font-family="Helvetica,sans-Serif" font-size="10.00">exportToGroupedObj()</text>
<text text-anchor="start" x="123" y="-436" font-family="Helvetica,sans-Serif" font-size="10.00">+</text>
<text text-anchor="start" x="136" y="-436" font-family="Helvetica,sans-Serif" font-size="10.00">getMeshVertices()</text>
<text text-anchor="start" x="123" y="-421" font-family="Helvetica,sans-Serif" font-size="10.00">+</text>
<text text-anchor="start" x="136" y="-421" font-family="Helvetica,sans-Serif" font-size="10.00">getFaceAdjacency()</text>
<text text-anchor="start" x="123" y="-406" font-family="Helvetica,sans-Serif" font-size="10.00">+</text>
<text text-anchor="start" x="136" y="-406" font-family="Helvetica,sans-Serif" font-size="10.00">getMeshFaces()</text>
<polygon fill="#bfbfbf" stroke="#bfbfbf" points="119,-652 119,-652 282,-652 282,-652 119,-652"/>
<polygon fill="#bfbfbf" stroke="#bfbfbf" points="119,-637 119,-637 282,-637 282,-637 119,-637"/>
<polygon fill="none" stroke="#bfbfbf" points="118.5,-399 118.5,-669 281.5,-669 281.5,-399 118.5,-399"/>
</a>
</g>
</g>
<!-- Node4&#45;&gt;Node2 -->
<g id="edge3_Node000002_Node000004" class="edge">
<title>Node4&#45;&gt;Node2</title>
<g id="a_edge3_Node000002_Node000004"><a xlink:title=" ">
<path fill="none" stroke="#63b8ff" d="M166.45,-398.79C163.58,-387.33 160.69,-375.74 157.83,-364.3"/>
<polygon fill="none" stroke="#63b8ff" points="157.77,-364.09 152.44,-359.24 154.86,-352.45 160.2,-357.3 157.77,-364.09"/>
</a>
</g>
<text text-anchor="middle" x="180.5" y="-373" font-family="Helvetica,sans-Serif" font-size="10.00" fill="grey"> #mesh</text>
</g>
</g>
</svg>
