<?xml version="1.0" encoding="UTF-8" standalone="no"?>
<!DOCTYPE svg PUBLIC "-//W3C//DTD SVG 1.1//EN"
 "http://www.w3.org/Graphics/SVG/1.1/DTD/svg11.dtd">
<!-- Generated by graphviz version 2.43.0 (0)
 -->
<!-- Title: KDE&lt; PD &gt; Pages: 1 -->
<svg width="334pt" height="363pt"
 viewBox="0.00 0.00 333.50 363.00" xmlns="http://www.w3.org/2000/svg" xmlns:xlink="http://www.w3.org/1999/xlink">
<g id="graph0" class="graph" transform="scale(1 1) rotate(0) translate(4 359)">
<title>KDE&lt; PD &gt;</title>
<!-- Node1 -->
<g id="Node000001" class="node">
<title>Node1</title>
<g id="a_Node000001"><a xlink:title="Implements Kernel Density Estimation (KDE) for centroid initialization.">
<polygon fill="#999999" stroke="transparent" points="244.5,-124 81.5,-124 81.5,0 244.5,0 244.5,-124"/>
<text text-anchor="start" x="135" y="-112" font-family="Helvetica,sans-Serif" font-size="10.00">KDE&lt; PD &gt;</text>
<text text-anchor="start" x="161.5" y="-97" font-family="Helvetica,sans-Serif" font-size="10.00"> </text>
<text text-anchor="start" x="86" y="-82" font-family="Helvetica,sans-Serif" font-size="10.00">+</text>
<text text-anchor="start" x="99" y="-82" font-family="Helvetica,sans-Serif" font-size="10.00">KDE()</text>
<text text-anchor="start" x="86" y="-67" font-family="Helvetica,sans-Serif" font-size="10.00">+</text>
<text text-anchor="start" x="99" y="-67" font-family="Helvetica,sans-Serif" font-size="10.00">KDE()</text>
<text text-anchor="start" x="86" y="-52" font-family="Helvetica,sans-Serif" font-size="10.00">+</text>
<text text-anchor="start" x="99" y="-52" font-family="Helvetica,sans-Serif" font-size="10.00">findCentroid()</text>
<text text-anchor="start" x="86" y="-37" font-family="Helvetica,sans-Serif" font-size="10.00">+</text>
<text text-anchor="start" x="99" y="-37" font-family="Helvetica,sans-Serif" font-size="10.00">findLocalWithoutRestriction()</text>
<text text-anchor="start" x="86" y="-22" font-family="Helvetica,sans-Serif" font-size="10.00">+</text>
<text text-anchor="start" x="99" y="-22" font-family="Helvetica,sans-Serif" font-size="10.00">generateGrid()</text>
<text text-anchor="start" x="86" y="-7" font-family="Helvetica,sans-Serif" font-size="10.00">+</text>
<text text-anchor="start" x="99" y="-7" font-family="Helvetica,sans-Serif" font-size="10.00">isLocalMaximum()</text>
<polygon fill="#666666" stroke="#666666" points="82,-107 82,-107 245,-107 245,-107 82,-107"/>
<polygon fill="#666666" stroke="#666666" points="82,-92 82,-92 245,-92 245,-92 82,-92"/>
<polygon fill="none" stroke="#666666" points="81.5,0 81.5,-124 244.5,-124 244.5,0 81.5,0"/>
</a>
</g>
</g>
<!-- Node2 -->
<g id="Node000002" class="node">
<title>Node2</title>
<g id="a_Node000002"><a xlink:href="classCentroidInitMethod.html" target="_top" xlink:title=" ">
<polygon fill="white" stroke="transparent" points="154,-355 0,-355 0,-160 154,-160 154,-355"/>
<text text-anchor="start" x="30" y="-342.5" font-family="Helvetica,sans-Serif" font-size="10.00">CentroidInitMethod</text>
<text text-anchor="start" x="39" y="-331.5" font-family="Helvetica,sans-Serif" font-size="10.00">&lt; double, PD &gt;</text>
<text text-anchor="start" x="4" y="-316.5" font-family="Helvetica,sans-Serif" font-size="10.00">#</text>
<text text-anchor="start" x="17" y="-316.5" font-family="Helvetica,sans-Serif" font-size="10.00">m_data</text>
<text text-anchor="start" x="4" y="-301.5" font-family="Helvetica,sans-Serif" font-size="10.00">#</text>
<text text-anchor="start" x="17" y="-301.5" font-family="Helvetica,sans-Serif" font-size="10.00">m_k</text>
<text text-anchor="start" x="4" y="-286.5" font-family="Helvetica,sans-Serif" font-size="10.00">+</text>
<text text-anchor="start" x="17" y="-286.5" font-family="Helvetica,sans-Serif" font-size="10.00">~CentroidInitMethod()</text>
<text text-anchor="start" x="4" y="-271.5" font-family="Helvetica,sans-Serif" font-size="10.00">+</text>
<text text-anchor="start" x="17" y="-271.5" font-family="Helvetica,sans-Serif" font-size="10.00">CentroidInitMethod()</text>
<text text-anchor="start" x="4" y="-256.5" font-family="Helvetica,sans-Serif" font-size="10.00">+</text>
<text text-anchor="start" x="17" y="-256.5" font-family="Helvetica,sans-Serif" font-size="10.00">CentroidInitMethod()</text>
<text text-anchor="start" x="4" y="-241.5" font-family="Helvetica,sans-Serif" font-size="10.00">+</text>
<text text-anchor="start" x="17" y="-241.5" font-family="Helvetica,sans-Serif" font-size="10.00">findCentroid()</text>
<text text-anchor="start" x="4" y="-226.5" font-family="Helvetica,sans-Serif" font-size="10.00">+</text>
<text text-anchor="start" x="17" y="-226.5" font-family="Helvetica,sans-Serif" font-size="10.00">get_k()</text>
<text text-anchor="start" x="4" y="-211.5" font-family="Helvetica,sans-Serif" font-size="10.00">+</text>
<text text-anchor="start" x="17" y="-211.5" font-family="Helvetica,sans-Serif" font-size="10.00">exportedMesh()</text>
<text text-anchor="start" x="4" y="-196.5" font-family="Helvetica,sans-Serif" font-size="10.00">+</text>
<text text-anchor="start" x="17" y="-196.5" font-family="Helvetica,sans-Serif" font-size="10.00">exportedMesh()</text>
<text text-anchor="start" x="4" y="-181.5" font-family="Helvetica,sans-Serif" font-size="10.00">+</text>
<text text-anchor="start" x="17" y="-181.5" font-family="Helvetica,sans-Serif" font-size="10.00">truncateToThreeDecimals()</text>
<text text-anchor="start" x="4" y="-166.5" font-family="Helvetica,sans-Serif" font-size="10.00">#</text>
<text text-anchor="start" x="17" y="-166.5" font-family="Helvetica,sans-Serif" font-size="10.00">set_k()</text>
<polygon fill="#666666" stroke="#666666" points="0,-326.5 0,-326.5 154,-326.5 154,-326.5 0,-326.5"/>
<polygon fill="#666666" stroke="#666666" points="0,-296.5 0,-296.5 15,-296.5 15,-296.5 0,-296.5"/>
<polygon fill="#666666" stroke="#666666" points="15,-296.5 15,-296.5 154,-296.5 154,-296.5 15,-296.5"/>
<polygon fill="none" stroke="#666666" points="0,-160 0,-355 154,-355 154,-160 0,-160"/>
</a>
</g>
</g>
<!-- Node2&#45;&gt;Node1 -->
<g id="edge1_Node000001_Node000002" class="edge">
<title>Node2&#45;&gt;Node1</title>
<g id="a_edge1_Node000001_Node000002"><a xlink:title=" ">
<path fill="none" stroke="#63b8ff" d="M124.15,-150.41C128.12,-141.47 132.05,-132.64 135.79,-124.22"/>
<polygon fill="none" stroke="#63b8ff" points="120.86,-149.19 120,-159.75 127.26,-152.03 120.86,-149.19"/>
</a>
</g>
</g>
<!-- Node3 -->
<g id="Node000003" class="node">
<title>Node3</title>
<g id="a_Node000003"><a xlink:href="classKDEBase.html" target="_top" xlink:title="Base class for Kernel Density Estimation (KDE) operations.">
<polygon fill="white" stroke="transparent" points="325.5,-342 172.5,-342 172.5,-173 325.5,-173 325.5,-342"/>
<text text-anchor="start" x="209" y="-329.5" font-family="Helvetica,sans-Serif" font-size="10.00">KDEBase&lt; PD &gt;</text>
<text text-anchor="start" x="177" y="-314.5" font-family="Helvetica,sans-Serif" font-size="10.00">+</text>
<text text-anchor="start" x="190" y="-314.5" font-family="Helvetica,sans-Serif" font-size="10.00">m_transformedPoints</text>
<text text-anchor="start" x="177" y="-299.5" font-family="Helvetica,sans-Serif" font-size="10.00">+</text>
<text text-anchor="start" x="190" y="-299.5" font-family="Helvetica,sans-Serif" font-size="10.00">m_h_sqrt_inv</text>
<text text-anchor="start" x="177" y="-284.5" font-family="Helvetica,sans-Serif" font-size="10.00">+</text>
<text text-anchor="start" x="190" y="-284.5" font-family="Helvetica,sans-Serif" font-size="10.00">m_h_det_sqrt</text>
<text text-anchor="start" x="177" y="-269.5" font-family="Helvetica,sans-Serif" font-size="10.00">+</text>
<text text-anchor="start" x="190" y="-269.5" font-family="Helvetica,sans-Serif" font-size="10.00">m_h</text>
<text text-anchor="start" x="177" y="-254.5" font-family="Helvetica,sans-Serif" font-size="10.00">+</text>
<text text-anchor="start" x="190" y="-254.5" font-family="Helvetica,sans-Serif" font-size="10.00">KDEBase()</text>
<text text-anchor="start" x="177" y="-239.5" font-family="Helvetica,sans-Serif" font-size="10.00">+</text>
<text text-anchor="start" x="190" y="-239.5" font-family="Helvetica,sans-Serif" font-size="10.00">~KDEBase()</text>
<text text-anchor="start" x="177" y="-224.5" font-family="Helvetica,sans-Serif" font-size="10.00">+</text>
<text text-anchor="start" x="190" y="-224.5" font-family="Helvetica,sans-Serif" font-size="10.00">computeMeanAndStdDev()</text>
<text text-anchor="start" x="177" y="-209.5" font-family="Helvetica,sans-Serif" font-size="10.00">+</text>
<text text-anchor="start" x="190" y="-209.5" font-family="Helvetica,sans-Serif" font-size="10.00">bandwidth_RuleOfThumb()</text>
<text text-anchor="start" x="177" y="-194.5" font-family="Helvetica,sans-Serif" font-size="10.00">+</text>
<text text-anchor="start" x="190" y="-194.5" font-family="Helvetica,sans-Serif" font-size="10.00">kdeValue()</text>
<text text-anchor="start" x="177" y="-179.5" font-family="Helvetica,sans-Serif" font-size="10.00">+</text>
<text text-anchor="start" x="190" y="-179.5" font-family="Helvetica,sans-Serif" font-size="10.00">pointToVector()</text>
<polygon fill="#666666" stroke="#666666" points="173,-324.5 173,-324.5 326,-324.5 326,-324.5 173,-324.5"/>
<polygon fill="#666666" stroke="#666666" points="173,-264.5 173,-264.5 188,-264.5 188,-264.5 173,-264.5"/>
<polygon fill="#666666" stroke="#666666" points="188,-264.5 188,-264.5 326,-264.5 326,-264.5 188,-264.5"/>
<polygon fill="none" stroke="#666666" points="172.5,-173 172.5,-342 325.5,-342 325.5,-173 172.5,-173"/>
</a>
</g>
</g>
<!-- Node3&#45;&gt;Node1 -->
<g id="edge2_Node000001_Node000003" class="edge">
<title>Node3&#45;&gt;Node1</title>
<g id="a_edge2_Node000001_Node000003"><a xlink:title=" ">
<path fill="none" stroke="#63b8ff" d="M207.68,-163.52C201.73,-150.14 195.74,-136.67 190.17,-124.12"/>
<polygon fill="none" stroke="#63b8ff" points="204.52,-165.04 211.78,-172.75 210.92,-162.19 204.52,-165.04"/>
</a>
</g>
</g>
</g>
</svg>
