<?xml version="1.0" encoding="UTF-8" standalone="no"?>
<!DOCTYPE svg PUBLIC "-//W3C//DTD SVG 1.1//EN"
 "http://www.w3.org/Graphics/SVG/1.1/DTD/svg11.dtd">
<!-- Generated by graphviz version 2.43.0 (0)
 -->
<!-- Title: Kinit::Kinit Pages: 1 -->
<svg width="246pt" height="138pt"
 viewBox="0.00 0.00 246.00 138.00" xmlns="http://www.w3.org/2000/svg" xmlns:xlink="http://www.w3.org/1999/xlink">
<g id="graph0" class="graph" transform="scale(1 1) rotate(0) translate(4 134)">
<title>Kinit::Kinit</title>
<!-- Node1 -->
<g id="Node000001" class="node">
<title>Node1</title>
<g id="a_Node000001"><a xlink:title="Constructor for the Kinit class.">
<polygon fill="#999999" stroke="#666666" points="238,-74 170,-74 170,-55 238,-55 238,-74"/>
<text text-anchor="middle" x="204" y="-62" font-family="Helvetica,sans-Serif" font-size="10.00">Kinit::Kinit</text>
</a>
</g>
</g>
<!-- Node2 -->
<g id="Node000002" class="node">
<title>Node2</title>
<g id="a_Node000002"><a xlink:href="classElbowMethod.html#a008b8f04452f61d7c48eac9d774ec6c4" target="_top" xlink:title="Pure virtual function to determine the number of clusters (k).">
<polygon fill="white" stroke="#666666" points="123.5,-130 10.5,-130 10.5,-111 123.5,-111 123.5,-130"/>
<text text-anchor="middle" x="67" y="-118" font-family="Helvetica,sans-Serif" font-size="10.00">ElbowMethod::findK</text>
</a>
</g>
</g>
<!-- Node1&#45;&gt;Node2 -->
<g id="edge1_Node000001_Node000002" class="edge">
<title>Node1&#45;&gt;Node2</title>
<g id="a_edge1_Node000001_Node000002"><a xlink:title=" ">
<path fill="none" stroke="#63b8ff" d="M179.4,-79.33C166.38,-87.03 149.71,-96.14 134,-102.5 126.07,-105.71 117.39,-108.54 108.99,-110.95"/>
<polygon fill="#63b8ff" stroke="#63b8ff" points="181.42,-82.19 188.16,-74.03 177.8,-76.2 181.42,-82.19"/>
</a>
</g>
</g>
<!-- Node3 -->
<g id="Node000003" class="node">
<title>Node3</title>
<g id="a_Node000003"><a xlink:href="classKDEMethod.html#aa75d8dad8a4eaf36519124fe6ef13842" target="_top" xlink:title="Pure virtual function to determine the number of clusters (k).">
<polygon fill="white" stroke="#666666" points="119,-93 15,-93 15,-74 119,-74 119,-93"/>
<text text-anchor="middle" x="67" y="-81" font-family="Helvetica,sans-Serif" font-size="10.00">KDEMethod::findK</text>
</a>
</g>
</g>
<!-- Node1&#45;&gt;Node3 -->
<g id="edge2_Node000001_Node000003" class="edge">
<title>Node1&#45;&gt;Node3</title>
<g id="a_edge2_Node000001_Node000003"><a xlink:title=" ">
<path fill="none" stroke="#63b8ff" d="M159.91,-70.57C146.92,-72.39 132.55,-74.42 119.1,-76.31"/>
<polygon fill="#63b8ff" stroke="#63b8ff" points="160.56,-74.01 169.98,-69.15 159.59,-67.08 160.56,-74.01"/>
</a>
</g>
</g>
<!-- Node4 -->
<g id="Node000004" class="node">
<title>Node4</title>
<g id="a_Node000004"><a xlink:href="classSilhouetteMethod.html#a2415282f053306e134305be27c1e7f07" target="_top" xlink:title="Determines the optimal number of clusters using the Silhouette Score.">
<polygon fill="white" stroke="#666666" points="134,-56 0,-56 0,-37 134,-37 134,-56"/>
<text text-anchor="middle" x="67" y="-44" font-family="Helvetica,sans-Serif" font-size="10.00">SilhouetteMethod::findK</text>
</a>
</g>
</g>
<!-- Node1&#45;&gt;Node4 -->
<g id="edge3_Node000001_Node000004" class="edge">
<title>Node1&#45;&gt;Node4</title>
<g id="a_edge3_Node000001_Node000004"><a xlink:title=" ">
<path fill="none" stroke="#63b8ff" d="M159.93,-58.76C151.72,-57.66 142.96,-56.5 134.23,-55.33"/>
<polygon fill="#63b8ff" stroke="#63b8ff" points="159.6,-62.24 169.98,-60.1 160.53,-55.31 159.6,-62.24"/>
</a>
</g>
</g>
<!-- Node5 -->
<g id="Node000005" class="node">
<title>Node5</title>
<g id="a_Node000005"><a xlink:href="classCSVUtils.html#af8d9a5ac2fbe8408cdd36bfbb5cac996" target="_top" xlink:title=" ">
<polygon fill="white" stroke="#666666" points="120,-19 14,-19 14,0 120,0 120,-19"/>
<text text-anchor="middle" x="67" y="-7" font-family="Helvetica,sans-Serif" font-size="10.00">CSVUtils::readCSV</text>
</a>
</g>
</g>
<!-- Node1&#45;&gt;Node5 -->
<g id="edge4_Node000001_Node000005" class="edge">
<title>Node1&#45;&gt;Node5</title>
<g id="a_edge4_Node000001_Node000005"><a xlink:title=" ">
<path fill="none" stroke="#63b8ff" d="M178.24,-50.04C165.34,-42.91 149.14,-34.56 134,-28.5 125.14,-24.96 115.38,-21.77 106.13,-19.07"/>
<polygon fill="#63b8ff" stroke="#63b8ff" points="176.56,-53.11 186.99,-54.97 179.99,-47.01 176.56,-53.11"/>
</a>
</g>
</g>
</g>
</svg>
