<?xml version="1.0" encoding="UTF-8" standalone="no"?>
<!DOCTYPE svg PUBLIC "-//W3C//DTD SVG 1.1//EN"
 "http://www.w3.org/Graphics/SVG/1.1/DTD/svg11.dtd">
<!-- Generated by graphviz version 2.43.0 (0)
 -->
<!-- Title: GeodesicDijkstraMetric&lt; PT, PD &gt; Pages: 1 -->
<svg width="290pt" height="539pt"
 viewBox="0.00 0.00 289.50 539.00" xmlns="http://www.w3.org/2000/svg" xmlns:xlink="http://www.w3.org/1999/xlink">
<g id="graph0" class="graph" transform="scale(1 1) rotate(0) translate(4 535)">
<title>GeodesicDijkstraMetric&lt; PT, PD &gt;</title>
<!-- Node1 -->
<g id="Node000001" class="node">
<title>Node1</title>
<g id="a_Node000001"><a xlink:title="A class for computing geodesic distances on a mesh with Dijkstra&#39;s algorithm.">
<polygon fill="#999999" stroke="transparent" points="206,-240 44,-240 44,0 206,0 206,-240"/>
<text text-anchor="start" x="67.5" y="-228" font-family="Helvetica,sans-Serif" font-size="10.00">GeodesicDijkstraMetric</text>
<text text-anchor="start" x="97.5" y="-217" font-family="Helvetica,sans-Serif" font-size="10.00">&lt; PT, PD &gt;</text>
<text text-anchor="start" x="48" y="-202" font-family="Helvetica,sans-Serif" font-size="10.00">#</text>
<text text-anchor="start" x="61" y="-202" font-family="Helvetica,sans-Serif" font-size="10.00">distances</text>
<text text-anchor="start" x="48" y="-187" font-family="Helvetica,sans-Serif" font-size="10.00">#</text>
<text text-anchor="start" x="61" y="-187" font-family="Helvetica,sans-Serif" font-size="10.00">oldPoints</text>
<text text-anchor="start" x="48" y="-172" font-family="Helvetica,sans-Serif" font-size="10.00">#</text>
<text text-anchor="start" x="61" y="-172" font-family="Helvetica,sans-Serif" font-size="10.00">avgDistances</text>
<text text-anchor="start" x="48" y="-157" font-family="Helvetica,sans-Serif" font-size="10.00">+</text>
<text text-anchor="start" x="61" y="-157" font-family="Helvetica,sans-Serif" font-size="10.00">GeodesicDijkstraMetric()</text>
<text text-anchor="start" x="48" y="-142" font-family="Helvetica,sans-Serif" font-size="10.00">+</text>
<text text-anchor="start" x="61" y="-142" font-family="Helvetica,sans-Serif" font-size="10.00">setup()</text>
<text text-anchor="start" x="48" y="-127" font-family="Helvetica,sans-Serif" font-size="10.00">+</text>
<text text-anchor="start" x="61" y="-127" font-family="Helvetica,sans-Serif" font-size="10.00">fit_cpu()</text>
<text text-anchor="start" x="48" y="-112" font-family="Helvetica,sans-Serif" font-size="10.00">+</text>
<text text-anchor="start" x="61" y="-112" font-family="Helvetica,sans-Serif" font-size="10.00">findClosestFace()</text>
<text text-anchor="start" x="48" y="-97" font-family="Helvetica,sans-Serif" font-size="10.00">+</text>
<text text-anchor="start" x="61" y="-97" font-family="Helvetica,sans-Serif" font-size="10.00">getPoints()</text>
<text text-anchor="start" x="48" y="-82" font-family="Helvetica,sans-Serif" font-size="10.00">#</text>
<text text-anchor="start" x="61" y="-82" font-family="Helvetica,sans-Serif" font-size="10.00">computeEuclideanDistance()</text>
<text text-anchor="start" x="48" y="-67" font-family="Helvetica,sans-Serif" font-size="10.00">#</text>
<text text-anchor="start" x="61" y="-67" font-family="Helvetica,sans-Serif" font-size="10.00">computeDistances()</text>
<text text-anchor="start" x="48" y="-52" font-family="Helvetica,sans-Serif" font-size="10.00">#</text>
<text text-anchor="start" x="61" y="-52" font-family="Helvetica,sans-Serif" font-size="10.00">storeCentroids()</text>
<text text-anchor="start" x="48" y="-37" font-family="Helvetica,sans-Serif" font-size="10.00">#</text>
<text text-anchor="start" x="61" y="-37" font-family="Helvetica,sans-Serif" font-size="10.00">dihedralAngle()</text>
<text text-anchor="start" x="48" y="-22" font-family="Helvetica,sans-Serif" font-size="10.00">#</text>
<text text-anchor="start" x="61" y="-22" font-family="Helvetica,sans-Serif" font-size="10.00">setupAvg()</text>
<text text-anchor="start" x="48" y="-7" font-family="Helvetica,sans-Serif" font-size="10.00">#</text>
<text text-anchor="start" x="61" y="-7" font-family="Helvetica,sans-Serif" font-size="10.00">checkConvergence()</text>
<polygon fill="#666666" stroke="#666666" points="44,-212 44,-212 206,-212 206,-212 44,-212"/>
<polygon fill="#666666" stroke="#666666" points="44,-167 44,-167 59,-167 59,-167 44,-167"/>
<polygon fill="#666666" stroke="#666666" points="59,-167 59,-167 206,-167 206,-167 59,-167"/>
<polygon fill="none" stroke="#666666" points="44,0 44,-240 206,-240 206,0 44,0"/>
</a>
</g>
</g>
<!-- Node2 -->
<g id="Node000002" class="node">
<title>Node2</title>
<g id="a_Node000002"><a xlink:href="classMetric.html" target="_top" xlink:title="Abstract class representing a generic metric for calculating distances.">
<polygon fill="white" stroke="transparent" points="100,-531 0,-531 0,-287 100,-287 100,-531"/>
<text text-anchor="start" x="7.5" y="-519" font-family="Helvetica,sans-Serif" font-size="10.00">Metric&lt; PT, PD &gt;</text>
<text text-anchor="start" x="4" y="-504" font-family="Helvetica,sans-Serif" font-size="10.00">#</text>
<text text-anchor="start" x="17" y="-504" font-family="Helvetica,sans-Serif" font-size="10.00">threshold</text>
<text text-anchor="start" x="4" y="-489" font-family="Helvetica,sans-Serif" font-size="10.00">#</text>
<text text-anchor="start" x="17" y="-489" font-family="Helvetica,sans-Serif" font-size="10.00">oldCentroids</text>
<text text-anchor="start" x="4" y="-474" font-family="Helvetica,sans-Serif" font-size="10.00">#</text>
<text text-anchor="start" x="17" y="-474" font-family="Helvetica,sans-Serif" font-size="10.00">centroids</text>
<text text-anchor="start" x="4" y="-459" font-family="Helvetica,sans-Serif" font-size="10.00">#</text>
<text text-anchor="start" x="17" y="-459" font-family="Helvetica,sans-Serif" font-size="10.00">data</text>
<text text-anchor="start" x="4" y="-444" font-family="Helvetica,sans-Serif" font-size="10.00">+</text>
<text text-anchor="start" x="17" y="-444" font-family="Helvetica,sans-Serif" font-size="10.00">Metric()</text>
<text text-anchor="start" x="4" y="-429" font-family="Helvetica,sans-Serif" font-size="10.00">+</text>
<text text-anchor="start" x="17" y="-429" font-family="Helvetica,sans-Serif" font-size="10.00">Metric()</text>
<text text-anchor="start" x="4" y="-414" font-family="Helvetica,sans-Serif" font-size="10.00">+</text>
<text text-anchor="start" x="17" y="-414" font-family="Helvetica,sans-Serif" font-size="10.00">Metric()</text>
<text text-anchor="start" x="4" y="-399" font-family="Helvetica,sans-Serif" font-size="10.00">+</text>
<text text-anchor="start" x="17" y="-399" font-family="Helvetica,sans-Serif" font-size="10.00">~Metric()</text>
<text text-anchor="start" x="4" y="-384" font-family="Helvetica,sans-Serif" font-size="10.00">+</text>
<text text-anchor="start" x="17" y="-384" font-family="Helvetica,sans-Serif" font-size="10.00">setup()</text>
<text text-anchor="start" x="4" y="-369" font-family="Helvetica,sans-Serif" font-size="10.00">+</text>
<text text-anchor="start" x="17" y="-369" font-family="Helvetica,sans-Serif" font-size="10.00">setCentroids()</text>
<text text-anchor="start" x="4" y="-354" font-family="Helvetica,sans-Serif" font-size="10.00">+</text>
<text text-anchor="start" x="17" y="-354" font-family="Helvetica,sans-Serif" font-size="10.00">fit_cpu()</text>
<text text-anchor="start" x="4" y="-339" font-family="Helvetica,sans-Serif" font-size="10.00">+</text>
<text text-anchor="start" x="17" y="-339" font-family="Helvetica,sans-Serif" font-size="10.00">setPoints()</text>
<text text-anchor="start" x="4" y="-324" font-family="Helvetica,sans-Serif" font-size="10.00">+</text>
<text text-anchor="start" x="17" y="-324" font-family="Helvetica,sans-Serif" font-size="10.00">getPoints()</text>
<text text-anchor="start" x="4" y="-309" font-family="Helvetica,sans-Serif" font-size="10.00">+</text>
<text text-anchor="start" x="17" y="-309" font-family="Helvetica,sans-Serif" font-size="10.00">resetCentroids()</text>
<text text-anchor="start" x="4" y="-294" font-family="Helvetica,sans-Serif" font-size="10.00">#</text>
<text text-anchor="start" x="17" y="-294" font-family="Helvetica,sans-Serif" font-size="10.00">storeCentroids()</text>
<polygon fill="#666666" stroke="#666666" points="0,-514 0,-514 100,-514 100,-514 0,-514"/>
<polygon fill="#666666" stroke="#666666" points="0,-454 0,-454 15,-454 15,-454 0,-454"/>
<polygon fill="#666666" stroke="#666666" points="15,-454 15,-454 100,-454 100,-454 15,-454"/>
<polygon fill="none" stroke="#666666" points="0,-287 0,-531 100,-531 100,-287 0,-287"/>
</a>
</g>
</g>
<!-- Node2&#45;&gt;Node1 -->
<g id="edge1_Node000001_Node000002" class="edge">
<title>Node2&#45;&gt;Node1</title>
<g id="a_edge1_Node000001_Node000002"><a xlink:title=" ">
<path fill="none" stroke="#63b8ff" d="M84.26,-276.88C87.47,-264.6 90.72,-252.2 93.89,-240.03"/>
<polygon fill="none" stroke="#63b8ff" points="80.84,-276.14 81.7,-286.7 87.61,-277.91 80.84,-276.14"/>
</a>
</g>
</g>
<!-- Node3 -->
<g id="Node000003" class="node">
<title>Node3</title>
<g id="a_Node000003"><a xlink:href="classMesh.html" target="_top" xlink:title="Represents a 3D mesh composed of vertices, faces, and adjacency relationships.">
<polygon fill="white" stroke="transparent" points="281.5,-514 118.5,-514 118.5,-304 281.5,-304 281.5,-514"/>
<text text-anchor="start" x="187" y="-502" font-family="Helvetica,sans-Serif" font-size="10.00">Mesh</text>
<text text-anchor="start" x="198.5" y="-487" font-family="Helvetica,sans-Serif" font-size="10.00"> </text>
<text text-anchor="start" x="123" y="-472" font-family="Helvetica,sans-Serif" font-size="10.00">+</text>
<text text-anchor="start" x="136" y="-472" font-family="Helvetica,sans-Serif" font-size="10.00">Mesh()</text>
<text text-anchor="start" x="123" y="-457" font-family="Helvetica,sans-Serif" font-size="10.00">+</text>
<text text-anchor="start" x="136" y="-457" font-family="Helvetica,sans-Serif" font-size="10.00">Mesh()</text>
<text text-anchor="start" x="123" y="-442" font-family="Helvetica,sans-Serif" font-size="10.00">+</text>
<text text-anchor="start" x="136" y="-442" font-family="Helvetica,sans-Serif" font-size="10.00">createSegmentationFromSeg</text>
<text text-anchor="start" x="136" y="-431" font-family="Helvetica,sans-Serif" font-size="10.00">File()</text>
<text text-anchor="start" x="123" y="-416" font-family="Helvetica,sans-Serif" font-size="10.00">+</text>
<text text-anchor="start" x="136" y="-416" font-family="Helvetica,sans-Serif" font-size="10.00">buildFaceAdjacency()</text>
<text text-anchor="start" x="123" y="-401" font-family="Helvetica,sans-Serif" font-size="10.00">+</text>
<text text-anchor="start" x="136" y="-401" font-family="Helvetica,sans-Serif" font-size="10.00">getFaceCluster()</text>
<text text-anchor="start" x="123" y="-386" font-family="Helvetica,sans-Serif" font-size="10.00">+</text>
<text text-anchor="start" x="136" y="-386" font-family="Helvetica,sans-Serif" font-size="10.00">setFaceCluster()</text>
<text text-anchor="start" x="123" y="-371" font-family="Helvetica,sans-Serif" font-size="10.00">+</text>
<text text-anchor="start" x="136" y="-371" font-family="Helvetica,sans-Serif" font-size="10.00">getMeshFacesPoints()</text>
<text text-anchor="start" x="123" y="-356" font-family="Helvetica,sans-Serif" font-size="10.00">+</text>
<text text-anchor="start" x="136" y="-356" font-family="Helvetica,sans-Serif" font-size="10.00">getFace()</text>
<text text-anchor="start" x="123" y="-341" font-family="Helvetica,sans-Serif" font-size="10.00">+</text>
<text text-anchor="start" x="136" y="-341" font-family="Helvetica,sans-Serif" font-size="10.00">numFaces()</text>
<text text-anchor="start" x="123" y="-326" font-family="Helvetica,sans-Serif" font-size="10.00">+</text>
<text text-anchor="start" x="136" y="-326" font-family="Helvetica,sans-Serif" font-size="10.00">getVertices()</text>
<text text-anchor="start" x="136" y="-311" font-family="Helvetica,sans-Serif" font-size="10.00">and 8 more...</text>
<polygon fill="#666666" stroke="#666666" points="119,-497 119,-497 282,-497 282,-497 119,-497"/>
<polygon fill="#666666" stroke="#666666" points="119,-482 119,-482 282,-482 282,-482 119,-482"/>
<polygon fill="none" stroke="#666666" points="118.5,-304 118.5,-514 281.5,-514 281.5,-304 118.5,-304"/>
</a>
</g>
</g>
<!-- Node3&#45;&gt;Node1 -->
<g id="edge2_Node000001_Node000003" class="edge">
<title>Node3&#45;&gt;Node1</title>
<g id="a_edge2_Node000001_Node000003"><a xlink:title=" ">
<path fill="none" stroke="#63b8ff" d="M172.82,-303.98C168.4,-287.09 163.78,-269.4 159.22,-251.96"/>
<polygon fill="none" stroke="#63b8ff" points="159.2,-251.86 153.81,-247.06 156.16,-240.25 161.55,-245.04 159.2,-251.86"/>
</a>
</g>
<text text-anchor="middle" x="182.5" y="-261" font-family="Helvetica,sans-Serif" font-size="10.00" fill="grey"> #mesh</text>
</g>
</g>
</svg>
