<?xml version="1.0" encoding="UTF-8" standalone="no"?>
<!DOCTYPE svg PUBLIC "-//W3C//DTD SVG 1.1//EN"
 "http://www.w3.org/Graphics/SVG/1.1/DTD/svg11.dtd">
<!-- Generated by graphviz version 2.43.0 (0)
 -->
<!-- Title: RandomCentroidInit&lt; PT, PD &gt; Pages: 1 -->
<svg width="162pt" height="314pt"
 viewBox="0.00 0.00 162.00 314.00" xmlns="http://www.w3.org/2000/svg" xmlns:xlink="http://www.w3.org/1999/xlink">
<g id="graph0" class="graph" transform="scale(1 1) rotate(0) translate(4 310)">
<title>RandomCentroidInit&lt; PT, PD &gt;</title>
<!-- Node1 -->
<g id="Node000001" class="node">
<title>Node1</title>
<g id="a_Node000001"><a xlink:title="Implements a centroid initialization method using random selection.">
<polygon fill="#999999" stroke="transparent" points="140.5,-90 13.5,-90 13.5,0 140.5,0 140.5,-90"/>
<text text-anchor="start" x="28.5" y="-78" font-family="Helvetica,sans-Serif" font-size="10.00">RandomCentroidInit</text>
<text text-anchor="start" x="50" y="-67" font-family="Helvetica,sans-Serif" font-size="10.00">&lt; PT, PD &gt;</text>
<text text-anchor="start" x="75.5" y="-52" font-family="Helvetica,sans-Serif" font-size="10.00"> </text>
<text text-anchor="start" x="18" y="-37" font-family="Helvetica,sans-Serif" font-size="10.00">+</text>
<text text-anchor="start" x="31" y="-37" font-family="Helvetica,sans-Serif" font-size="10.00">RandomCentroidInit()</text>
<text text-anchor="start" x="18" y="-22" font-family="Helvetica,sans-Serif" font-size="10.00">+</text>
<text text-anchor="start" x="31" y="-22" font-family="Helvetica,sans-Serif" font-size="10.00">RandomCentroidInit()</text>
<text text-anchor="start" x="18" y="-7" font-family="Helvetica,sans-Serif" font-size="10.00">+</text>
<text text-anchor="start" x="31" y="-7" font-family="Helvetica,sans-Serif" font-size="10.00">findCentroid()</text>
<polygon fill="#666666" stroke="#666666" points="14,-62 14,-62 141,-62 141,-62 14,-62"/>
<polygon fill="#666666" stroke="#666666" points="14,-47 14,-47 141,-47 141,-47 14,-47"/>
<polygon fill="none" stroke="#666666" points="13.5,0 13.5,-90 140.5,-90 140.5,0 13.5,0"/>
</a>
</g>
</g>
<!-- Node2 -->
<g id="Node000002" class="node">
<title>Node2</title>
<g id="a_Node000002"><a xlink:href="classCentroidInitMethod.html" target="_top" xlink:title="Base class for centroid initialization methods.">
<polygon fill="white" stroke="transparent" points="154,-306 0,-306 0,-126 154,-126 154,-306"/>
<text text-anchor="start" x="30" y="-294" font-family="Helvetica,sans-Serif" font-size="10.00">CentroidInitMethod</text>
<text text-anchor="start" x="49.5" y="-283" font-family="Helvetica,sans-Serif" font-size="10.00">&lt; PT, PD &gt;</text>
<text text-anchor="start" x="4" y="-268" font-family="Helvetica,sans-Serif" font-size="10.00">#</text>
<text text-anchor="start" x="17" y="-268" font-family="Helvetica,sans-Serif" font-size="10.00">m_data</text>
<text text-anchor="start" x="4" y="-253" font-family="Helvetica,sans-Serif" font-size="10.00">#</text>
<text text-anchor="start" x="17" y="-253" font-family="Helvetica,sans-Serif" font-size="10.00">m_k</text>
<text text-anchor="start" x="4" y="-238" font-family="Helvetica,sans-Serif" font-size="10.00">+</text>
<text text-anchor="start" x="17" y="-238" font-family="Helvetica,sans-Serif" font-size="10.00">~CentroidInitMethod()</text>
<text text-anchor="start" x="4" y="-223" font-family="Helvetica,sans-Serif" font-size="10.00">+</text>
<text text-anchor="start" x="17" y="-223" font-family="Helvetica,sans-Serif" font-size="10.00">CentroidInitMethod()</text>
<text text-anchor="start" x="4" y="-208" font-family="Helvetica,sans-Serif" font-size="10.00">+</text>
<text text-anchor="start" x="17" y="-208" font-family="Helvetica,sans-Serif" font-size="10.00">CentroidInitMethod()</text>
<text text-anchor="start" x="4" y="-193" font-family="Helvetica,sans-Serif" font-size="10.00">+</text>
<text text-anchor="start" x="17" y="-193" font-family="Helvetica,sans-Serif" font-size="10.00">findCentroid()</text>
<text text-anchor="start" x="4" y="-178" font-family="Helvetica,sans-Serif" font-size="10.00">+</text>
<text text-anchor="start" x="17" y="-178" font-family="Helvetica,sans-Serif" font-size="10.00">exportedMesh()</text>
<text text-anchor="start" x="4" y="-163" font-family="Helvetica,sans-Serif" font-size="10.00">+</text>
<text text-anchor="start" x="17" y="-163" font-family="Helvetica,sans-Serif" font-size="10.00">exportedMesh()</text>
<text text-anchor="start" x="4" y="-148" font-family="Helvetica,sans-Serif" font-size="10.00">+</text>
<text text-anchor="start" x="17" y="-148" font-family="Helvetica,sans-Serif" font-size="10.00">truncateToThreeDecimals()</text>
<text text-anchor="start" x="4" y="-133" font-family="Helvetica,sans-Serif" font-size="10.00">#</text>
<text text-anchor="start" x="17" y="-133" font-family="Helvetica,sans-Serif" font-size="10.00">set_k()</text>
<polygon fill="#666666" stroke="#666666" points="0,-278 0,-278 154,-278 154,-278 0,-278"/>
<polygon fill="#666666" stroke="#666666" points="0,-248 0,-248 15,-248 15,-248 0,-248"/>
<polygon fill="#666666" stroke="#666666" points="15,-248 15,-248 154,-248 154,-248 15,-248"/>
<polygon fill="none" stroke="#666666" points="0,-126 0,-306 154,-306 154,-126 0,-126"/>
</a>
</g>
</g>
<!-- Node2&#45;&gt;Node1 -->
<g id="edge1_Node000001_Node000002" class="edge">
<title>Node2&#45;&gt;Node1</title>
<g id="a_edge1_Node000001_Node000002"><a xlink:title=" ">
<path fill="none" stroke="#63b8ff" d="M77,-115.32C77,-106.67 77,-98.24 77,-90.41"/>
<polygon fill="none" stroke="#63b8ff" points="73.5,-115.55 77,-125.55 80.5,-115.55 73.5,-115.55"/>
</a>
</g>
</g>
</g>
</svg>
