<?xml version="1.0" encoding="UTF-8" standalone="no"?>
<!DOCTYPE svg PUBLIC "-//W3C//DTD SVG 1.1//EN"
 "http://www.w3.org/Graphics/SVG/1.1/DTD/svg11.dtd">
<!-- Generated by graphviz version 2.43.0 (0)
 -->
<!-- Title: KDEBase&lt; PD &gt; Pages: 1 -->
<svg width="171pt" height="307pt"
 viewBox="0.00 0.00 171.00 307.00" xmlns="http://www.w3.org/2000/svg" xmlns:xlink="http://www.w3.org/1999/xlink">
<g id="graph0" class="graph" transform="scale(1 1) rotate(0) translate(4 303)">
<title>KDEBase&lt; PD &gt;</title>
<!-- Node1 -->
<g id="Node000001" class="node">
<title>Node1</title>
<g id="a_Node000001"><a xlink:title=" ">
<polygon fill="#999999" stroke="transparent" points="158,-299 5,-299 5,-130 158,-130 158,-299"/>
<text text-anchor="start" x="41.5" y="-286.5" font-family="Helvetica,sans-Serif" font-size="10.00">KDEBase&lt; PD &gt;</text>
<text text-anchor="start" x="9.5" y="-271.5" font-family="Helvetica,sans-Serif" font-size="10.00">+</text>
<text text-anchor="start" x="22.5" y="-271.5" font-family="Helvetica,sans-Serif" font-size="10.00">m_transformedPoints</text>
<text text-anchor="start" x="9.5" y="-256.5" font-family="Helvetica,sans-Serif" font-size="10.00">+</text>
<text text-anchor="start" x="22.5" y="-256.5" font-family="Helvetica,sans-Serif" font-size="10.00">m_h_sqrt_inv</text>
<text text-anchor="start" x="9.5" y="-241.5" font-family="Helvetica,sans-Serif" font-size="10.00">+</text>
<text text-anchor="start" x="22.5" y="-241.5" font-family="Helvetica,sans-Serif" font-size="10.00">m_h_det_sqrt</text>
<text text-anchor="start" x="9.5" y="-226.5" font-family="Helvetica,sans-Serif" font-size="10.00">+</text>
<text text-anchor="start" x="22.5" y="-226.5" font-family="Helvetica,sans-Serif" font-size="10.00">m_h</text>
<text text-anchor="start" x="9.5" y="-211.5" font-family="Helvetica,sans-Serif" font-size="10.00">+</text>
<text text-anchor="start" x="22.5" y="-211.5" font-family="Helvetica,sans-Serif" font-size="10.00">KDEBase()</text>
<text text-anchor="start" x="9.5" y="-196.5" font-family="Helvetica,sans-Serif" font-size="10.00">+</text>
<text text-anchor="start" x="22.5" y="-196.5" font-family="Helvetica,sans-Serif" font-size="10.00">~KDEBase()</text>
<text text-anchor="start" x="9.5" y="-181.5" font-family="Helvetica,sans-Serif" font-size="10.00">+</text>
<text text-anchor="start" x="22.5" y="-181.5" font-family="Helvetica,sans-Serif" font-size="10.00">computeMeanAndStdDev()</text>
<text text-anchor="start" x="9.5" y="-166.5" font-family="Helvetica,sans-Serif" font-size="10.00">+</text>
<text text-anchor="start" x="22.5" y="-166.5" font-family="Helvetica,sans-Serif" font-size="10.00">bandwidth_RuleOfThumb()</text>
<text text-anchor="start" x="9.5" y="-151.5" font-family="Helvetica,sans-Serif" font-size="10.00">+</text>
<text text-anchor="start" x="22.5" y="-151.5" font-family="Helvetica,sans-Serif" font-size="10.00">kdeValue()</text>
<text text-anchor="start" x="9.5" y="-136.5" font-family="Helvetica,sans-Serif" font-size="10.00">+</text>
<text text-anchor="start" x="22.5" y="-136.5" font-family="Helvetica,sans-Serif" font-size="10.00">pointToVector()</text>
<polygon fill="#666666" stroke="#666666" points="5.5,-281.5 5.5,-281.5 158.5,-281.5 158.5,-281.5 5.5,-281.5"/>
<polygon fill="#666666" stroke="#666666" points="5.5,-221.5 5.5,-221.5 20.5,-221.5 20.5,-221.5 5.5,-221.5"/>
<polygon fill="#666666" stroke="#666666" points="20.5,-221.5 20.5,-221.5 158.5,-221.5 158.5,-221.5 20.5,-221.5"/>
<polygon fill="none" stroke="#666666" points="5,-130 5,-299 158,-299 158,-130 5,-130"/>
</a>
</g>
</g>
<!-- Node2 -->
<g id="Node000002" class="node">
<title>Node2</title>
<g id="a_Node000002"><a xlink:href="classKDE.html" target="_top" xlink:title=" ">
<polygon fill="white" stroke="transparent" points="163,-94 0,-94 0,0 163,0 163,-94"/>
<text text-anchor="start" x="53.5" y="-82" font-family="Helvetica,sans-Serif" font-size="10.00">KDE&lt; PD &gt;</text>
<text text-anchor="start" x="80" y="-67" font-family="Helvetica,sans-Serif" font-size="10.00"> </text>
<text text-anchor="start" x="4.5" y="-52" font-family="Helvetica,sans-Serif" font-size="10.00">+</text>
<text text-anchor="start" x="17.5" y="-52" font-family="Helvetica,sans-Serif" font-size="10.00">KDE()</text>
<text text-anchor="start" x="4.5" y="-37" font-family="Helvetica,sans-Serif" font-size="10.00">+</text>
<text text-anchor="start" x="17.5" y="-37" font-family="Helvetica,sans-Serif" font-size="10.00">KDE()</text>
<text text-anchor="start" x="4.5" y="-22" font-family="Helvetica,sans-Serif" font-size="10.00">+</text>
<text text-anchor="start" x="17.5" y="-22" font-family="Helvetica,sans-Serif" font-size="10.00">findCentroid()</text>
<text text-anchor="start" x="4.5" y="-7" font-family="Helvetica,sans-Serif" font-size="10.00">+</text>
<text text-anchor="start" x="17.5" y="-7" font-family="Helvetica,sans-Serif" font-size="10.00">findLocalWithoutRestriction()</text>
<polygon fill="#bfbfbf" stroke="#bfbfbf" points="0.5,-77 0.5,-77 163.5,-77 163.5,-77 0.5,-77"/>
<polygon fill="#bfbfbf" stroke="#bfbfbf" points="0.5,-62 0.5,-62 163.5,-62 163.5,-62 0.5,-62"/>
<polygon fill="none" stroke="#bfbfbf" points="0,0 0,-94 163,-94 163,0 0,0"/>
</a>
</g>
</g>
<!-- Node1&#45;&gt;Node2 -->
<g id="edge1_Node000001_Node000002" class="edge">
<title>Node1&#45;&gt;Node2</title>
<g id="a_edge1_Node000001_Node000002"><a xlink:title=" ">
<path fill="none" stroke="#63b8ff" d="M81.5,-119.53C81.5,-110.84 81.5,-102.32 81.5,-94.36"/>
<polygon fill="none" stroke="#63b8ff" points="78,-119.78 81.5,-129.78 85,-119.78 78,-119.78"/>
</a>
</g>
</g>
</g>
</svg>
