<?xml version="1.0" encoding="UTF-8" standalone="no"?>
<!DOCTYPE svg PUBLIC "-//W3C//DTD SVG 1.1//EN"
 "http://www.w3.org/Graphics/SVG/1.1/DTD/svg11.dtd">
<!-- Generated by graphviz version 2.43.0 (0)
 -->
<!-- Title: EuclideanMetric&lt; PT, PD &gt; Pages: 1 -->
<svg width="123pt" height="453pt"
 viewBox="0.00 0.00 123.00 453.00" xmlns="http://www.w3.org/2000/svg" xmlns:xlink="http://www.w3.org/1999/xlink">
<g id="graph0" class="graph" transform="scale(1 1) rotate(0) translate(4 449)">
<title>EuclideanMetric&lt; PT, PD &gt;</title>
<!-- Node1 -->
<g id="Node000001" class="node">
<title>Node1</title>
<g id="a_Node000001"><a xlink:title=" ">
<polygon fill="#999999" stroke="transparent" points="115,-165 0,-165 0,0 115,0 115,-165"/>
<text text-anchor="start" x="5.5" y="-152.5" font-family="Helvetica,sans-Serif" font-size="10.00">EuclideanMetric&lt; PT,</text>
<text text-anchor="start" x="44" y="-141.5" font-family="Helvetica,sans-Serif" font-size="10.00"> PD &gt;</text>
<text text-anchor="start" x="56" y="-126.5" font-family="Helvetica,sans-Serif" font-size="10.00"> </text>
<text text-anchor="start" x="6.5" y="-111.5" font-family="Helvetica,sans-Serif" font-size="10.00">+</text>
<text text-anchor="start" x="21.5" y="-111.5" font-family="Helvetica,sans-Serif" font-size="10.00">EuclideanMetric()</text>
<text text-anchor="start" x="6.5" y="-96.5" font-family="Helvetica,sans-Serif" font-size="10.00">+</text>
<text text-anchor="start" x="21.5" y="-96.5" font-family="Helvetica,sans-Serif" font-size="10.00">EuclideanMetric()</text>
<text text-anchor="start" x="6.5" y="-81.5" font-family="Helvetica,sans-Serif" font-size="10.00">+</text>
<text text-anchor="start" x="21.5" y="-81.5" font-family="Helvetica,sans-Serif" font-size="10.00">EuclideanMetric()</text>
<text text-anchor="start" x="6.5" y="-66.5" font-family="Helvetica,sans-Serif" font-size="10.00">+</text>
<text text-anchor="start" x="21.5" y="-66.5" font-family="Helvetica,sans-Serif" font-size="10.00">setup()</text>
<text text-anchor="start" x="6.5" y="-51.5" font-family="Helvetica,sans-Serif" font-size="10.00">+</text>
<text text-anchor="start" x="21.5" y="-51.5" font-family="Helvetica,sans-Serif" font-size="10.00">fit_cpu()</text>
<text text-anchor="start" x="6.5" y="-36.5" font-family="Helvetica,sans-Serif" font-size="10.00">+</text>
<text text-anchor="start" x="21.5" y="-36.5" font-family="Helvetica,sans-Serif" font-size="10.00">getTreshold()</text>
<text text-anchor="start" x="6.5" y="-21.5" font-family="Helvetica,sans-Serif" font-size="10.00">+</text>
<text text-anchor="start" x="21.5" y="-21.5" font-family="Helvetica,sans-Serif" font-size="10.00">getPoints()</text>
<text text-anchor="start" x="6.5" y="-6.5" font-family="Helvetica,sans-Serif" font-size="10.00">+</text>
<text text-anchor="start" x="21.5" y="-6.5" font-family="Helvetica,sans-Serif" font-size="10.00">distanceTo()</text>
<polygon fill="#666666" stroke="#666666" points="0.5,-136.5 0.5,-136.5 115.5,-136.5 115.5,-136.5 0.5,-136.5"/>
<polygon fill="#666666" stroke="#666666" points="0.5,-121.5 0.5,-121.5 115.5,-121.5 115.5,-121.5 0.5,-121.5"/>
<polygon fill="none" stroke="#666666" points="0,0 0,-165 115,-165 115,0 0,0"/>
</a>
</g>
</g>
<!-- Node2 -->
<g id="Node000002" class="node">
<title>Node2</title>
<g id="a_Node000002"><a xlink:href="classMetric.html" target="_top" xlink:title=" ">
<polygon fill="white" stroke="transparent" points="107.5,-445 7.5,-445 7.5,-201 107.5,-201 107.5,-445"/>
<text text-anchor="start" x="15" y="-433" font-family="Helvetica,sans-Serif" font-size="10.00">Metric&lt; PT, PD &gt;</text>
<text text-anchor="start" x="11.5" y="-418" font-family="Helvetica,sans-Serif" font-size="10.00">#</text>
<text text-anchor="start" x="24.5" y="-418" font-family="Helvetica,sans-Serif" font-size="10.00">threshold</text>
<text text-anchor="start" x="11.5" y="-403" font-family="Helvetica,sans-Serif" font-size="10.00">#</text>
<text text-anchor="start" x="24.5" y="-403" font-family="Helvetica,sans-Serif" font-size="10.00">oldCentroids</text>
<text text-anchor="start" x="11.5" y="-388" font-family="Helvetica,sans-Serif" font-size="10.00">#</text>
<text text-anchor="start" x="24.5" y="-388" font-family="Helvetica,sans-Serif" font-size="10.00">centroids</text>
<text text-anchor="start" x="11.5" y="-373" font-family="Helvetica,sans-Serif" font-size="10.00">#</text>
<text text-anchor="start" x="24.5" y="-373" font-family="Helvetica,sans-Serif" font-size="10.00">data</text>
<text text-anchor="start" x="11.5" y="-358" font-family="Helvetica,sans-Serif" font-size="10.00">+</text>
<text text-anchor="start" x="24.5" y="-358" font-family="Helvetica,sans-Serif" font-size="10.00">Metric()</text>
<text text-anchor="start" x="11.5" y="-343" font-family="Helvetica,sans-Serif" font-size="10.00">+</text>
<text text-anchor="start" x="24.5" y="-343" font-family="Helvetica,sans-Serif" font-size="10.00">Metric()</text>
<text text-anchor="start" x="11.5" y="-328" font-family="Helvetica,sans-Serif" font-size="10.00">+</text>
<text text-anchor="start" x="24.5" y="-328" font-family="Helvetica,sans-Serif" font-size="10.00">Metric()</text>
<text text-anchor="start" x="11.5" y="-313" font-family="Helvetica,sans-Serif" font-size="10.00">+</text>
<text text-anchor="start" x="24.5" y="-313" font-family="Helvetica,sans-Serif" font-size="10.00">~Metric()</text>
<text text-anchor="start" x="11.5" y="-298" font-family="Helvetica,sans-Serif" font-size="10.00">+</text>
<text text-anchor="start" x="24.5" y="-298" font-family="Helvetica,sans-Serif" font-size="10.00">setup()</text>
<text text-anchor="start" x="11.5" y="-283" font-family="Helvetica,sans-Serif" font-size="10.00">+</text>
<text text-anchor="start" x="24.5" y="-283" font-family="Helvetica,sans-Serif" font-size="10.00">setCentroids()</text>
<text text-anchor="start" x="11.5" y="-268" font-family="Helvetica,sans-Serif" font-size="10.00">+</text>
<text text-anchor="start" x="24.5" y="-268" font-family="Helvetica,sans-Serif" font-size="10.00">fit_cpu()</text>
<text text-anchor="start" x="11.5" y="-253" font-family="Helvetica,sans-Serif" font-size="10.00">+</text>
<text text-anchor="start" x="24.5" y="-253" font-family="Helvetica,sans-Serif" font-size="10.00">setPoints()</text>
<text text-anchor="start" x="11.5" y="-238" font-family="Helvetica,sans-Serif" font-size="10.00">+</text>
<text text-anchor="start" x="24.5" y="-238" font-family="Helvetica,sans-Serif" font-size="10.00">getPoints()</text>
<text text-anchor="start" x="11.5" y="-223" font-family="Helvetica,sans-Serif" font-size="10.00">+</text>
<text text-anchor="start" x="24.5" y="-223" font-family="Helvetica,sans-Serif" font-size="10.00">resetCentroids()</text>
<text text-anchor="start" x="11.5" y="-208" font-family="Helvetica,sans-Serif" font-size="10.00">#</text>
<text text-anchor="start" x="24.5" y="-208" font-family="Helvetica,sans-Serif" font-size="10.00">storeCentroids()</text>
<polygon fill="#666666" stroke="#666666" points="7.5,-428 7.5,-428 107.5,-428 107.5,-428 7.5,-428"/>
<polygon fill="#666666" stroke="#666666" points="7.5,-368 7.5,-368 22.5,-368 22.5,-368 7.5,-368"/>
<polygon fill="#666666" stroke="#666666" points="22.5,-368 22.5,-368 107.5,-368 107.5,-368 22.5,-368"/>
<polygon fill="none" stroke="#666666" points="7.5,-201 7.5,-445 107.5,-445 107.5,-201 7.5,-201"/>
</a>
</g>
</g>
<!-- Node2&#45;&gt;Node1 -->
<g id="edge1_Node000001_Node000002" class="edge">
<title>Node2&#45;&gt;Node1</title>
<g id="a_edge1_Node000001_Node000002"><a xlink:title=" ">
<path fill="none" stroke="#63b8ff" d="M57.5,-190.57C57.5,-182.01 57.5,-173.53 57.5,-165.32"/>
<polygon fill="none" stroke="#63b8ff" points="54,-190.65 57.5,-200.65 61,-190.65 54,-190.65"/>
</a>
</g>
</g>
</g>
</svg>
