<?xml version="1.0" encoding="UTF-8" standalone="no"?>
<!DOCTYPE svg PUBLIC "-//W3C//DTD SVG 1.1//EN"
 "http://www.w3.org/Graphics/SVG/1.1/DTD/svg11.dtd">
<!-- Generated by graphviz version 2.43.0 (0)
 -->
<!-- Title: ModelRotationCamera Pages: 1 -->
<svg width="155pt" height="607pt"
 viewBox="0.00 0.00 155.00 607.00" xmlns="http://www.w3.org/2000/svg" xmlns:xlink="http://www.w3.org/1999/xlink">
<g id="graph0" class="graph" transform="scale(1 1) rotate(0) translate(4 603)">
<title>ModelRotationCamera</title>
<!-- Node1 -->
<g id="Node000001" class="node">
<title>Node1</title>
<g id="a_Node000001"><a xlink:title="A specialized camera that rotates around a 3D model.">
<polygon fill="#999999" stroke="transparent" points="147,-169 0,-169 0,0 147,0 147,-169"/>
<text text-anchor="start" x="19" y="-156.5" font-family="Helvetica,sans-Serif" font-size="10.00">ModelRotationCamera</text>
<text text-anchor="start" x="4.5" y="-141.5" font-family="Helvetica,sans-Serif" font-size="10.00">#</text>
<text text-anchor="start" x="17.5" y="-141.5" font-family="Helvetica,sans-Serif" font-size="10.00">center</text>
<text text-anchor="start" x="4.5" y="-126.5" font-family="Helvetica,sans-Serif" font-size="10.00">#</text>
<text text-anchor="start" x="17.5" y="-126.5" font-family="Helvetica,sans-Serif" font-size="10.00">distance</text>
<text text-anchor="start" x="4.5" y="-111.5" font-family="Helvetica,sans-Serif" font-size="10.00">+</text>
<text text-anchor="start" x="17.5" y="-111.5" font-family="Helvetica,sans-Serif" font-size="10.00">ModelRotationCamera()</text>
<text text-anchor="start" x="4.5" y="-96.5" font-family="Helvetica,sans-Serif" font-size="10.00">+</text>
<text text-anchor="start" x="17.5" y="-96.5" font-family="Helvetica,sans-Serif" font-size="10.00">ModelRotationCamera()</text>
<text text-anchor="start" x="4.5" y="-81.5" font-family="Helvetica,sans-Serif" font-size="10.00">+</text>
<text text-anchor="start" x="17.5" y="-81.5" font-family="Helvetica,sans-Serif" font-size="10.00">~ModelRotationCamera()</text>
<text text-anchor="start" x="4.5" y="-66.5" font-family="Helvetica,sans-Serif" font-size="10.00">+</text>
<text text-anchor="start" x="17.5" y="-66.5" font-family="Helvetica,sans-Serif" font-size="10.00">handleMouseInput()</text>
<text text-anchor="start" x="4.5" y="-51.5" font-family="Helvetica,sans-Serif" font-size="10.00">+</text>
<text text-anchor="start" x="17.5" y="-51.5" font-family="Helvetica,sans-Serif" font-size="10.00">handleKeyboardInput()</text>
<text text-anchor="start" x="4.5" y="-36.5" font-family="Helvetica,sans-Serif" font-size="10.00">+</text>
<text text-anchor="start" x="17.5" y="-36.5" font-family="Helvetica,sans-Serif" font-size="10.00">handleScrollInput()</text>
<text text-anchor="start" x="4.5" y="-21.5" font-family="Helvetica,sans-Serif" font-size="10.00">+</text>
<text text-anchor="start" x="17.5" y="-21.5" font-family="Helvetica,sans-Serif" font-size="10.00">positionBasedOnObject()</text>
<text text-anchor="start" x="4.5" y="-6.5" font-family="Helvetica,sans-Serif" font-size="10.00">+</text>
<text text-anchor="start" x="17.5" y="-6.5" font-family="Helvetica,sans-Serif" font-size="10.00">setCenter()</text>
<polygon fill="#666666" stroke="#666666" points="0.5,-151.5 0.5,-151.5 147.5,-151.5 147.5,-151.5 0.5,-151.5"/>
<polygon fill="#666666" stroke="#666666" points="0.5,-121.5 0.5,-121.5 15.5,-121.5 15.5,-121.5 0.5,-121.5"/>
<polygon fill="#666666" stroke="#666666" points="15.5,-121.5 15.5,-121.5 147.5,-121.5 147.5,-121.5 15.5,-121.5"/>
<polygon fill="none" stroke="#666666" points="0,0 0,-169 147,-169 147,0 0,0"/>
</a>
</g>
</g>
<!-- Node2 -->
<g id="Node000002" class="node">
<title>Node2</title>
<g id="a_Node000002"><a xlink:href="classCamera.html" target="_top" xlink:title="Base class for a camera in a 3D scene.">
<polygon fill="white" stroke="transparent" points="145,-599 2,-599 2,-205 145,-205 145,-599"/>
<text text-anchor="start" x="54.5" y="-587" font-family="Helvetica,sans-Serif" font-size="10.00">Camera</text>
<text text-anchor="start" x="6.5" y="-572" font-family="Helvetica,sans-Serif" font-size="10.00">#</text>
<text text-anchor="start" x="19.5" y="-572" font-family="Helvetica,sans-Serif" font-size="10.00">position</text>
<text text-anchor="start" x="6.5" y="-557" font-family="Helvetica,sans-Serif" font-size="10.00">#</text>
<text text-anchor="start" x="19.5" y="-557" font-family="Helvetica,sans-Serif" font-size="10.00">front</text>
<text text-anchor="start" x="6.5" y="-542" font-family="Helvetica,sans-Serif" font-size="10.00">#</text>
<text text-anchor="start" x="19.5" y="-542" font-family="Helvetica,sans-Serif" font-size="10.00">up</text>
<text text-anchor="start" x="6.5" y="-527" font-family="Helvetica,sans-Serif" font-size="10.00">#</text>
<text text-anchor="start" x="19.5" y="-527" font-family="Helvetica,sans-Serif" font-size="10.00">right</text>
<text text-anchor="start" x="6.5" y="-512" font-family="Helvetica,sans-Serif" font-size="10.00">#</text>
<text text-anchor="start" x="19.5" y="-512" font-family="Helvetica,sans-Serif" font-size="10.00">yaw</text>
<text text-anchor="start" x="6.5" y="-497" font-family="Helvetica,sans-Serif" font-size="10.00">#</text>
<text text-anchor="start" x="19.5" y="-497" font-family="Helvetica,sans-Serif" font-size="10.00">pitch</text>
<text text-anchor="start" x="6.5" y="-482" font-family="Helvetica,sans-Serif" font-size="10.00">#</text>
<text text-anchor="start" x="19.5" y="-482" font-family="Helvetica,sans-Serif" font-size="10.00">fov</text>
<text text-anchor="start" x="6.5" y="-467" font-family="Helvetica,sans-Serif" font-size="10.00">#</text>
<text text-anchor="start" x="19.5" y="-467" font-family="Helvetica,sans-Serif" font-size="10.00">firstMouseInput</text>
<text text-anchor="start" x="6.5" y="-452" font-family="Helvetica,sans-Serif" font-size="10.00">#</text>
<text text-anchor="start" x="19.5" y="-452" font-family="Helvetica,sans-Serif" font-size="10.00">lastMouse</text>
<text text-anchor="start" x="6.5" y="-437" font-family="Helvetica,sans-Serif" font-size="10.00">#</text>
<text text-anchor="start" x="19.5" y="-437" font-family="Helvetica,sans-Serif" font-size="10.00">viewMatrix</text>
<text text-anchor="start" x="6.5" y="-422" font-family="Helvetica,sans-Serif" font-size="10.00">+</text>
<text text-anchor="start" x="19.5" y="-422" font-family="Helvetica,sans-Serif" font-size="10.00">Camera()</text>
<text text-anchor="start" x="6.5" y="-407" font-family="Helvetica,sans-Serif" font-size="10.00">+</text>
<text text-anchor="start" x="19.5" y="-407" font-family="Helvetica,sans-Serif" font-size="10.00">Camera()</text>
<text text-anchor="start" x="6.5" y="-392" font-family="Helvetica,sans-Serif" font-size="10.00">+</text>
<text text-anchor="start" x="19.5" y="-392" font-family="Helvetica,sans-Serif" font-size="10.00">~Camera()</text>
<text text-anchor="start" x="6.5" y="-377" font-family="Helvetica,sans-Serif" font-size="10.00">+</text>
<text text-anchor="start" x="19.5" y="-377" font-family="Helvetica,sans-Serif" font-size="10.00">getViewMatrix()</text>
<text text-anchor="start" x="6.5" y="-362" font-family="Helvetica,sans-Serif" font-size="10.00">+</text>
<text text-anchor="start" x="19.5" y="-362" font-family="Helvetica,sans-Serif" font-size="10.00">getFOV()</text>
<text text-anchor="start" x="6.5" y="-347" font-family="Helvetica,sans-Serif" font-size="10.00">+</text>
<text text-anchor="start" x="19.5" y="-347" font-family="Helvetica,sans-Serif" font-size="10.00">getPosition()</text>
<text text-anchor="start" x="6.5" y="-332" font-family="Helvetica,sans-Serif" font-size="10.00">+</text>
<text text-anchor="start" x="19.5" y="-332" font-family="Helvetica,sans-Serif" font-size="10.00">setPosition()</text>
<text text-anchor="start" x="6.5" y="-317" font-family="Helvetica,sans-Serif" font-size="10.00">+</text>
<text text-anchor="start" x="19.5" y="-317" font-family="Helvetica,sans-Serif" font-size="10.00">setFov()</text>
<text text-anchor="start" x="6.5" y="-302" font-family="Helvetica,sans-Serif" font-size="10.00">+</text>
<text text-anchor="start" x="19.5" y="-302" font-family="Helvetica,sans-Serif" font-size="10.00">handleMouseInput()</text>
<text text-anchor="start" x="6.5" y="-287" font-family="Helvetica,sans-Serif" font-size="10.00">+</text>
<text text-anchor="start" x="19.5" y="-287" font-family="Helvetica,sans-Serif" font-size="10.00">handleKeyboardInput()</text>
<text text-anchor="start" x="6.5" y="-272" font-family="Helvetica,sans-Serif" font-size="10.00">+</text>
<text text-anchor="start" x="19.5" y="-272" font-family="Helvetica,sans-Serif" font-size="10.00">handleScrollInput()</text>
<text text-anchor="start" x="6.5" y="-257" font-family="Helvetica,sans-Serif" font-size="10.00">+</text>
<text text-anchor="start" x="19.5" y="-257" font-family="Helvetica,sans-Serif" font-size="10.00">updateViewMatrix()</text>
<text text-anchor="start" x="6.5" y="-242" font-family="Helvetica,sans-Serif" font-size="10.00">+</text>
<text text-anchor="start" x="19.5" y="-242" font-family="Helvetica,sans-Serif" font-size="10.00">resetCamera()</text>
<text text-anchor="start" x="6.5" y="-227" font-family="Helvetica,sans-Serif" font-size="10.00">+</text>
<text text-anchor="start" x="19.5" y="-227" font-family="Helvetica,sans-Serif" font-size="10.00">positionBasedOnObject()</text>
<text text-anchor="start" x="6.5" y="-212" font-family="Helvetica,sans-Serif" font-size="10.00">+</text>
<text text-anchor="start" x="19.5" y="-212" font-family="Helvetica,sans-Serif" font-size="10.00">setCenter()</text>
<polygon fill="#666666" stroke="#666666" points="2.5,-582 2.5,-582 145.5,-582 145.5,-582 2.5,-582"/>
<polygon fill="#666666" stroke="#666666" points="2.5,-432 2.5,-432 17.5,-432 17.5,-432 2.5,-432"/>
<polygon fill="#666666" stroke="#666666" points="17.5,-432 17.5,-432 145.5,-432 145.5,-432 17.5,-432"/>
<polygon fill="none" stroke="#666666" points="2,-205 2,-599 145,-599 145,-205 2,-205"/>
</a>
</g>
</g>
<!-- Node2&#45;&gt;Node1 -->
<g id="edge1_Node000001_Node000002" class="edge">
<title>Node2&#45;&gt;Node1</title>
<g id="a_edge1_Node000001_Node000002"><a xlink:title=" ">
<path fill="none" stroke="#63b8ff" d="M73.5,-194.5C73.5,-185.83 73.5,-177.37 73.5,-169.25"/>
<polygon fill="none" stroke="#63b8ff" points="70,-194.78 73.5,-204.78 77,-194.78 70,-194.78"/>
</a>
</g>
</g>
</g>
</svg>
