<?xml version="1.0" encoding="UTF-8" standalone="no"?>
<!DOCTYPE svg PUBLIC "-//W3C//DTD SVG 1.1//EN"
 "http://www.w3.org/Graphics/SVG/1.1/DTD/svg11.dtd">
<!-- Generated by graphviz version 2.43.0 (0)
 -->
<!-- Title: Graphical Class Hierarchy Pages: 1 -->
<svg width="418pt" height="86pt"
 viewBox="0.00 0.00 418.00 86.00" xmlns="http://www.w3.org/2000/svg" xmlns:xlink="http://www.w3.org/1999/xlink">
<g id="graph0" class="graph" transform="scale(1 1) rotate(0) translate(4 82)">
<title>Graphical Class Hierarchy</title>
<!-- Node0 -->
<g id="Node000000" class="node">
<title>Node0</title>
<g id="a_Node000000"><a xlink:href="classMetric.html" target="_top" xlink:title=" ">
<polygon fill="white" stroke="#666666" points="101,-48.5 0,-48.5 0,-29.5 101,-29.5 101,-48.5"/>
<text text-anchor="middle" x="50.5" y="-36.5" font-family="Helvetica,sans-Serif" font-size="10.00">Metric&lt; PT, PD &gt;</text>
</a>
</g>
</g>
<!-- Node1 -->
<g id="Node000001" class="node">
<title>Node1</title>
<g id="a_Node000001"><a xlink:href="classEuclideanMetric.html" target="_top" xlink:title=" ">
<polygon fill="white" stroke="#666666" points="258,-78 137,-78 137,-48 258,-48 258,-78"/>
<text text-anchor="start" x="145" y="-66" font-family="Helvetica,sans-Serif" font-size="10.00">EuclideanMetric&lt; PT,</text>
<text text-anchor="middle" x="197.5" y="-55" font-family="Helvetica,sans-Serif" font-size="10.00"> PD &gt;</text>
</a>
</g>
</g>
<!-- Node0&#45;&gt;Node1 -->
<g id="edge13_Node000000_Node000001" class="edge">
<title>Node0&#45;&gt;Node1</title>
<g id="a_edge13_Node000000_Node000001"><a xlink:title=" ">
<path fill="none" stroke="#63b8ff" d="M111.45,-48.92C119.81,-50.31 128.4,-51.73 136.75,-53.11"/>
<polygon fill="#63b8ff" stroke="#63b8ff" points="111.84,-45.44 101.4,-47.26 110.69,-52.35 111.84,-45.44"/>
</a>
</g>
</g>
<!-- Node2 -->
<g id="Node000002" class="node">
<title>Node2</title>
<g id="a_Node000002"><a xlink:href="classGeodesicMetric.html" target="_top" xlink:title=" ">
<polygon fill="white" stroke="#666666" points="257,-30 138,-30 138,0 257,0 257,-30"/>
<text text-anchor="start" x="146" y="-18" font-family="Helvetica,sans-Serif" font-size="10.00">GeodesicMetric&lt; PT,</text>
<text text-anchor="middle" x="197.5" y="-7" font-family="Helvetica,sans-Serif" font-size="10.00"> PD &gt;</text>
</a>
</g>
</g>
<!-- Node0&#45;&gt;Node2 -->
<g id="edge14_Node000000_Node000002" class="edge">
<title>Node0&#45;&gt;Node2</title>
<g id="a_edge14_Node000000_Node000002"><a xlink:title=" ">
<path fill="none" stroke="#63b8ff" d="M111.46,-29.08C120.16,-27.64 129.1,-26.16 137.77,-24.72"/>
<polygon fill="#63b8ff" stroke="#63b8ff" points="110.69,-25.65 101.4,-30.74 111.84,-32.56 110.69,-25.65"/>
</a>
</g>
</g>
<!-- Node3 -->
<g id="Node000003" class="node">
<title>Node3</title>
<g id="a_Node000003"><a xlink:href="classGeodesicHeatMetric.html" target="_top" xlink:title=" ">
<polygon fill="white" stroke="#666666" points="410,-30 294,-30 294,0 410,0 410,-30"/>
<text text-anchor="start" x="302" y="-18" font-family="Helvetica,sans-Serif" font-size="10.00">GeodesicHeatMetric</text>
<text text-anchor="middle" x="352" y="-7" font-family="Helvetica,sans-Serif" font-size="10.00">&lt; PT, PD &gt;</text>
</a>
</g>
</g>
<!-- Node2&#45;&gt;Node3 -->
<g id="edge15_Node000002_Node000003" class="edge">
<title>Node2&#45;&gt;Node3</title>
<g id="a_edge15_Node000002_Node000003"><a xlink:title=" ">
<path fill="none" stroke="#63b8ff" d="M267.06,-15C276.03,-15 285.14,-15 293.89,-15"/>
<polygon fill="#63b8ff" stroke="#63b8ff" points="267.02,-11.5 257.02,-15 267.02,-18.5 267.02,-11.5"/>
</a>
</g>
</g>
</g>
</svg>
