<?xml version="1.0" encoding="UTF-8" standalone="no"?>
<!DOCTYPE svg PUBLIC "-//W3C//DTD SVG 1.1//EN"
 "http://www.w3.org/Graphics/SVG/1.1/DTD/svg11.dtd">
<!-- Generated by graphviz version 2.43.0 (0)
 -->
<!-- Title: Graphical Class Hierarchy Pages: 1 -->
<svg width="312pt" height="64pt"
 viewBox="0.00 0.00 312.00 64.00" xmlns="http://www.w3.org/2000/svg" xmlns:xlink="http://www.w3.org/1999/xlink">
<g id="graph0" class="graph" transform="scale(1 1) rotate(0) translate(4 60)">
<title>Graphical Class Hierarchy</title>
<!-- Node0 -->
<g id="Node000000" class="node">
<title>Node0</title>
<g id="a_Node000000"><a xlink:href="classHasWgtCent.html" target="_top" xlink:title="Represents an object with an array of weights and a counter.">
<polygon fill="white" stroke="#666666" points="131,-19 0,-19 0,0 131,0 131,-19"/>
<text text-anchor="middle" x="65.5" y="-7" font-family="Helvetica,sans-Serif" font-size="10.00">HasWgtCent&lt; PT, PD &gt;</text>
</a>
</g>
</g>
<!-- Node1 -->
<g id="Node000001" class="node">
<title>Node1</title>
<g id="a_Node000001"><a xlink:href="classCentroidPoint.html" target="_top" xlink:title="Represents a point with a centroid and associated weights.">
<polygon fill="white" stroke="#666666" points="304,-56 167,-56 167,-37 304,-37 304,-56"/>
<text text-anchor="middle" x="235.5" y="-44" font-family="Helvetica,sans-Serif" font-size="10.00">CentroidPoint&lt; PT, PD &gt;</text>
</a>
</g>
</g>
<!-- Node0&#45;&gt;Node1 -->
<g id="edge7_Node000000_Node000001" class="edge">
<title>Node0&#45;&gt;Node1</title>
<g id="a_edge7_Node000000_Node000001"><a xlink:title=" ">
<path fill="none" stroke="#63b8ff" d="M119.72,-21.22C142.72,-26.29 169.3,-32.14 191.09,-36.94"/>
<polygon fill="#63b8ff" stroke="#63b8ff" points="120.28,-17.76 109.76,-19.03 118.78,-24.6 120.28,-17.76"/>
</a>
</g>
</g>
<!-- Node3 -->
<g id="Node000003" class="node">
<title>Node3</title>
<g id="a_Node000003"><a xlink:href="classKdNode.html" target="_top" xlink:title="Represents a node in a kd&#45;tree, including its bounding box and child pointers.">
<polygon fill="white" stroke="#666666" points="290,-19 181,-19 181,0 290,0 290,-19"/>
<text text-anchor="middle" x="235.5" y="-7" font-family="Helvetica,sans-Serif" font-size="10.00">KdNode&lt; PT, PD &gt;</text>
</a>
</g>
</g>
<!-- Node0&#45;&gt;Node3 -->
<g id="edge8_Node000000_Node000003" class="edge">
<title>Node0&#45;&gt;Node3</title>
<g id="a_edge8_Node000000_Node000003"><a xlink:title=" ">
<path fill="none" stroke="#63b8ff" d="M141.52,-9.5C154.78,-9.5 168.35,-9.5 180.87,-9.5"/>
<polygon fill="#63b8ff" stroke="#63b8ff" points="141.45,-6 131.45,-9.5 141.45,-13 141.45,-6"/>
</a>
</g>
</g>
<!-- Node2 -->
<g id="Node000002" class="node">
<title>Node2</title>
<g id="a_Node000002"><a xlink:href="classPoint.html" target="_top" xlink:title="Represents a mathematical point in a multi&#45;dimensional space.">
<polygon fill="white" stroke="#666666" points="113,-56 18,-56 18,-37 113,-37 113,-56"/>
<text text-anchor="middle" x="65.5" y="-44" font-family="Helvetica,sans-Serif" font-size="10.00">Point&lt; PT, PD &gt;</text>
</a>
</g>
</g>
<!-- Node2&#45;&gt;Node1 -->
<g id="edge9_Node000002_Node000001" class="edge">
<title>Node2&#45;&gt;Node1</title>
<g id="a_edge9_Node000002_Node000001"><a xlink:title=" ">
<path fill="none" stroke="#63b8ff" d="M123.69,-46.5C137.59,-46.5 152.59,-46.5 166.92,-46.5"/>
<polygon fill="#63b8ff" stroke="#63b8ff" points="123.3,-43 113.3,-46.5 123.3,-50 123.3,-43"/>
</a>
</g>
</g>
</g>
</svg>
