<?xml version="1.0" encoding="UTF-8" standalone="no"?>
<!DOCTYPE svg PUBLIC "-//W3C//DTD SVG 1.1//EN"
 "http://www.w3.org/Graphics/SVG/1.1/DTD/svg11.dtd">
<!-- Generated by graphviz version 2.43.0 (0)
 -->
<!-- Title: Graphical Class Hierarchy Pages: 1 -->
<svg width="304pt" height="113pt"
 viewBox="0.00 0.00 304.00 112.50" xmlns="http://www.w3.org/2000/svg" xmlns:xlink="http://www.w3.org/1999/xlink">
<g id="graph0" class="graph" transform="scale(1 1) rotate(0) translate(4 108.5)">
<title>Graphical Class Hierarchy</title>
<!-- Node0 -->
<g id="Node000000" class="node">
<title>Node0</title>
<g id="a_Node000000"><a xlink:href="classKinit.html" target="_top" xlink:title="Abstract base class for determining the optimal number of clusters (k).">
<polygon fill="white" stroke="#666666" points="108,-67.5 0,-67.5 0,-48.5 108,-48.5 108,-67.5"/>
<text text-anchor="middle" x="54" y="-55.5" font-family="Helvetica,sans-Serif" font-size="10.00">Kinit&lt; PT, PD, M &gt;</text>
</a>
</g>
</g>
<!-- Node1 -->
<g id="Node000001" class="node">
<title>Node1</title>
<g id="a_Node000001"><a xlink:href="classElbowMethod.html" target="_top" xlink:title="Implements the &quot;elbow method&quot; to determine the optimal number of clusters.">
<polygon fill="white" stroke="#666666" points="296,-104.5 144,-104.5 144,-85.5 296,-85.5 296,-104.5"/>
<text text-anchor="middle" x="220" y="-92.5" font-family="Helvetica,sans-Serif" font-size="10.00">ElbowMethod&lt; PT, PD, M &gt;</text>
</a>
</g>
</g>
<!-- Node0&#45;&gt;Node1 -->
<g id="edge11_Node000000_Node000001" class="edge">
<title>Node0&#45;&gt;Node1</title>
<g id="a_edge11_Node000000_Node000001"><a xlink:title=" ">
<path fill="none" stroke="#63b8ff" d="M107.25,-69.79C129.64,-74.84 155.45,-80.66 176.62,-85.44"/>
<polygon fill="#63b8ff" stroke="#63b8ff" points="107.76,-66.32 97.23,-67.53 106.22,-73.14 107.76,-66.32"/>
</a>
</g>
</g>
<!-- Node2 -->
<g id="Node000002" class="node">
<title>Node2</title>
<g id="a_Node000002"><a xlink:href="classKDEMethod.html" target="_top" xlink:title="Implements a K initialization method based on Kernel Density Estimation (KDE).">
<polygon fill="white" stroke="#666666" points="291.5,-67.5 148.5,-67.5 148.5,-48.5 291.5,-48.5 291.5,-67.5"/>
<text text-anchor="middle" x="220" y="-55.5" font-family="Helvetica,sans-Serif" font-size="10.00">KDEMethod&lt; PT, PD, M &gt;</text>
</a>
</g>
</g>
<!-- Node0&#45;&gt;Node2 -->
<g id="edge12_Node000000_Node000002" class="edge">
<title>Node0&#45;&gt;Node2</title>
<g id="a_edge12_Node000000_Node000002"><a xlink:title=" ">
<path fill="none" stroke="#63b8ff" d="M118.34,-58C128.19,-58 138.42,-58 148.41,-58"/>
<polygon fill="#63b8ff" stroke="#63b8ff" points="118.25,-54.5 108.25,-58 118.25,-61.5 118.25,-54.5"/>
</a>
</g>
</g>
<!-- Node3 -->
<g id="Node000003" class="node">
<title>Node3</title>
<g id="a_Node000003"><a xlink:href="classSilhouetteMethod.html" target="_top" xlink:title="Implements the Silhouette method for determining the optimal number of clusters.">
<polygon fill="white" stroke="#666666" points="284.5,-30 155.5,-30 155.5,0 284.5,0 284.5,-30"/>
<text text-anchor="start" x="163.5" y="-18" font-family="Helvetica,sans-Serif" font-size="10.00">SilhouetteMethod&lt; PT,</text>
<text text-anchor="middle" x="220" y="-7" font-family="Helvetica,sans-Serif" font-size="10.00"> PD, M &gt;</text>
</a>
</g>
</g>
<!-- Node0&#45;&gt;Node3 -->
<g id="edge13_Node000000_Node000003" class="edge">
<title>Node0&#45;&gt;Node3</title>
<g id="a_edge13_Node000000_Node000003"><a xlink:title=" ">
<path fill="none" stroke="#63b8ff" d="M101.21,-45.88C120.02,-40.95 141.96,-35.2 161.77,-30.01"/>
<polygon fill="#63b8ff" stroke="#63b8ff" points="100.18,-42.54 91.4,-48.46 101.96,-49.31 100.18,-42.54"/>
</a>
</g>
</g>
</g>
</svg>
