<?xml version="1.0" encoding="UTF-8" standalone="no"?>
<!DOCTYPE svg PUBLIC "-//W3C//DTD SVG 1.1//EN"
 "http://www.w3.org/Graphics/SVG/1.1/DTD/svg11.dtd">
<!-- Generated by graphviz version 2.43.0 (0)
 -->
<!-- Title: Graphical Class Hierarchy Pages: 1 -->
<svg width="428pt" height="86pt"
 viewBox="0.00 0.00 428.00 86.00" xmlns="http://www.w3.org/2000/svg" xmlns:xlink="http://www.w3.org/1999/xlink">
<g id="graph0" class="graph" transform="scale(1 1) rotate(0) translate(4 82)">
<title>Graphical Class Hierarchy</title>
<!-- Node0 -->
<g id="Node000000" class="node">
<title>Node0</title>
<g id="a_Node000000"><a xlink:href="classMetric.html" target="_top" xlink:title="Abstract class representing a generic metric for calculating distances.">
<polygon fill="white" stroke="#666666" points="101,-48.5 0,-48.5 0,-29.5 101,-29.5 101,-48.5"/>
<text text-anchor="middle" x="50.5" y="-36.5" font-family="Helvetica,sans-Serif" font-size="10.00">Metric&lt; PT, PD &gt;</text>
</a>
</g>
</g>
<!-- Node1 -->
<g id="Node000001" class="node">
<title>Node1</title>
<g id="a_Node000001"><a xlink:href="classEuclideanMetric.html" target="_top" xlink:title="A class that calculates Euclidean distance for clustering and metric purposes.">
<polygon fill="white" stroke="#666666" points="263,-78 142,-78 142,-48 263,-48 263,-78"/>
<text text-anchor="start" x="150" y="-66" font-family="Helvetica,sans-Serif" font-size="10.00">EuclideanMetric&lt; PT,</text>
<text text-anchor="middle" x="202.5" y="-55" font-family="Helvetica,sans-Serif" font-size="10.00"> PD &gt;</text>
</a>
</g>
</g>
<!-- Node0&#45;&gt;Node1 -->
<g id="edge15_Node000000_Node000001" class="edge">
<title>Node0&#45;&gt;Node1</title>
<g id="a_edge15_Node000000_Node000001"><a xlink:title=" ">
<path fill="none" stroke="#63b8ff" d="M111.01,-48.52C121.16,-50.15 131.69,-51.83 141.84,-53.45"/>
<polygon fill="#63b8ff" stroke="#63b8ff" points="111.46,-45.05 101.03,-46.93 110.35,-51.96 111.46,-45.05"/>
</a>
</g>
</g>
<!-- Node2 -->
<g id="Node000002" class="node">
<title>Node2</title>
<g id="a_Node000002"><a xlink:href="classGeodesicDijkstraMetric.html" target="_top" xlink:title="A class for computing geodesic distances on a mesh with Dijkstra&#39;s algorithm.">
<polygon fill="white" stroke="#666666" points="268,-30 137,-30 137,0 268,0 268,-30"/>
<text text-anchor="start" x="145" y="-18" font-family="Helvetica,sans-Serif" font-size="10.00">GeodesicDijkstraMetric</text>
<text text-anchor="middle" x="202.5" y="-7" font-family="Helvetica,sans-Serif" font-size="10.00">&lt; PT, PD &gt;</text>
</a>
</g>
</g>
<!-- Node0&#45;&gt;Node2 -->
<g id="edge16_Node000000_Node000002" class="edge">
<title>Node0&#45;&gt;Node2</title>
<g id="a_edge16_Node000000_Node000002"><a xlink:title=" ">
<path fill="none" stroke="#63b8ff" d="M111.14,-29.46C119.57,-28.11 128.26,-26.72 136.77,-25.36"/>
<polygon fill="#63b8ff" stroke="#63b8ff" points="110.35,-26.04 101.03,-31.07 111.46,-32.95 110.35,-26.04"/>
</a>
</g>
</g>
<!-- Node3 -->
<g id="Node000003" class="node">
<title>Node3</title>
<g id="a_Node000003"><a xlink:href="classGeodesicHeatMetric.html" target="_top" xlink:title="A class for computing geodesic distances using heat diffusion&#45;based method.">
<polygon fill="white" stroke="#666666" points="420,-30 304,-30 304,0 420,0 420,-30"/>
<text text-anchor="start" x="312" y="-18" font-family="Helvetica,sans-Serif" font-size="10.00">GeodesicHeatMetric</text>
<text text-anchor="middle" x="362" y="-7" font-family="Helvetica,sans-Serif" font-size="10.00">&lt; PT, PD &gt;</text>
</a>
</g>
</g>
<!-- Node2&#45;&gt;Node3 -->
<g id="edge17_Node000002_Node000003" class="edge">
<title>Node2&#45;&gt;Node3</title>
<g id="a_edge17_Node000002_Node000003"><a xlink:title=" ">
<path fill="none" stroke="#63b8ff" d="M278.13,-15C286.8,-15 295.53,-15 303.91,-15"/>
<polygon fill="#63b8ff" stroke="#63b8ff" points="278.02,-11.5 268.02,-15 278.02,-18.5 278.02,-11.5"/>
</a>
</g>
</g>
</g>
</svg>
