<?xml version="1.0" encoding="UTF-8" standalone="no"?>
<!DOCTYPE svg PUBLIC "-//W3C//DTD SVG 1.1//EN"
 "http://www.w3.org/Graphics/SVG/1.1/DTD/svg11.dtd">
<!-- Generated by graphviz version 2.43.0 (0)
 -->
<!-- Title: Graphical Class Hierarchy Pages: 1 -->
<svg width="300pt" height="76pt"
 viewBox="0.00 0.00 300.00 75.50" xmlns="http://www.w3.org/2000/svg" xmlns:xlink="http://www.w3.org/1999/xlink">
<g id="graph0" class="graph" transform="scale(1 1) rotate(0) translate(4 71.5)">
<title>Graphical Class Hierarchy</title>
<!-- Node0 -->
<g id="Node000000" class="node">
<title>Node0</title>
<g id="a_Node000000"><a xlink:href="classCentroidInitMethod.html" target="_top" xlink:title=" ">
<polygon fill="white" stroke="#666666" points="110,-30 0,-30 0,0 110,0 110,-30"/>
<text text-anchor="start" x="8" y="-18" font-family="Helvetica,sans-Serif" font-size="10.00">CentroidInitMethod</text>
<text text-anchor="middle" x="55" y="-7" font-family="Helvetica,sans-Serif" font-size="10.00">&lt; double, PD &gt;</text>
</a>
</g>
</g>
<!-- Node1 -->
<g id="Node000001" class="node">
<title>Node1</title>
<g id="a_Node000001"><a xlink:href="classKDE.html" target="_top" xlink:title="Implements Kernel Density Estimation (KDE) for centroid initialization.">
<polygon fill="white" stroke="#666666" points="255.5,-64.5 182.5,-64.5 182.5,-45.5 255.5,-45.5 255.5,-64.5"/>
<text text-anchor="middle" x="219" y="-52.5" font-family="Helvetica,sans-Serif" font-size="10.00">KDE&lt; PD &gt;</text>
</a>
</g>
</g>
<!-- Node0&#45;&gt;Node1 -->
<g id="edge4_Node000000_Node000001" class="edge">
<title>Node0&#45;&gt;Node1</title>
<g id="a_edge4_Node000000_Node000001"><a xlink:title=" ">
<path fill="none" stroke="#63b8ff" d="M120.29,-30.87C141.42,-36.09 164.13,-41.7 182.34,-46.19"/>
<polygon fill="#63b8ff" stroke="#63b8ff" points="120.94,-27.43 110.39,-28.43 119.26,-34.23 120.94,-27.43"/>
</a>
</g>
</g>
<!-- Node3 -->
<g id="Node000003" class="node">
<title>Node3</title>
<g id="a_Node000003"><a xlink:href="classMostDistanceClass.html" target="_top" xlink:title="Class for centroid initialization based on maximum distance.">
<polygon fill="white" stroke="#666666" points="292,-24.5 146,-24.5 146,-5.5 292,-5.5 292,-24.5"/>
<text text-anchor="middle" x="219" y="-12.5" font-family="Helvetica,sans-Serif" font-size="10.00">MostDistanceClass&lt; PD &gt;</text>
</a>
</g>
</g>
<!-- Node0&#45;&gt;Node3 -->
<g id="edge5_Node000000_Node000003" class="edge">
<title>Node0&#45;&gt;Node3</title>
<g id="a_edge5_Node000000_Node000003"><a xlink:title=" ">
<path fill="none" stroke="#63b8ff" d="M120.45,-15C128.82,-15 137.43,-15 145.91,-15"/>
<polygon fill="#63b8ff" stroke="#63b8ff" points="120.39,-11.5 110.39,-15 120.39,-18.5 120.39,-11.5"/>
</a>
</g>
</g>
<!-- Node2 -->
<g id="Node000002" class="node">
<title>Node2</title>
<g id="a_Node000002"><a xlink:href="classKDEBase.html" target="_top" xlink:title="Base class for Kernel Density Estimation (KDE) operations.">
<polygon fill="white" stroke="#666666" points="103.5,-67.5 6.5,-67.5 6.5,-48.5 103.5,-48.5 103.5,-67.5"/>
<text text-anchor="middle" x="55" y="-55.5" font-family="Helvetica,sans-Serif" font-size="10.00">KDEBase&lt; PD &gt;</text>
</a>
</g>
</g>
<!-- Node2&#45;&gt;Node1 -->
<g id="edge6_Node000002_Node000001" class="edge">
<title>Node2&#45;&gt;Node1</title>
<g id="a_edge6_Node000002_Node000001"><a xlink:title=" ">
<path fill="none" stroke="#63b8ff" d="M114.02,-56.93C136.88,-56.5 162.4,-56.03 182.44,-55.66"/>
<polygon fill="#63b8ff" stroke="#63b8ff" points="113.66,-53.43 103.73,-57.12 113.79,-60.43 113.66,-53.43"/>
</a>
</g>
</g>
</g>
</svg>
