<?xml version="1.0" encoding="UTF-8" standalone="no"?>
<!DOCTYPE svg PUBLIC "-//W3C//DTD SVG 1.1//EN"
 "http://www.w3.org/Graphics/SVG/1.1/DTD/svg11.dtd">
<!-- Generated by graphviz version 2.43.0 (0)
 -->
<!-- Title: Graphical Class Hierarchy Pages: 1 -->
<svg width="304pt" height="76pt"
 viewBox="0.00 0.00 304.00 75.50" xmlns="http://www.w3.org/2000/svg" xmlns:xlink="http://www.w3.org/1999/xlink">
<g id="graph0" class="graph" transform="scale(1 1) rotate(0) translate(4 71.5)">
<title>Graphical Class Hierarchy</title>
<!-- Node0 -->
<g id="Node000000" class="node">
<title>Node0</title>
<g id="a_Node000000"><a xlink:href="classKinit.html" target="_top" xlink:title="Abstract base class for determining the optimal number of clusters (k).">
<polygon fill="white" stroke="#666666" points="108,-45.5 0,-45.5 0,-26.5 108,-26.5 108,-45.5"/>
<text text-anchor="middle" x="54" y="-33.5" font-family="Helvetica,sans-Serif" font-size="10.00">Kinit&lt; PT, PD, M &gt;</text>
</a>
</g>
</g>
<!-- Node1 -->
<g id="Node000001" class="node">
<title>Node1</title>
<g id="a_Node000001"><a xlink:href="classElbowMethod.html" target="_top" xlink:title="Implements the &quot;elbow method&quot; to determine the optimal number of clusters.">
<polygon fill="white" stroke="#666666" points="296,-67.5 144,-67.5 144,-48.5 296,-48.5 296,-67.5"/>
<text text-anchor="middle" x="220" y="-55.5" font-family="Helvetica,sans-Serif" font-size="10.00">ElbowMethod&lt; PT, PD, M &gt;</text>
</a>
</g>
</g>
<!-- Node0&#45;&gt;Node1 -->
<g id="edge10_Node000000_Node000001" class="edge">
<title>Node0&#45;&gt;Node1</title>
<g id="a_edge10_Node000000_Node000001"><a xlink:title=" ">
<path fill="none" stroke="#63b8ff" d="M118.27,-44.49C128.04,-45.8 138.19,-47.16 148.12,-48.49"/>
<polygon fill="#63b8ff" stroke="#63b8ff" points="118.62,-41 108.25,-43.14 117.69,-47.94 118.62,-41"/>
</a>
</g>
</g>
<!-- Node2 -->
<g id="Node000002" class="node">
<title>Node2</title>
<g id="a_Node000002"><a xlink:href="classSilhouetteMethod.html" target="_top" xlink:title="Implements the Silhouette method for determining the optimal number of clusters.">
<polygon fill="white" stroke="#666666" points="284.5,-30 155.5,-30 155.5,0 284.5,0 284.5,-30"/>
<text text-anchor="start" x="163.5" y="-18" font-family="Helvetica,sans-Serif" font-size="10.00">SilhouetteMethod&lt; PT,</text>
<text text-anchor="middle" x="220" y="-7" font-family="Helvetica,sans-Serif" font-size="10.00"> PD, M &gt;</text>
</a>
</g>
</g>
<!-- Node0&#45;&gt;Node2 -->
<g id="edge11_Node000000_Node000002" class="edge">
<title>Node0&#45;&gt;Node2</title>
<g id="a_edge11_Node000000_Node000002"><a xlink:title=" ">
<path fill="none" stroke="#63b8ff" d="M118.32,-27.89C130.5,-26.33 143.26,-24.7 155.44,-23.14"/>
<polygon fill="#63b8ff" stroke="#63b8ff" points="117.72,-24.44 108.25,-29.18 118.61,-31.38 117.72,-24.44"/>
</a>
</g>
</g>
</g>
</svg>
