<?xml version="1.0" encoding="UTF-8" standalone="no"?>
<!DOCTYPE svg PUBLIC "-//W3C//DTD SVG 1.1//EN"
 "http://www.w3.org/Graphics/SVG/1.1/DTD/svg11.dtd">
<!-- Generated by graphviz version 2.43.0 (0)
 -->
<!-- Title: Graphical Class Hierarchy Pages: 1 -->
<svg width="312pt" height="64pt"
 viewBox="0.00 0.00 312.00 64.00" xmlns="http://www.w3.org/2000/svg" xmlns:xlink="http://www.w3.org/1999/xlink">
<g id="graph0" class="graph" transform="scale(1 1) rotate(0) translate(4 60)">
<title>Graphical Class Hierarchy</title>
<!-- Node0 -->
<g id="Node000000" class="node">
<title>Node0</title>
<g id="a_Node000000"><a xlink:href="classHasWgtCent.html" target="_top" xlink:title="Represents an object with an array of weights and a counter.">
<polygon fill="white" stroke="#666666" points="131,-56 0,-56 0,-37 131,-37 131,-56"/>
<text text-anchor="middle" x="65.5" y="-44" font-family="Helvetica,sans-Serif" font-size="10.00">HasWgtCent&lt; PT, PD &gt;</text>
</a>
</g>
</g>
<!-- Node1 -->
<g id="Node000001" class="node">
<title>Node1</title>
<g id="a_Node000001"><a xlink:href="classCentroidPoint.html" target="_top" xlink:title="Represents a point with a centroid and associated weights.">
<polygon fill="white" stroke="#666666" points="304,-37 167,-37 167,-18 304,-18 304,-37"/>
<text text-anchor="middle" x="235.5" y="-25" font-family="Helvetica,sans-Serif" font-size="10.00">CentroidPoint&lt; PT, PD &gt;</text>
</a>
</g>
</g>
<!-- Node0&#45;&gt;Node1 -->
<g id="edge8_Node000000_Node000001" class="edge">
<title>Node0&#45;&gt;Node1</title>
<g id="a_edge8_Node000000_Node000001"><a xlink:title=" ">
<path fill="none" stroke="#63b8ff" d="M141.65,-38C150.07,-37.05 158.62,-36.08 166.94,-35.14"/>
<polygon fill="#63b8ff" stroke="#63b8ff" points="141,-34.55 131.45,-39.15 141.78,-41.51 141,-34.55"/>
</a>
</g>
</g>
<!-- Node2 -->
<g id="Node000002" class="node">
<title>Node2</title>
<g id="a_Node000002"><a xlink:href="classPoint.html" target="_top" xlink:title="Represents a mathematical point in a multi&#45;dimensional space.">
<polygon fill="white" stroke="#666666" points="113,-19 18,-19 18,0 113,0 113,-19"/>
<text text-anchor="middle" x="65.5" y="-7" font-family="Helvetica,sans-Serif" font-size="10.00">Point&lt; PT, PD &gt;</text>
</a>
</g>
</g>
<!-- Node2&#45;&gt;Node1 -->
<g id="edge9_Node000002_Node000001" class="edge">
<title>Node2&#45;&gt;Node1</title>
<g id="a_edge9_Node000002_Node000001"><a xlink:title=" ">
<path fill="none" stroke="#63b8ff" d="M123.28,-15.58C137.29,-17.09 152.44,-18.71 166.92,-20.26"/>
<polygon fill="#63b8ff" stroke="#63b8ff" points="123.61,-12.1 113.3,-14.51 122.87,-19.06 123.61,-12.1"/>
</a>
</g>
</g>
</g>
</svg>
