<?xml version="1.0" encoding="UTF-8" standalone="no"?>
<!DOCTYPE svg PUBLIC "-//W3C//DTD SVG 1.1//EN"
 "http://www.w3.org/Graphics/SVG/1.1/DTD/svg11.dtd">
<!-- Generated by graphviz version 2.43.0 (0)
 -->
<!-- Title: Graphical Class Hierarchy Pages: 1 -->
<svg width="204pt" height="76pt"
 viewBox="0.00 0.00 204.00 75.50" xmlns="http://www.w3.org/2000/svg" xmlns:xlink="http://www.w3.org/1999/xlink">
<g id="graph0" class="graph" transform="scale(1 1) rotate(0) translate(4 71.5)">
<title>Graphical Class Hierarchy</title>
<!-- Node0 -->
<g id="Node000000" class="node">
<title>Node0</title>
<g id="a_Node000000"><a xlink:href="classCentroidInitMethod.html" target="_top" xlink:title=" ">
<polygon fill="white" stroke="#666666" points="110,-67.5 0,-67.5 0,-37.5 110,-37.5 110,-67.5"/>
<text text-anchor="start" x="8" y="-55.5" font-family="Helvetica,sans-Serif" font-size="10.00">CentroidInitMethod</text>
<text text-anchor="middle" x="55" y="-44.5" font-family="Helvetica,sans-Serif" font-size="10.00">&lt; double, 3 &gt;</text>
</a>
</g>
</g>
<!-- Node1 -->
<g id="Node000001" class="node">
<title>Node1</title>
<g id="a_Node000001"><a xlink:href="classKDE3D.html" target="_top" xlink:title=" ">
<polygon fill="white" stroke="#666666" points="196,-40 146,-40 146,-21 196,-21 196,-40"/>
<text text-anchor="middle" x="171" y="-28" font-family="Helvetica,sans-Serif" font-size="10.00">KDE3D</text>
</a>
</g>
</g>
<!-- Node0&#45;&gt;Node1 -->
<g id="edge2_Node000000_Node000001" class="edge">
<title>Node0&#45;&gt;Node1</title>
<g id="a_edge2_Node000000_Node000001"><a xlink:title=" ">
<path fill="none" stroke="#63b8ff" d="M120.28,-40.09C129.41,-38.33 138.28,-36.62 145.94,-35.14"/>
<polygon fill="#63b8ff" stroke="#63b8ff" points="119.48,-36.68 110.33,-42.02 120.81,-43.56 119.48,-36.68"/>
</a>
</g>
</g>
<!-- Node2 -->
<g id="Node000002" class="node">
<title>Node2</title>
<g id="a_Node000002"><a xlink:href="classKDEBase.html" target="_top" xlink:title=" ">
<polygon fill="white" stroke="#666666" points="99.5,-19 10.5,-19 10.5,0 99.5,0 99.5,-19"/>
<text text-anchor="middle" x="55" y="-7" font-family="Helvetica,sans-Serif" font-size="10.00">KDEBase&lt; 3 &gt;</text>
</a>
</g>
</g>
<!-- Node2&#45;&gt;Node1 -->
<g id="edge3_Node000002_Node000001" class="edge">
<title>Node2&#45;&gt;Node1</title>
<g id="a_edge3_Node000002_Node000001"><a xlink:title=" ">
<path fill="none" stroke="#63b8ff" d="M109.82,-19.42C122.5,-21.75 135.39,-24.12 145.97,-26.07"/>
<polygon fill="#63b8ff" stroke="#63b8ff" points="110.22,-15.93 99.75,-17.56 108.95,-22.81 110.22,-15.93"/>
</a>
</g>
</g>
</g>
</svg>
