<?xml version="1.0" encoding="UTF-8" standalone="no"?>
<!DOCTYPE svg PUBLIC "-//W3C//DTD SVG 1.1//EN"
 "http://www.w3.org/Graphics/SVG/1.1/DTD/svg11.dtd">
<!-- Generated by graphviz version 2.43.0 (0)
 -->
<!-- Title: Face::Face Pages: 1 -->
<svg width="183pt" height="64pt"
 viewBox="0.00 0.00 183.00 64.00" xmlns="http://www.w3.org/2000/svg" xmlns:xlink="http://www.w3.org/1999/xlink">
<g id="graph0" class="graph" transform="scale(1 1) rotate(0) translate(4 60)">
<title>Face::Face</title>
<!-- Node1 -->
<g id="Node000001" class="node">
<title>Node1</title>
<g id="a_Node000001"><a xlink:title="Constructor that initializes a face with three vertices and computes its area and normal.">
<polygon fill="#999999" stroke="#666666" points="66,-37 0,-37 0,-18 66,-18 66,-37"/>
<text text-anchor="middle" x="33" y="-25" font-family="Helvetica,sans-Serif" font-size="10.00">Face::Face</text>
</a>
</g>
</g>
<!-- Node2 -->
<g id="Node000002" class="node">
<title>Node2</title>
<g id="a_Node000002"><a xlink:href="classPoint.html#a94fed4ccceeba364d0909f79967284fd" target="_top" xlink:title="Computes the norm (magnitude) of the point.">
<polygon fill="white" stroke="#666666" points="175,-56 102,-56 102,-37 175,-37 175,-56"/>
<text text-anchor="middle" x="138.5" y="-44" font-family="Helvetica,sans-Serif" font-size="10.00">Point::norm</text>
</a>
</g>
</g>
<!-- Node1&#45;&gt;Node2 -->
<g id="edge1_Node000001_Node000002" class="edge">
<title>Node1&#45;&gt;Node2</title>
<g id="a_edge1_Node000001_Node000002"><a xlink:title=" ">
<path fill="none" stroke="#63b8ff" d="M66.18,-33.41C74.28,-34.9 83.14,-36.52 91.77,-38.1"/>
<polygon fill="#63b8ff" stroke="#63b8ff" points="91.27,-41.57 101.73,-39.93 92.53,-34.69 91.27,-41.57"/>
</a>
</g>
</g>
<!-- Node3 -->
<g id="Node000003" class="node">
<title>Node3</title>
<g id="a_Node000003"><a xlink:href="classPoint.html#a2de70b524bfdcaf108f4f793ecd2fcd2" target="_top" xlink:title="Sets the ID of the point.">
<polygon fill="white" stroke="#666666" points="175,-19 102,-19 102,0 175,0 175,-19"/>
<text text-anchor="middle" x="138.5" y="-7" font-family="Helvetica,sans-Serif" font-size="10.00">Point::setID</text>
</a>
</g>
</g>
<!-- Node1&#45;&gt;Node3 -->
<g id="edge2_Node000001_Node000003" class="edge">
<title>Node1&#45;&gt;Node3</title>
<g id="a_edge2_Node000001_Node000003"><a xlink:title=" ">
<path fill="none" stroke="#63b8ff" d="M66.18,-21.9C74.28,-20.49 83.14,-18.95 91.77,-17.45"/>
<polygon fill="#63b8ff" stroke="#63b8ff" points="92.48,-20.88 101.73,-15.72 91.28,-13.99 92.48,-20.88"/>
</a>
</g>
</g>
</g>
</svg>
