<?xml version="1.0" encoding="UTF-8" standalone="no"?>
<!DOCTYPE svg PUBLIC "-//W3C//DTD SVG 1.1//EN"
 "http://www.w3.org/Graphics/SVG/1.1/DTD/svg11.dtd">
<!-- Generated by graphviz version 2.43.0 (0)
 -->
<!-- Title: Face Pages: 1 -->
<svg width="121pt" height="389pt"
 viewBox="0.00 0.00 120.50 389.00" xmlns="http://www.w3.org/2000/svg" xmlns:xlink="http://www.w3.org/1999/xlink">
<g id="graph0" class="graph" transform="scale(1 1) rotate(0) translate(4 385)">
<title>Face</title>
<!-- Node1 -->
<g id="Node000001" class="node">
<title>Node1</title>
<g id="a_Node000001"><a xlink:title="Represents a triangular face in a 3D mesh.">
<polygon fill="#999999" stroke="transparent" points="85,-79 18,-79 18,0 85,0 85,-79"/>
<text text-anchor="start" x="41" y="-66.5" font-family="Helvetica,sans-Serif" font-size="10.00">Face</text>
<text text-anchor="start" x="22.5" y="-51.5" font-family="Helvetica,sans-Serif" font-size="10.00">+</text>
<text text-anchor="start" x="35.5" y="-51.5" font-family="Helvetica,sans-Serif" font-size="10.00">vertices</text>
<text text-anchor="start" x="22.5" y="-36.5" font-family="Helvetica,sans-Serif" font-size="10.00">+</text>
<text text-anchor="start" x="35.5" y="-36.5" font-family="Helvetica,sans-Serif" font-size="10.00">area</text>
<text text-anchor="start" x="22.5" y="-21.5" font-family="Helvetica,sans-Serif" font-size="10.00">+</text>
<text text-anchor="start" x="35.5" y="-21.5" font-family="Helvetica,sans-Serif" font-size="10.00">Face()</text>
<text text-anchor="start" x="22.5" y="-6.5" font-family="Helvetica,sans-Serif" font-size="10.00">+</text>
<text text-anchor="start" x="35.5" y="-6.5" font-family="Helvetica,sans-Serif" font-size="10.00">getArea()</text>
<polygon fill="#666666" stroke="#666666" points="18.5,-61.5 18.5,-61.5 85.5,-61.5 85.5,-61.5 18.5,-61.5"/>
<polygon fill="#666666" stroke="#666666" points="18.5,-31.5 18.5,-31.5 33.5,-31.5 33.5,-31.5 18.5,-31.5"/>
<polygon fill="#666666" stroke="#666666" points="33.5,-31.5 33.5,-31.5 85.5,-31.5 85.5,-31.5 33.5,-31.5"/>
<polygon fill="none" stroke="#666666" points="18,0 18,-79 85,-79 85,0 18,0"/>
</a>
</g>
</g>
<!-- Node2 -->
<g id="Node000002" class="node">
<title>Node2</title>
<g id="a_Node000002"><a xlink:href="classPoint.html" target="_top" xlink:title=" ">
<polygon fill="white" stroke="transparent" points="103,-381 0,-381 0,-137 103,-137 103,-381"/>
<text text-anchor="start" x="5.5" y="-369" font-family="Helvetica,sans-Serif" font-size="10.00">Point&lt; double, 3 &gt;</text>
<text text-anchor="start" x="4.5" y="-354" font-family="Helvetica,sans-Serif" font-size="10.00">+</text>
<text text-anchor="start" x="17.5" y="-354" font-family="Helvetica,sans-Serif" font-size="10.00">coordinates</text>
<text text-anchor="start" x="4.5" y="-339" font-family="Helvetica,sans-Serif" font-size="10.00">+</text>
<text text-anchor="start" x="17.5" y="-339" font-family="Helvetica,sans-Serif" font-size="10.00">id</text>
<text text-anchor="start" x="4.5" y="-324" font-family="Helvetica,sans-Serif" font-size="10.00">+</text>
<text text-anchor="start" x="17.5" y="-324" font-family="Helvetica,sans-Serif" font-size="10.00">centroid</text>
<text text-anchor="start" x="4.5" y="-309" font-family="Helvetica,sans-Serif" font-size="10.00">+</text>
<text text-anchor="start" x="17.5" y="-309" font-family="Helvetica,sans-Serif" font-size="10.00">Point()</text>
<text text-anchor="start" x="4.5" y="-294" font-family="Helvetica,sans-Serif" font-size="10.00">+</text>
<text text-anchor="start" x="17.5" y="-294" font-family="Helvetica,sans-Serif" font-size="10.00">Point()</text>
<text text-anchor="start" x="4.5" y="-279" font-family="Helvetica,sans-Serif" font-size="10.00">+</text>
<text text-anchor="start" x="17.5" y="-279" font-family="Helvetica,sans-Serif" font-size="10.00">Point()</text>
<text text-anchor="start" x="4.5" y="-264" font-family="Helvetica,sans-Serif" font-size="10.00">+</text>
<text text-anchor="start" x="17.5" y="-264" font-family="Helvetica,sans-Serif" font-size="10.00">getDimensions()</text>
<text text-anchor="start" x="4.5" y="-249" font-family="Helvetica,sans-Serif" font-size="10.00">+</text>
<text text-anchor="start" x="17.5" y="-249" font-family="Helvetica,sans-Serif" font-size="10.00">getValues()</text>
<text text-anchor="start" x="4.5" y="-234" font-family="Helvetica,sans-Serif" font-size="10.00">+</text>
<text text-anchor="start" x="17.5" y="-234" font-family="Helvetica,sans-Serif" font-size="10.00">setValue()</text>
<text text-anchor="start" x="4.5" y="-219" font-family="Helvetica,sans-Serif" font-size="10.00">+</text>
<text text-anchor="start" x="17.5" y="-219" font-family="Helvetica,sans-Serif" font-size="10.00">setCentroid()</text>
<text text-anchor="start" x="4.5" y="-204" font-family="Helvetica,sans-Serif" font-size="10.00">+</text>
<text text-anchor="start" x="17.5" y="-204" font-family="Helvetica,sans-Serif" font-size="10.00">setCentroid()</text>
<text text-anchor="start" x="4.5" y="-189" font-family="Helvetica,sans-Serif" font-size="10.00">+</text>
<text text-anchor="start" x="17.5" y="-189" font-family="Helvetica,sans-Serif" font-size="10.00">setID()</text>
<text text-anchor="start" x="4.5" y="-174" font-family="Helvetica,sans-Serif" font-size="10.00">+</text>
<text text-anchor="start" x="17.5" y="-174" font-family="Helvetica,sans-Serif" font-size="10.00">operator==()</text>
<text text-anchor="start" x="17.5" y="-159" font-family="Helvetica,sans-Serif" font-size="10.00">and 8 more...</text>
<text text-anchor="start" x="4.5" y="-144" font-family="Helvetica,sans-Serif" font-size="10.00">+</text>
<text text-anchor="start" x="17.5" y="-144" font-family="Helvetica,sans-Serif" font-size="10.00">vectorSum()</text>
<polygon fill="#666666" stroke="#666666" points="0.5,-364 0.5,-364 103.5,-364 103.5,-364 0.5,-364"/>
<polygon fill="#666666" stroke="#666666" points="0.5,-319 0.5,-319 15.5,-319 15.5,-319 0.5,-319"/>
<polygon fill="#666666" stroke="#666666" points="15.5,-319 15.5,-319 103.5,-319 103.5,-319 15.5,-319"/>
<polygon fill="none" stroke="#666666" points="0,-137 0,-381 103,-381 103,-137 0,-137"/>
</a>
</g>
</g>
<!-- Node2&#45;&gt;Node1 -->
<g id="edge1_Node000001_Node000002" class="edge">
<title>Node2&#45;&gt;Node1</title>
<g id="a_edge1_Node000001_Node000002"><a xlink:title=" ">
<path fill="none" stroke="#63b8ff" d="M51.5,-136.85C51.5,-120.87 51.5,-105.25 51.5,-91.39"/>
<polygon fill="none" stroke="#63b8ff" points="51.5,-91.21 47.5,-85.21 51.5,-79.21 55.5,-85.21 51.5,-91.21"/>
</a>
</g>
<text text-anchor="middle" x="82" y="-111" font-family="Helvetica,sans-Serif" font-size="10.00" fill="grey"> +baricenter</text>
<text text-anchor="middle" x="82" y="-100" font-family="Helvetica,sans-Serif" font-size="10.00" fill="grey">+normal</text>
</g>
</g>
</svg>
